<svg width="136" height="48" fill="none" xmlns="http://www.w3.org/2000/svg"><g clip-path="url(#clip0_2257_231)" fill="#fff"><path d="M112.272 19.996c-.14.24-.419.33-.628.471-.079.018-.166.027-.244.045-.096.018-.184.035-.28.044-.209 0-.444.09-.593.205-.07.018-.139.026-.209.044-.323.009-.715.071-1.012.018-.148-.027-.279-.107-.41-.151-.131-.045-.27-.098-.401-.142-.349-.196-.655-.676-.428-1.094.14-.257.576-.435.812-.568.218-.125.418-.267.628-.4.13-.062.261-.134.392-.205a2.98 2.98 0 00.829-.8c.201 0 .392 0 .558.054.297.107.838.515.969.826.087.223.095.551.113.818.017.293.035.622-.096.844v-.009zm-13.112 5.03c-.043.178-.113.33-.14.525-.043.284-.025.578-.069.853-.078.427-.218.853-.305 1.271-.026.311-.061.622-.096.933-.052.409-.305.764-.428 1.138-.026.115-.06.23-.087.346-.052.107-.105.223-.157.338-.035.142-.078.276-.122.418a2.533 2.533 0 00-.113.213c-.044.151-.096.302-.14.444-.236.525-.506 1.05-.742 1.573a3.54 3.54 0 01-.165.214c-.07.106-.131.222-.2.328l-.106.338c-.052.116-.113.231-.165.338-.044.187-.079.373-.122.56-.07.15-.149.293-.219.435-.218.338-.444.676-.663 1.022-.226.383-.418.8-.671 1.173-.122.152-.245.294-.367.445-.13.195-.253.418-.4.586l-.542.551c-.2.178-.445.312-.645.507-.323.32-.602.649-.951.924-.236.125-.471.25-.716.373-.331.01-.628-.133-.758-.435-.201-.471-.035-1.102.043-1.546.105-.685.14-1.351.323-2.009.061-.124.122-.258.183-.382.044-.133.096-.276.14-.409.104-.213.14-.426.227-.657.165-.427.4-.81.593-1.218.052-.142.104-.276.157-.418.148-.213.288-.426.436-.648l.34-.756c.122-.231.262-.435.375-.675.035-.08.07-.17.105-.25.14-.204.27-.4.41-.604.314-.524.637-1.048.96-1.573.052-.124.113-.248.165-.373.105-.169.2-.338.306-.506.244-.365.488-.738.732-1.102l.192-.223c.07-.106.131-.213.201-.328l.157-.347c.13-.151.253-.311.384-.462.218-.311.384-.658.593-.969.297-.427.593-.853.898-1.288.053-.116.105-.232.166-.338l.21-.32c.104-.125.209-.258.314-.382.14 0 .27 0 .392.053.053 0 .035.018.044.071.043.462.06.978.078 1.466.01.25.027.543-.034.783zm-9.97-4.514c-.114.062-.306.124-.41.018-.079-.072-.079-.187-.044-.276.183-.418.672-.684.986-.986.288-.294.514-.56.855-.747.113.027.226.044.209.196-.035.31-1.3 1.617-1.597 1.795zm-18.904-.453c-.166.062-.332.124-.498.177a6.168 6.168 0 00-.75.41c-.078.035-.148.07-.227.106-.27.009-.41.142-.628.23-.148.054-.296.108-.436.152-.28.133-.55.302-.811.444-.253.134-.524.17-.75.338-.079.018-.166.027-.245.044-.279.01-.427.151-.663.25-.296.115-.602.23-.898.355-.332.009-.445.16-.698.258-.175.053-.34.106-.515.16-.113.053-.235.106-.358.16-.331.106-.706.168-1.003.346-.078.018-.165.027-.244.044-.323.01-.724.09-.977.25-.078.017-.166.026-.244.044-.21 0-.489-.018-.663.062-.244 0-.454.107-.628.24-.07.018-.14.027-.21.044-.078.018-.166.027-.244.045-.235 0-.401.115-.593.186-.07.018-.14.045-.2.063-.167 0-.393-.018-.524.053-.175 0-.428-.018-.559.053-.741.027-1.5.018-2.215.054-.463.017-1.021.097-1.44 0-.13-.027-.488-.214-.558-.338-.628-1.067 1.265-2.124 1.91-2.524.07-.053.131-.116.201-.169l.323-.16c.235-.142.453-.302.706-.418.149-.053.297-.097.445-.142.332-.169.68-.346 1.038-.462.253-.062.506-.116.75-.178.088-.044.175-.097.262-.142.166-.053.332-.115.506-.169.096-.044.192-.098.288-.15.2-.072.454-.063.646-.143.122-.062.244-.124.366-.178.183-.053.367-.098.55-.15.14-.054.27-.143.419-.179l.758-.133c.219-.062.445-.115.663-.178.445-.053.899-.053 1.326-.142.175-.035.288-.169.454-.204.698-.17 1.553-.071 2.277-.17l.349-.052 1.055.026 2.077-.08c.244-.026.488-.053.732-.089.21.01.428.027.637.036h.846c.288 0 .524-.053.777.053.008.347-2.233 1.671-2.582 1.867zm7.79-2.924c.078 0 .165.017.253.026 0 .116.043.231.017.347-.13.578-.837 1.058-1.143 1.564-.096 0-.174-.062-.253-.098-.017-.568.899-1.306 1.126-1.83v-.01zm7.127-2.79l.105-.294c.13-.205.296-.373.418-.587.105-.195.218-.39.306-.595.104-.249.287-.462.427-.684.052-.107.105-.205.157-.312.122-.177.253-.355.375-.533.21-.355.428-.71.637-1.066.13-.17.27-.338.401-.507.149-.195.245-.435.393-.63.21-.276.436-.525.637-.8.375-.516.724-1.094 1.16-1.574l.419-.4c.148-.16.279-.364.462-.488.105-.054.2-.107.305-.16.079 0 .166 0 .245-.01 0 .178.078.312 0 .498l-.602.907c-.14.24-.27.498-.41.738-.123.204-.262.39-.367.604l-.157.346c-.113.16-.279.294-.392.445-.175.24-.34.489-.506.729-.332.533-.69 1.048-1.03 1.582-.218.346-.41.728-.637 1.075-.148.23-.357.444-.55.649-.069.124-.147.257-.217.382-.183.258-1.422 1.91-1.71 1.688-.288-.213.044-.773.122-.977l.009-.027zm49.96 5.26c-.079.018-.166.027-.245.045-.209 0-.436.089-.593.204-.768.027-1.457-.035-2.181-.053-.645-.018-1.239 0-1.867-.053-.2-.036-.401-.063-.602-.098-.453-.062-.898-.027-1.369-.045-.34 0-1.108-.15-1.37-.009-.541 0-1.081.01-1.614.018-.165-.026-.331-.044-.497-.07-.375-.027-.75-.063-1.125-.09-.288-.053-.506-.169-.794-.213-.297-.053-.567-.116-.846-.151-.244-.036-.506-.036-.733-.116-.741-.266-1.082-1.11-1.989-1.03-.288.026-.445.168-.663.293-.454.249-.846.577-1.282.853-.14.089-.297.107-.436.186-.786.027-1.021-.71-1.641-1.066-.279-.16-.575-.249-.863-.373-.105-.053-.21-.107-.314-.151l-.367-.107c-.078-.035-.157-.08-.235-.116-.192-.044-.393-.088-.585-.133-.366-.133-.645-.462-.994-.63-.131-.036-.271-.072-.401-.107-.297-.08-.794-.285-1.134-.116-.236.009-.524.08-.698.204-.908.036-1.797.827-2.312 1.538-.105.151-.218.373-.358.489-.148.115-.305.24-.479.302-.262.08-.576.133-.794.302-.079.018-.166.027-.245.044-.087.018-.183.027-.279.045a1.47 1.47 0 00-.733.24c-.069.018-.139.027-.209.044-.105.018-.209.036-.314.045-.105.017-.209.035-.314.044-.218 0-.462.053-.628.17-.07.017-.14.026-.209.044-.175 0-.41-.01-.559.062-.183 0-.384 0-.523.089-.07.017-.14.026-.21.044-1.16.044-.645-1.102-.314-1.653.061-.062.123-.133.184-.204.165-.196.34-.4.479-.614.314-.497.611-1.022.864-1.546.148-.302.454-.498.646-.764.253-.356.444-.773.663-1.147.13-.169.261-.346.383-.515.218-.338.41-.693.646-1.031l.393-.48c.122-.213.244-.418.366-.631.139-.187.279-.382.419-.569.043-.08.087-.169.139-.249.192-.257.428-.47.646-.702.131-.16.261-.329.392-.489.201-.213.393-.435.594-.648.34-.41.575-.89.898-1.298.227-.249.454-.489.68-.738.253-.293.506-.613.786-.915.436-.48.907-.906 1.326-1.377.261-.303.462-.631.724-.907.383-.4.82-.595 1.073-1.146.078-.17.096-.498-.053-.631-.366-.33-.715-.187-1.064.07-.34.25-.506.614-.733.943-.139.213-.357.444-.523.64l-2.521 2.861c-.323.356-.541.747-.846 1.102-.21.24-.428.471-.637.711-.55.711-1.099 1.431-1.649 2.142-.14.151-.279.311-.427.462-.131.151-.236.32-.384.462-.157.143-.306.285-.463.427-.445.551-.889 1.066-1.404 1.537-.218.187-.436.374-.646.56l-.288.214c-.192.177-.383.346-.575.524-.114.125-.245.302-.367.409-.235.195-.488.426-.741.613-.332.24-.707.436-1.038.693-.245.25-.498.49-.742.738-.113.089-.261.107-.392.178-.14.088-.27.177-.41.266-.62.445-1.204.916-1.841 1.316-.14.062-.288.115-.428.168-.078.054-.148.098-.226.151-.192.107-.402.187-.593.294-.245.133-.524.213-.742.382-.13 0-.314 0-.419.053-.105.018-.21.036-.314.045-.261.009-.532.026-.733-.098-.4-.249-.165-1.138-.087-1.52.035-.169.14-.31.114-.506-.027-.276-.28-.56-.506-.676-.114-.062-.27-.15-.41-.142-.096.036-.192.062-.288.098-.105.044-.218.08-.332.124-.331.178-.61.551-.872.818-.358.355-.75.666-1.134 1.004-.227.222-.454.444-.672.667-.366.275-.829.4-1.186.675a1.729 1.729 0 00-.873.285c-.07.017-.14.026-.209.044-.07.018-.14.027-.21.044-.287.01-.593.01-.837-.062-.654-.195-1.012-.898-1.055-1.582-.018-.249-.035-.542.078-.737.227-.41.61-.667.89-1.04.218-.294.471-.551.715-.845.096-.133.192-.257.288-.382.175-.177.358-.355.532-.533.393-.489.75-1.004 1.126-1.502l.445-.506c.209-.294.366-.631.532-.951l.13-.294c.445-.64.986-1.226 1.405-1.884.044-.106.087-.204.13-.302l.385-.55c.043-.099.096-.196.14-.294.2-.267.392-.542.592-.809l.21-.4c.122-.15.235-.302.358-.453.14-.24.244-.516.383-.747.105-.168.14-.373.245-.533.41-.63.898-1.182 1.29-1.813.123-.213.288-.409.367-.64.061-.186.079-.409.07-.63-.009-.187-.044-.365-.192-.454-.175-.116-.462-.116-.654-.018-.445.231-.768.676-1.152.996-.218.177-.419.417-.645.595-.873.693-1.65 1.52-2.338 2.417-.594.765-1.108 1.591-1.684 2.356-.2.266-.454.488-.628.773-.244.39-.419.808-.637 1.208-.122.214-.288.391-.392.614-.131.266-.227.55-.358.817-.13.25-.305.454-.454.693-.165.258-.296.525-.445.791l-.34.827c-.122.24-.331.426-.436.675l-.105.41c-.104.301-.288.586-.384.888-.165.48-.314 1.004-.645 1.404-.454.542-1.056.915-1.614 1.28-.497.346-.994.693-1.492 1.03-.261.16-.523.285-.793.427-.088.063-.184.116-.28.178-.322.151-.732.16-1.038.347-.288.009-.88-.018-.828-.427.043-.373 1.134-1.235 1.43-1.59.506-.614 1.09-1.45 1.361-2.178.026-.116.052-.24.079-.356.043-.168.209-.417.078-.613-.061-.089-.157-.133-.236-.186-.4-.258-.662-.08-1.064.035-.14.036-.279.044-.392.133-.27.205-.646.81-.977.827-.061 0-.114-.027-.131-.08a.386.386 0 010-.222c.13-.178.27-.365.401-.542.175-.231.332-.48.48-.72.218-.33.436-.649.645-.978.131-.178.253-.355.376-.533.078-.16.104-.329.157-.489.209-.63.4-1.297.392-2.035-.017-.658-.148-1.235-.296-1.822-.053-.258-.114-.515-.166-.773-.175-.569-.445-1.102-.707-1.626-.078-.16-.096-.365-.183-.525a2.74 2.74 0 00-.192-.258c-.13-.213-.236-.435-.375-.648-.166-.258-.358-.48-.532-.73a7.673 7.673 0 00-.253-.301c-.131-.196-.27-.41-.428-.578-.27-.284-.61-.515-.898-.764a14.67 14.67 0 00-1.37-1.004c-.166-.107-.305-.258-.47-.365-.463-.302-.97-.595-1.493-.782-.209-.071-.436-.071-.662-.115-.114-.045-.219-.09-.332-.134-.13-.026-.253-.062-.384-.089-.157-.062-.323-.124-.48-.186a46.267 46.267 0 00-.453-.08c-.21-.054-.393-.142-.61-.17l-.533-.052c-.166-.027-.332-.063-.497-.09-1.274-.115-2.652-.053-4.004 0-.218.036-.445.063-.663.098-.192 0-.445-.017-.594.063a1.712 1.712 0 00-.767.213c-.332.009-.654.027-.986.035-.157 0-.366 0-.489.054-.296.009-.645.089-.872.249-.235.009-.576-.036-.768.062-.375.018-1.029.107-1.29.302-.097.018-.184.036-.28.044-.305.01-.497.16-.741.25-.166.044-.332.097-.498.141l-.287.187c-.471.213-1.457.596-1.475 1.262-.008.365.323.578.498.844.218.347.47.685.915.72.21.018.27-.169.201-.337a9.602 9.602 0 00-.244-.391c-.27-.791.244-1.04.776-1.342.105-.054.2-.116.306-.17.14-.035.279-.08.418-.115.131-.053.253-.115.384-.178.175-.044.34-.088.515-.133.122-.053.235-.107.358-.16a23.9 23.9 0 01.767-.178c.14-.053.28-.097.419-.15.462-.09.942-.107 1.44-.143.348-.071.697-.133 1.046-.204l1.37-.107c.27-.027.54-.062.802-.098.559-.026 1.126-.044 1.684-.07l.663-.08c.419 0 .829.035 1.23.097.183.027.34.107.54.124.376.045.795.01 1.152.098.088.036.175.071.262.098.262.08.523.142.776.24.201.044.402.089.594.142.13.053.253.098.375.151.13.036.27.071.401.107.523.24.995.595 1.492.924.602.409 1.195.844 1.727 1.378.183.177.305.408.471.604.236.267.497.506.698.79.148.214.262.463.41.676.13.196.28.382.419.578.06.151.13.293.192.435.06.08.113.17.174.25.157.293.253.595.367.915.06.169.2.31.235.497l.026.96c.052.436.105.916.114 1.396-.01.168-.027.337-.044.506 0 .258.052.48-.026.711-.07.213-.131.444-.227.649-.122.222-.236.453-.358.675-.043.151-.096.293-.14.436-.113.142-.217.293-.33.435-.201.249-.41.516-.62.764l-.419.534c-.2.16-.392.275-.593.417a3.328 3.328 0 01-.174.143c-.192.115-.376.186-.55.337-.079.018-.166.027-.244.045-.14 0-.35 0-.454.053-.07.018-.14.027-.21.044-.2 0-.435.063-.593.17-.427.017-.863.026-1.3.044-.34-.009-1.098-.178-1.378-.045-.096.018-.183.036-.279.045-.366.018-.706-.036-1.055-.027-.995 0-1.98 0-2.993.045-.279.009-.837-.027-1.046.08-.096.017-.184.026-.28.044-.392.018-.828 0-1.116.187-.183 0-.454-.027-.593.062-.367.018-.742.08-1.012.293-.079.018-.166.027-.244.045-.123 0-.288 0-.384.053a.613.613 0 00-.314.08c-.236 0-.559.018-.672-.213-.105-.214.105-1.014.183-1.227.061-.124.122-.258.183-.382.096-.302.2-.675.375-.942.297-.462.48-.978.716-1.466.192-.4.453-.782.636-1.182.053-.152.097-.294.149-.445.113-.204.235-.409.349-.613a4.83 4.83 0 01.14-.338c.121-.222.252-.435.383-.657a6.04 6.04 0 00.166-.338c.218-.267.427-.533.645-.8.253-.391.402-.889.698-1.244.384-.453 1.771-1.644.864-2.195-.332-.205-.855.266-1.038.542-.14.213-.218.462-.358.675-.174.267-.349.56-.523.809-.149.213-.306.409-.419.631-.122.249-.305.462-.462.702-.14.231-.244.48-.402.702-.14.187-.279.373-.427.56-.227.382-.393.782-.593 1.173-.21.4-.471.764-.646 1.182l-.13.453c-.158.347-.515.623-.646.987-.044.204-.096.4-.14.604-.113.285-.235.56-.349.836l-.104.71c-.044.17-.096.338-.14.507-.078.524 0 .702-.305 1.138-.218.31-.585.409-.864.63-.07.018-.14.027-.21.045-.226 0-.619.169-.802.285a1.58 1.58 0 00-.837.284c-.541.018-.907.382-1.361.578-1.02.444-2.05.977-2.896 1.715l-.288.186a3.795 3.795 0 00-.62.685c-.087.124-.087.258-.14.39-.06.179-.148.33-.121.543.017.178.13.284.2.427.27.586.881.897 1.466 1.066.48.133.968.062 1.509.036.28-.01.55.035.811.017.34-.035.68-.08 1.021-.115.253-.018.515-.027.768-.045a29.68 29.68 0 001.29-.16c.446-.115.89-.23 1.327-.346.419-.071.837-.151 1.247-.222l.899-.294c.148-.07.288-.142.427-.213.166-.044.332-.098.506-.142.131-.053.227-.142.358-.178.218-.044.436-.08.654-.124.166-.063.323-.125.489-.187.209-.053.41-.107.619-.151.253-.089.54-.178.794-.284.096-.054.2-.116.296-.178.166-.045.34-.089.506-.133.105-.054.218-.098.323-.151.122-.045.244-.08.367-.125a4.55 4.55 0 00.349-.204c.139-.045.27-.08.4-.125.315-.142.629-.337.952-.462.148-.044.296-.089.453-.133.131-.062.253-.116.384-.178.14-.044.27-.089.401-.124.088-.054.166-.107.253-.152.114-.044.227-.097.34-.142.105-.062.21-.124.306-.186.436-.231.864-.462 1.274-.73.209-.141.418-.292.628-.434.27-.16.54-.303.81-.445.08-.053.15-.098.228-.151.104-.044.2-.098.305-.142.166-.142.332-.285.497-.418.236-.107.48-.213.716-.32.157-.062.584-.16.724-.018.052.054.06.16.052.25-.026.301-.323.524-.445.79-.061.142-.13.294-.2.436-.158.409-.21.897-.559 1.208-.218.187-.48.311-.724.436l-.262.186c-.331.178-.698.374-.985.631-.175 0-.332.036-.489 0-.122-.017-.183-.07-.218-.195-.28-.915-1.492.418-1.78.738-.122.133-.27.257-.331.435a.485.485 0 00.061.409c.2.249.532.364.846.364 1.012 0 1.57-.47 2.338-.888.288-.16.593-.276.881-.418.35-.169.637-.418 1.082-.347.279.045.48.205.724.294l.95.213c.795.142 1.65-.471 2.269-.791.305-.16.61-.276.898-.453.27-.17.611-.436.864-.631.305-.24 1.02-.943 1.387-.951.523-.01.724.693 1.003 1.004.402.453.846.88 1.431.995.244.045.628.16.881.134.584-.063 1.073-.445 1.675-.471.297-.01.454.106.69.195a1.3 1.3 0 00.898-.027c.227-.097.628-.453.802-.648.192-.223.401-.49.707-.525.497-.062.584.258.933.48.131.045.262.09.393.133a2.7 2.7 0 00.296.098c.315.071.69.045 1.004-.026.2-.054.4-.116.602-.17.191-.044.383-.061.55-.15.4-.205.75-.498 1.142-.702.349-.187.672-.391 1.012-.596.105-.062.21-.115.305-.178.288-.23.55-.497.855-.702.28-.195.576-.382.864-.568.13-.08.261-.152.392-.232.28-.24.532-.542.82-.773.367-.293.707-.604 1.091-.87.209-.143.785-.774 1.047-.605.113.071.122.222.087.347-.079.266-.34.435-.48.675-.113.187-.227.382-.349.569-.061.08-.113.16-.174.24-.123.222-.245.444-.358.666-.044.063-.087.116-.131.178-.105.222-.218.462-.366.667-.149.186-.34.284-.524.4-.427.017-1.134-.178-1.273.337a.85.85 0 00.017.489c.044.151.148.24.227.364.148.24.13.534.044.8-.079.222-.262.418-.402.614-.288.417-.645.826-.916 1.253-.122.186-.244.355-.357.55-.053.107-.096.223-.14.33-.297.444-.593.88-.89 1.324-.227.382-.384.79-.62 1.182l-.41.47c-.2.25-.348.543-.523.81-.043.097-.096.195-.14.293-.191.32-.4.622-.592.95-.053.116-.114.223-.166.338a27.09 27.09 0 00-1.117 1.707 6.426 6.426 0 00-.165.435c-.114.204-.227.4-.332.604-.061.125-.113.25-.174.365-.114.169-.236.338-.35.515a5.487 5.487 0 00-.121.347c-.079.178-.166.355-.254.533-.218.356-.427.711-.645 1.058-.044.133-.096.266-.14.408a26.5 26.5 0 00-.375.854c-.087.213-.078.453-.122.684-.043.133-.078.276-.122.409-.017.133-.044.267-.061.39-.052.17-.105.339-.148.508-.035.213-.079.426-.114.64-.035.16-.113.301-.13.48-.027.24.043.453.07.675.017.186.025.382.043.569.122.595.497 1.341 1.134 1.475.279.053.672 0 .89-.142.07-.054.13-.098.192-.143.47-.248.968-.577 1.352-.977.401-.462.802-.925 1.204-1.378.418-.409.724-.844 1.02-1.324.14-.204.28-.4.419-.604.14-.25.227-.551.384-.791.462-.729.916-1.44 1.334-2.186l.184-.454c.13-.23.253-.462.384-.684.034-.124.078-.249.113-.373.14-.311.331-.596.506-.89.052-.097.13-.168.166-.275l.314-1.066c.113-.311.296-.604.401-.924.035-.214.079-.427.122-.631.044-.107.087-.205.122-.311.035-.143.07-.285.096-.436.053-.124.096-.249.148-.373.035-.178.062-.356.097-.533.034-.143.078-.294.113-.436l.078-.853c.035-.16.123-.293.157-.444l.105-.925c.035-.16.07-.31.096-.47.035-.48.017-.97.052-1.44.027-.41-.209-1.014-.096-1.351a.355.355 0 01.166-.205c.026-.008.044-.026.07-.035.523-.231 1.204-.018 1.771-.142.357-.072.794-.125 1.151-.223l.559-.213c.305-.062.628-.053.907-.142.201-.071.392-.133.593-.204l.541-.134c.27-.098.515-.24.846-.23.044 0 .096.017.14.026.244.08.261.329.366.524.096.125.192.258.288.382.183.214.698.498.96.57.218.035.444.08.663.115.13.044.27.088.401.133.218.036.541.018.768-.018.218-.027.348-.142.558-.187.218-.053.436-.097.663-.15l.392-.16c.157-.045.314-.09.471-.125a1.93 1.93 0 00.698-.533 1.4 1.4 0 00.271-.667c.026-.275-.245-1.164.148-1.182.148 0 .27.098.401.142.48.143 1.3.587 1.422 1.156.105.515-.436.95 0 1.36a.62.62 0 00.236.168c.2.063.567.054.75-.044.183-.107.305-.302.462-.453.367-.356.786-.685 1.169-1.005.192-.16.402-.364.628-.47.55-.276 1.117.026 1.579.257.114.053.201.133.332.169.166.027.323.053.488.089.175.044.323.115.506.142.375.044.751.08 1.126.125.2.035.401.062.602.097.54.036 1.064.01 1.613.027l1.623.107 1.614-.054c1.073-.026 2.163 0 3.271-.053.236-.018.471-.044.698-.062l1.335-.054c.637-.017 2.198.063 2.521-.48a.502.502 0 00.061-.168V19.8c-.009-.293-.637-.302-.846-.204l.009.008zm-88.571 2.178c-.07.55-.157 1.022-.488 1.448-.358.453-.855.871-1.326 1.173-.166.09-.323.178-.489.267-.636.027-.863-.311-.872-.933 0-.24 0-.516.07-.72.096-.302.262-.587.375-.88.28-.72.62-1.715 1.317-2.15.297-.01.628-.063.864.062.645.337.637 1.066.55 1.75v-.017zm-7.336.453c-.017.089-.079.178-.114.258-.165.346-.348.675-.61.968-.087.098-.21.125-.314.196-.35.24-.698.515-1.09.675-.114.045-.288.054-.384-.017-.463-.347.165-.854.375-1.111.218-.276.418-.57.671-.818.297-.284.62-.507.943-.738.183.01.27.036.383.17.114.124.166.221.14.417zM25.752 24.59c-.166.187-.375.311-.55.48-.994.035.393-1.475.62-1.698.096-.08.2-.16.296-.24.088.036.184.08.218.178.088.285-.383 1.058-.584 1.271v.009zm-13.958 8.39c-.043.124-.096.248-.14.373-.322.586-.81 1.049-1.15 1.617-.123.205-.219.436-.358.64-.088.125-.192.24-.28.356-.27.364-.47.755-.767 1.102l-.908 1.004c-.165.213-.244.489-.4.693-.228.231-.446.471-.673.702-.226.302-.392.64-.619.933l-.393.454c-.13.186-.261.373-.392.568-.122.143-.244.294-.375.436-.227.293-.445.595-.672.889-.052.053-.105.097-.166.15-.305.392-.61.765-.95 1.147-.254.311-.515.613-.768.924-.306.445-.48.72-.934 1.023-.218.008-.392 0-.567-.09-.017-.462.175-.835.332-1.217.043-.08.078-.16.122-.24.07-.249.035-.533.122-.773.079-.231.244-.4.358-.604l.13-.303c.131-.213.254-.426.376-.63.052-.125.096-.25.148-.374.323-.604.654-1.209 1.02-1.777.123-.196.289-.347.428-.516l.593-.79c.218-.24.437-.48.663-.72.445-.552.89-1.085 1.37-1.61.122-.15.235-.31.358-.461a22.86 22.86 0 012.207-2.027c.192-.16.41-.284.602-.435.287-.231.532-.515.837-.72.122-.053.236-.107.358-.16.122-.071.235-.142.349-.213.122 0 .34-.027.375.106.06.223-.148.374-.227.543h-.009zm39.483-21.125c-.506.017-1.134.888-1.483 1.262-.166.177-.384.31-.558.48-.201.195-.35.444-.541.63l-.559.543a8.636 8.636 0 01-.253.346c-.261.258-.558.48-.81.756-.472.524-.908 1.057-1.414 1.528-.297.285-.645.507-.977.738-.166.142-.332.275-.497.418-.149.106-.332.124-.498.195-.095.053-.183.098-.279.151-.113.045-.235.098-.357.142l-.21.134c-.314.133-.68.186-.96.382-.113 0-.261 0-.348.053-.245 0-.48.107-.663.24-.079.018-.166.027-.244.044-.14.01-.28.027-.42.036-.217.009-.496-.053-.697.044-.515.018-.811.472-1.169.765-.105.07-.218.142-.332.213-.305.24-.636.507-.907.791-.122.125-.227.276-.34.4-.349.382-.776.711-1.152 1.049-.148.133-.279.284-.444.4-.253.177-.541.31-.803.47-.183.116-.375.214-.558.33-.07.053-.149.106-.218.15-.236.107-.463.196-.68.338-.132 0-.28 0-.385.054-.279.009-.619.035-.837-.098-.105-.062-.157-.187-.192-.302-.079-.24-.026-.534.061-.747.148-.346.41-.63.646-.933.55-.693 1.186-1.502 1.945-1.875.192-.098.48-.205.54.098.018.097.044.195.062.293.113.222.462.4.68.249.227-.16.733-.73.812-.969.157-.507-.105-1.013-.62-1.084-.113-.018-.288-.036-.384.017-.305.01-.48.125-.724.223-.122.044-.253.08-.383.124a5.72 5.72 0 00-1.021.622c-.262.187-.471.445-.715.658a9.493 9.493 0 01-1.117.87c-.27.17-.576.312-.838.498-.192.134-.375.285-.575.4-.105.054-.218.107-.323.16-.218.134-.419.285-.637.418-.218.133-.436.222-.637.373-.07.018-.14.027-.21.045-.27.009-.41-.178-.296-.436.079-.08.157-.16.227-.248.288-.374.75-.694.881-1.156.079-.275-.035-.47-.13-.702-.08-.187-.123-.409-.315-.506-.113-.054-.288-.098-.418-.036-.306.009-.463.151-.698.267-.628.302-1.23.71-1.719 1.244l-.741.995-.55.587c-.148.186-.288.373-.436.56-.183.248-.428.48-.62.72-.174.222-.209.533-.418.746-.175.169-.436.24-.628.373-.288.01-.724.16-.943.285-.078.017-.165.026-.244.044-.078.018-.166.027-.244.044-.07.018-.14.027-.21.045-.139 0-.305.018-.418.089-.166 0-.393.044-.524.124-.078.018-.165.027-.244.045-.279.008-.445.124-.671.213-.131.044-.262.089-.402.133-.104.054-.21.116-.314.17-.104.026-.21.052-.314.08-.166 0-.436.026-.497-.143-.183-.471.314-.978.497-1.342.149-.284.314-.551.48-.835.052-.125.105-.24.166-.365l.61-.862a6.04 6.04 0 00.166-.338c.366-.506.742-.986 1.003-1.546.218-.462.646-.782.934-1.218.2-.346.401-.684.602-1.03.2-.311.41-.596.593-.916.06-.133.113-.266.174-.409.122-.204.262-.382.384-.586.052-.09.096-.17.14-.258.122-.169.296-.293.401-.471.218-.355.358-.729.584-1.075.288-.436.629-.836.899-1.28.358-.604.68-1.235 1.082-1.813.078-.142.157-.276.244-.418.052-.142.061-.284.14-.409.122-.15.244-.293.366-.444.21-.311.419-.622.628-.924.122-.142.244-.294.375-.436.053-.115.096-.23.149-.346.209-.338.418-.685.636-1.022.053-.116.096-.231.149-.347.209-.293.41-.587.619-.88.044-.106.087-.222.14-.338.314-.497.61-1.004.89-1.528.191-.356.374-.747.523-1.129.035-.133.07-.266.113-.409.052-.08.096-.168.14-.248l.104-.374c.044-.08.079-.16.123-.24.087-.266.165-.533.252-.79l.105-.747c.053-.125.096-.249.14-.373.07-.33.06-.89-.053-1.21-.157-.443-.671-.603-1.107-.603h-.018c-.06.026-.113.053-.174.08a1.583 1.583 0 00-.908.32c-.244.008-.357.124-.532.248-.314.214-.645.445-.916.73-.218.23-.436.497-.689.692-.113.063-.218.116-.331.178a7.445 7.445 0 00-.934.738c-.706.666-1.5 1.244-2.216 1.884-.165.195-.331.4-.497.595-.288.258-.576.525-.863.782-.131.16-.27.32-.402.48-.314.25-.628.489-.95.729-.201.231-.41.462-.611.693l-.646.604c-.27.223-.55.445-.802.694-.166.16-.253.355-.402.515-.261.267-.558.445-.846.649a5.053 5.053 0 00-1.212 1.235c-.088.134-.218.205-.28.347-.261.009-.601.427-.785.604-.34.302-.671.604-1.012.916-.47.453-.89.942-1.352 1.377-.384.356-.689.773-1.073 1.129-.244.222-.523.409-.794.595-.113.071-.226.134-.34.205L9.762 18.21c-.384.355-.83.675-1.204 1.04-.323.32-.646.63-.969.95l-.575.454c-.218.24-.445.48-.663.72l-.602.533-.463.604c-.209.258-.453.471-.68.703-.366.364-.61.808-.898 1.217-.227.311-.541.631-.646.995-.087.312-.044.631.174.854a.735.735 0 00.515.248c.375.018.515-.115.777-.284.104-.071.209-.107.296-.213.14-.178.122-.427.157-.649.044-.151.087-.293.14-.444.052-.187.06-.365.157-.525.401-.71 1.064-1.368 1.614-1.99.436-.498.82-1.014 1.282-1.485.27-.275.558-.577.829-.88.07-.097.14-.186.21-.284.287-.258.575-.515.871-.773.201-.249.402-.489.602-.738.393-.346.812-.63 1.196-.986l.436-.445c.2-.16.4-.31.602-.47.514-.48.985-1.04 1.491-1.53.175-.177.419-.32.602-.506l.393-.453c.314-.32.663-.631.96-.96.209-.23.366-.47.584-.684.296-.276.593-.542.89-.818.192-.178.436-.302.619-.489.314-.32.637-.64.95-.96.106-.088.201-.177.306-.266.166-.204.332-.4.497-.604.297-.258.602-.516.899-.774.907-.915 1.902-1.724 2.853-2.586.27-.249.55-.497.82-.746.174-.16.322-.356.497-.525l.515-.444c.331-.329.619-.71.977-1.004.2-.17.41-.285.619-.427.192-.15.384-.293.576-.444.253-.178.558-.32.785-.542.262-.258 1.675-1.067 1.875-.4.044.15.044.355.044.524 0 .231.044.498 0 .711-.035.151-.113.276-.157.409l-.105.427c-.113.284-.27.55-.384.844-.043.115-.078.23-.122.346-.113.258-.288.498-.384.756-.13.32-.226.693-.392.995-.175.32-.384.605-.593.916-.175.257-.27.577-.428.844-.122.195-.27.355-.392.55-.28.499-.559 1.005-.838 1.503-.174.275-.453.489-.628.773-.052.124-.096.249-.148.364a5.421 5.421 0 01-.192.285c-.113.213-.227.435-.349.64-.445.764-.96 1.466-1.404 2.222-.236.408-.402.853-.663 1.253-.157.248-.323.497-.48.746-.21.285-.454.524-.637.809-.157.24-.253.515-.41.755-.27.4-.61.765-.864 1.173-.052.107-.096.214-.148.311-.166.303-.332.596-.489.898-.148.204-.305.418-.462.622-.2.347-.401.684-.61 1.031-.184.276-.463.453-.637.738-.122.23-.245.47-.367.702-.174.284-.349.56-.532.844-.14.178-.27.356-.41.533-.227.365-.436.72-.654 1.085-.2.31-.401.63-.602.942-.14.266-.244.56-.384.817-.052.08-.105.17-.157.25-.105.221-.2.47-.366.666-.297.346-.663.622-1.021.862-.105.053-.2.115-.305.169-.602.426-1.187.862-1.797 1.27-.131.054-.253.116-.384.17-.14.088-.27.177-.41.266-.288.24-.585.48-.873.72-.104.07-.218.142-.331.213-.166.142-.297.32-.471.444-.541.4-1.117.81-1.623 1.271-.331.338-.663.685-.994 1.022-.262.24-.524.471-.794.711-.384.4-.69.854-1.038 1.262-.288.338-.585.667-.873 1.005-.14.168-.252.382-.4.56-.158.177-.315.364-.48.542-.14.204-.193.435-.332.63-.122.16-.244.312-.366.472l-.629 1.04c-.113.186-.253.328-.348.524l-.158.417c-.13.24-.253.48-.383.72-.044.17-.096.338-.14.516-.096.213-.244.39-.34.595-.07.142-.087.32-.122.471-.053.187-.114.365-.166.551-.035.222-.017.427-.087.64-.053.107-.105.213-.157.311-.035.187-.061.373-.096.56-.044.098-.087.205-.131.302a1.33 1.33 0 00-.061.365v.026c0 .267.113.516.357.676.27.178.882.16 1.16 0 .262-.16.515-.462.707-.702.367-.462.777-.871 1.143-1.334.061-.106.122-.213.175-.32.078-.097.148-.204.226-.31.079-.072.157-.152.236-.223.253-.293.523-.577.715-.906.053-.089.105-.178.157-.276l.61-.622c.14-.178.271-.39.437-.56.122-.133.244-.275.366-.408.131-.187.253-.418.41-.587.28-.32.55-.631.83-.942a5.97 5.97 0 01.191-.347c.262-.373.515-.746.803-1.11.357-.472.767-.854 1.108-1.325.226-.32.436-.684.671-.995l1.16-1.555c.219-.338.358-.703.611-1.023.14-.15.288-.302.428-.453.436-.569.759-1.208 1.142-1.795.14-.16.288-.32.428-.48.34-.435.637-.88 1.012-1.288.261-.285.445-.605.776-.81.358-.221.733-.461 1.117-.612.148-.045.296-.098.445-.143l.288-.16c.157-.053.314-.097.48-.15.33-.143.697-.303 1.055-.4.288-.063.576-.116.864-.178l.628-.24.759-.134.418-.16c.314-.062.76-.08 1.082-.044.34.035.672.187 1.02.035.795-.346 1.344-1.164 2.138-1.52.297-.133.62 0 .907 0 .253 0 .62-.124.829-.248.192-.116.349-.276.54-.4.245-.169.516-.302.76-.471.21-.142.532-.462.802-.453.428 0 .393.72.559.977.226.356.689.694 1.064.81.331.097.872.07 1.178-.072.113-.062.235-.124.349-.187.34-.142.671-.248.994-.409.28-.142.401-.275.776-.302.358-.026.594.294.873.463.34.195.863.16 1.247.07.873-.213 1.562-.924 2.172-1.6.14-.15.306-.266.454-.435.148-.168.192-.337.28-.533.06-.115.121-.222.182-.338.07-.177.14-.364.21-.55.052-.223-.026-.56.113-.747.175-.24.402-.32.637-.444.087-.045.175-.098.253-.152l.471-.133c.113-.062.218-.115.331-.178.149-.044.288-.097.428-.142.262-.106.462-.302.803-.275.697.07-.184 1.324-.253 1.564-.096.293-.28.542-.42.809-.086.177-.095.373-.156.56-.052.115-.105.23-.148.346-.053.231-.035.489-.027.747.01.275 0 .577.088.808.296.747 1.203 1.058 2.015.925.628-.107.872-.498 1.317-.916.384-.355.802-.737 1.082-1.182.174-.284.288-.604.401-.915.07-.187.174-.32.218-.524.044-.25.026-.516.035-.782 0-.258.078-.516.017-.791-.13-.525-.445-1.031-.776-1.44-.13-.16-.34-.285-.427-.471a.661.661 0 01-.01-.516c.14-.337.48-.613.734-.853.244-.24.436-.498.689-.737.165-.16.366-.285.523-.445.367-.382.724-.72 1.082-1.11.227-.258.445-.516.672-.774.253-.24.506-.471.75-.71.323-.33 1.518-1.6.506-1.76l.026.062zm-4.44 19.765h.331c.881 0 1.623-.382 1.623-1.377 0-.862-.445-1.368-1.867-1.368h-.663v4.727h.576v-1.981zm0-2.221h.157c.575 0 1.265.089 1.265.826 0 .756-.637.862-1.23.862h-.184V29.4h-.008zm9.508 3.013l.532 1.182h.62L55.28 28.67l-2.207 4.933h.62l.531-1.182h2.13l-.01-.01zm-.235-.542h-1.65l.82-1.91.829 1.91z"/><path d="M64.04 31.532c.671-.08 1.116-.649 1.116-1.324 0-.453-.218-.898-.61-1.129-.367-.213-.812-.222-1.222-.222h-.698v4.728h.576v-2h.236l1.37 2h.697l-1.465-2.053zm-.847-2.142h.157c.576 0 1.265.107 1.265.845 0 .755-.636.861-1.23.861h-.183v-1.715l-.009.01zm8.061 4.195h-.576v-4.728h.576v4.728zm7.668-3.831c-.175-.293-.393-.444-.742-.444-.366 0-.776.258-.776.675 0 .374.358.56.645.676l.332.133c.663.267 1.151.631 1.151 1.422 0 .862-.654 1.475-1.483 1.475-.75 0-1.334-.56-1.439-1.324l.585-.124c0 .515.4.897.898.897.497 0 .855-.426.855-.924 0-.507-.401-.729-.802-.898l-.323-.142c-.532-.23-1.012-.533-1.012-1.2 0-.764.663-1.226 1.36-1.226.515 0 .943.258 1.196.711l-.463.284.018.01z"/></g><defs><clipPath id="clip0_2257_231"><path fill="#fff" d="M0 0h136v48H0z"/></clipPath></defs></svg>