<svg width="144" height="25" fill="none" xmlns="http://www.w3.org/2000/svg"><path d="M44.378 21.235c-3.108.799-5.423.851-7.114.851-4.902 0-10.572-2.501-10.572-9.507 0-6.98 4.876-9.665 11.626-9.665 1.21 0 3.771.13 5.566.825v4.099c-1.535-.904-3.72-1.258-4.89-1.258-3.98 0-7.244 1.677-7.244 5.998 0 3.641 2.562 5.841 6.139 5.841.663 0 1.3-.105 1.742-.314v-3.667h-2.874v-3.51h7.621v10.307zM48.54 3.228h12.978v3.51h-8.063v3.824h7.621v3.51h-7.62v4.19h8.348v3.51H48.54V3.228zM70.4 13.914h1.509c1.69 0 3.615.184 3.615 2.2 0 1.886-1.872 2.148-3.667 2.148H70.4v-4.348zm-4.902 7.858h7.75c3.304 0 7.18-.93 7.18-5.37 0-2.252-1.275-3.588-3.72-4.085v-.053c2.055-.694 3.238-1.99 3.238-4.334 0-3.183-2.549-4.702-5.982-4.702h-8.466v18.544zM70.4 6.738h1.431c1.639 0 3.212.157 3.212 1.86 0 1.57-1.665 1.964-3.264 1.964H70.4V6.738zm13.577-3.51h12.979v3.51H88.88v3.824h7.62v3.51h-7.62v4.19h8.362v3.51H83.977V3.228zm21.861 3.51h1.301c1.859 0 3.576.314 3.576 2.043 0 2.095-2.003 2.147-3.576 2.147h-1.301v-4.19zm-4.903 15.034h4.903v-7.334h1.028c1.82 0 2.457.8 3.459 3.981l1.053 3.353h5.111l-1.795-5.055c-.91-2.252-1.027-3.654-2.601-4.086v-.052c2.367-.564 3.525-2.2 3.525-4.676 0-3.182-2.653-4.675-5.93-4.675h-8.753v18.544zm18.636-18.544h4.916v18.544h-4.916V3.228zm12.108 3.667h-4.539V3.228h13.98v3.667h-4.539v14.877h-4.902V6.895z" fill="#fff"/><path d="M2.88 3.228h18.428v18.557H2.88V3.228z" fill="#278DFF"/></svg>