<svg width="118" height="34" fill="none" xmlns="http://www.w3.org/2000/svg"><path d="M28.99 3.143c4.818 0 8.688 4.246 8.688 9.535 0 3.685-1.974 6.97-4.818 8.493-2.765-1.603-5.924-2.484-10.822-2.645-1.185-1.602-1.817-3.605-1.817-5.848 0-5.289 3.95-9.535 8.768-9.535zm4.028 22.354c3.712 2.404 7.899 4.727 10.98 4.727 2.132 0 3.396-.8 4.344-1.842a6.92 6.92 0 01-2.212-.08c-1.343-.321-5.45-1.363-9.637-4.728-.394-.32-.71-.56-1.105-.881 3.712-2.083 6.16-5.85 6.16-10.176C41.549 5.947 35.862.66 28.91.66c-6.95 0-12.638 5.288-12.638 11.858 0 2.164.632 4.087 1.659 5.85-1.264.08-2.686.16-4.187.24 11.533-.16 15.561 4.486 19.274 6.89z" fill="#fff"/><path d="M62.007 6.268c0 .24 0 .8-.316 1.762l-3.475 10.817-3.95-12.339c-.237-.881-.316-1.602-.237-2.243h-3.475c.71.48.869 1.121.869 1.682 0 .561-.158 1.122-.237 1.603L47.63 18.687l-3.95-12.9a3.761 3.761 0 01-.315-1.522h-3.713c.316.24 1.106.881 1.58 2.483l3.713 11.778c.473 1.443 1.184 2.564 3.317 3.846l4.266-13.3 2.922 9.535c.395 1.282.79 2.483 3.318 3.765l6.003-18.107h-4.029c.79.4 1.264 1.121 1.264 2.003zm6.635 13.22v-6.25h2.607c.869 0 1.422.16 1.896.641v-2.724c-.237.08-.553.08-.869.08h-3.554V6.348l3.396-.08c1.5 0 2.133.32 2.607.881V4.265H64.93c1.106.8 1.106 1.842 1.106 2.483v12.42c0 .64 0 1.682-1.106 2.483h10.822l1.264-3.525c-1.107.961-2.45 1.522-5.214 1.522-.474.08-1.659 0-3.16-.16zm12.955 0V6.748c0-.64.079-1.682 1.264-2.483h-4.977c1.106.8 1.106 1.762 1.106 2.483v12.42c0 .72 0 1.682-1.106 2.483h10.664l1.422-3.605c-1.58 1.282-3.95 1.602-5.53 1.602-.79.08-2.053-.08-2.843-.16z" fill="#fff"/><path d="M104.504 13.399l2.686-6.89 2.686 6.89h-5.372zm7.188 8.252h5.371c-1.184-.64-1.737-1.602-2.132-2.564l-6.004-14.822h-4.107c1.027.48.632 1.442.553 1.682 0 0-5.055 12.9-5.134 12.98-1.343.561-2.923.721-4.108.721-.79 0-2.053-.16-2.844-.24V6.748c0-.64.08-1.682 1.264-2.483h-4.976c1.106.8 1.106 1.762 1.106 2.483v12.42c0 .72 0 1.682-1.106 2.483h13.191c-1.184-.801-.948-1.843-.632-2.724l1.58-3.926h6.714l1.896 4.647c.316.641.553 1.523-.632 2.003zM9.005 6.508l2.686 6.89H6.319l2.686-6.89zM3.87 20.61c-.158-.561 0-1.122.236-1.683l1.58-3.926H12.4l1.501 3.686c.948-.08 1.817-.16 2.686-.16L10.743 4.264H6.635c1.027.48.711 1.442.553 1.682l-4.976 12.58C1.738 19.727 1.264 20.85 0 21.65c1.5-.08 2.449-.48 3.87-1.041z" fill="#fff"/></svg>