<svg width="200" height="31" fill="none" xmlns="http://www.w3.org/2000/svg"><g clip-path="url(#clip0_2260_325)" fill-rule="evenodd" clip-rule="evenodd"><path d="M.22.234v30.514h199.541L199.758.232.221.234z" fill="#fff"/><path d="M157.028 11.937c-1.615 0-2.984 1.038-3.435 2.39l6.886-.006c-.432-1.378-1.813-2.384-3.451-2.384zm-6.708 4.005c0 3.88 2.979 7.03 6.655 7.03 2.834 0 5.253-1.857 6.213-4.492l-3.294-.001a3.696 3.696 0 01-2.937 1.437c-1.745 0-3.203-1.156-3.572-2.744l10.203-.004c.063-.4.045-.806.045-1.226 0-3.884-2.981-7.031-6.658-7.031-3.676 0-6.655 3.147-6.655 7.03zm-16.592-.009c0-3.876-3.017-7.017-6.738-7.017-3.719 0-6.735 3.14-6.735 7.017 0 3.877 3.016 7.02 6.735 7.02 3.721 0 6.738-3.143 6.738-7.02zm-14.139-4.061l-.002-2.983c-1.539 0-2.834.615-3.4 1.468V9.195h-2.915v13.504h3.169l.013-8.431c.052-1.293 1.424-2.336 3.135-2.396zm-9.654-2.677h-2.817l.01 1.348c-.964-1.042-2.327-1.651-4.031-1.651-3.554 0-6.565 3.3-6.565 6.89 0 3.804 2.94 6.888 6.565 6.888 1.51 0 2.967-.86 4.056-2.076 0 0-.006.165-.006.252 0 2.31-1.85 4.184-4.127 4.184a4.093 4.093 0 01-3.1-1.421l-3.23.015c.85 2.461 3.406 4.248 6.423 4.248 3.441 0 6.807-3.249 6.812-6.047l.005-.133.005-12.497zm-15.38 9.119c0-2.14-1.546-3.32-3.71-3.71l-2.055-.436c-.88-.141-1.963-.407-1.963-1.324 0-.666.876-1.208 1.956-1.208 1.081 0 2.119.845 2.119 1.513l3.393.006c-.369-2.385-2.655-4.186-5.42-4.186-3.022 0-5.172 1.902-5.094 4.607.059 1.937 2.122 3.069 4.396 3.552l.748.148c1.603.22 2.493.558 2.537 1.35.055.968-.827 1.586-2.129 1.584-1.39-.002-2.504-.908-2.504-1.968l-3.24-.009c.042 2.659 2.742 4.8 5.754 4.8 3.036 0 5.211-2.03 5.211-4.719zm-13.058 4.383l-.02-8.966c-.058-2.68-2.315-4.834-5.09-4.834a5.16 5.16 0 00-3.691 1.536l.003-1.243-2.889.003-.005 13.504h3.106l.014-7.936c0-1.425 1.234-2.581 2.76-2.581 1.522 0 2.757 1.155 2.757 2.58l-.004 7.937h3.06zm-14.883 0L66.61 9.195l-3.024-.002-.006 1.422c-1.173-1.045-2.099-1.676-3.763-1.676-3.707 0-6.815 3.156-6.815 7.024 0 3.865 3.108 7.015 6.815 7.015 1.652 0 2.585-.574 3.752-1.605l-.003 1.316 3.05.008zM139.442.005h60.555L200 31H0V.007L38.913 0v22.803h3.098v-8.078c.139-1.36 1.194-2.557 2.67-2.557 1.473 0 2.67 1.144 2.67 2.557l-.012 8.078h3.01l.007-9.385c-.342-2.62-2.18-4.504-4.837-4.504-1.378 0-2.623.518-3.511 1.39V.008l94.34-.003v22.766h3.096V14.69c.138-1.36 1.198-2.556 2.67-2.556 1.475 0 2.67 1.144 2.67 2.556v8.08h3.004l.001-9.386c-.342-2.62-2.182-4.504-4.838-4.504-1.377 0-2.622.518-3.509 1.39V.005zm-12.475 12.04c-2.035 0-3.684 1.74-3.684 3.888 0 2.149 1.649 3.89 3.684 3.89 2.033 0 3.682-1.741 3.682-3.89 0-2.148-1.649-3.888-3.682-3.888zm-67.112.017c-2.056 0-3.721 1.736-3.721 3.878 0 2.144 1.665 3.878 3.72 3.878 2.054 0 3.718-1.735 3.718-3.878 0-2.142-1.664-3.878-3.718-3.878zm47.131 3.816c0 2.115-1.649 3.827-3.682 3.827-2.037 0-3.686-1.712-3.686-3.827 0-2.114 1.649-3.826 3.686-3.826 2.033 0 3.682 1.713 3.682 3.826z" fill="#00AB8E"/></g><defs><clipPath id="clip0_2260_325"><path fill="#fff" d="M0 0h200v31H0z"/></clipPath></defs></svg>