<svg width="78" height="36" fill="none" xmlns="http://www.w3.org/2000/svg"><path d="M42.309 32.604c-3.475-.207-5.457-.472-13.205-1.771-6.006-1.007-7.967-1.284-10.138-1.436l-.695-.048-1.615.024-1.615.024-.92.063c-3.598.244-7.17.767-11.486 1.68a45.66 45.66 0 01-1.298.264h-.053V25.64h.022c.013 0 .523-.128 1.135-.283 3.467-.882 6.268-1.352 9.37-1.575l.859-.061 1.472-.047 1.471-.047 2.494.022 2.494.021.634.046c3.15.226 5.023.501 11.446 1.678 4.193.769 6.427 1.091 8.933 1.29l.858.068 1.1.027 1.098.026 1.354-.027 1.354-.027 1.043-.066a121.91 121.91 0 003.934-.324l.93-.09-.03.03a958.02 958.02 0 01-4.915 3.18l-4.883 3.15-.472-.008c-.26-.004-.564-.013-.676-.02zm12.99-2.581l1.973-3.23 1.553-2.543h16.74v6.459H54.882l.419-.686zm-25.275-9.439c-1.729-.17-2.77-.429-3.884-.967l-.429-.208-.42-.28-.42-.282-.374-.354-.374-.355-.239-.3-.24-.3-.223-.38-.224-.381-.178-.444a7.184 7.184 0 01-.414-1.444l-.064-.346-.042-.6-.042-.6.043-.568c.023-.312.072-.742.108-.955l.066-.387.141-.47.141-.47.224-.467.223-.467.234-.35.234-.348.389-.406.388-.406.308-.234a6.84 6.84 0 011.288-.78l.411-.195.489-.162.489-.163.47-.104a12.625 12.625 0 011.921-.27l.593-.042h1.349l.593.042c.326.023.845.078 1.155.123l.562.082.547.138a7.9 7.9 0 011.763.64l.49.243.38.272.38.271.337.331c.388.38.622.678.92 1.169l.21.347.161.389c.21.503.355 1.008.46 1.594l.084.47.021.882.021.882-.048.426c-.027.235-.085.61-.13.835l-.082.41-.14.42-.14.42-.188.377a8.546 8.546 0 01-.418.724l-.228.348-.473.473-.473.472-.41.271-.408.271-.47.225-.47.224-.49.163-.49.162-.471.104c-.566.125-1.159.213-1.82.27l-.49.041-1.022-.006a32.102 32.102 0 01-1.165-.02zm2.47-2.543a4.28 4.28 0 00.55-.19l.227-.105.217-.167.217-.168.195-.291.195-.292.112-.34.112-.339.066-.395.065-.396.02-1.712.018-1.712-.046-.527-.047-.528-.098-.387-.098-.388-.135-.255-.134-.255-.246-.246-.246-.246-.206-.11-.205-.109-.362-.105-.362-.104-.488-.045-.488-.044-.487.046-.486.047-.298.083-.298.082-.265.13-.265.13-.25.245-.249.246-.15.306-.15.307-.077.309c-.043.17-.102.492-.132.715l-.053.407.002 1.717.002 1.717.07.51.069.512.133.388.132.389.156.235.156.235.19.167.19.167.327.157.328.156.306.064.41.082c.055.01.423.012.817.006l.715-.013.324-.086zm17.05 2.51a8.803 8.803 0 01-1.655-.398l-.47-.161-.449-.224-.449-.224-.389-.26-.39-.26-.322-.29a6.733 6.733 0 01-1.093-1.248l-.246-.365-.198-.411a7.362 7.362 0 01-.653-2.272l-.043-.347v-.739l-.001-.738.061-.436a7.09 7.09 0 01.315-1.378l.126-.389.196-.408.196-.41.247-.367a6.69 6.69 0 011.093-1.25l.323-.29.388-.258a6.507 6.507 0 011.37-.729 8.623 8.623 0 012.187-.562l.347-.047.995.004.994.003.56.043c1.746.135 3.335.453 4.28.858l.177.076-.513 1.199a31.61 31.61 0 01-.543 1.231l-.03.034-.422-.147a10.97 10.97 0 00-2.685-.554l-.535-.045-.416.045-.416.046-.309.08-.309.078-.3.144-.299.144-.265.214-.266.214-.207.26-.208.26-.184.378-.185.38-.118.466-.117.466-.05.427-.05.426.024.82.023.819.084.406c.193.94.51 1.595 1.01 2.088.407.4.894.663 1.507.812l.286.07.409.034.409.034.45-.035c.574-.045.947-.1 1.532-.225l.47-.1.565-.189.565-.188.032.036c.017.02.259.568.536 1.217l.504 1.181-.074.055c-.041.03-.297.127-.57.217-.976.322-1.834.494-3.193.642l-.572.062-1.329.016-1.328.016-.41-.057zm17.273.035c-1.125-.1-2.107-.26-2.971-.486l-.54-.142-.432-.162a10.69 10.69 0 01-.843-.368l-.412-.206-.313-.215-.313-.215-.3-.283-.299-.284-.218-.33-.219-.33-.101-.245a4.776 4.776 0 01-.174-.531l-.073-.286v-.511l-.001-.511.05-.266a3.825 3.825 0 01.675-1.58l.188-.25.26-.243.26-.242.296-.197a7.6 7.6 0 01.69-.393l.395-.195.418-.145c.875-.303 2.077-.538 3.364-.658l.675-.063 1.165-.04c.64-.022 1.334-.04 1.542-.04l.376-.001.038-.072.037-.071-.033-.595-.033-.595-.061-.264a3.33 3.33 0 00-.145-.458l-.083-.195-.195-.208-.195-.208-.199-.1c-.11-.056-.34-.14-.511-.189l-.313-.088h-1.227l-1.226.001-.573.073-.572.073-.531.136-.532.136-.613.252c-.337.139-.642.261-.678.272l-.064.02-.237-.646c-.131-.356-.3-.818-.375-1.027l-.138-.38.194-.083c.675-.291 2.128-.598 3.567-.753l.552-.059 1.134-.05 1.134-.049.91.049.91.049.47.063c.964.13 1.914.39 2.608.715l.347.163.352.233.352.234.308.308.308.308.196.296.196.297.137.316.137.317.083.327c.046.18.103.483.126.674l.042.346v8.646l-.46.143c-1.51.469-3.008.787-4.65.987l-.552.068-1.451.01c-.799.007-1.535.004-1.636-.005zm2.655-2.514l.473-.045.051-.042.052-.042-.011-2.335-.01-2.335-.634-.013-.634-.012-.584.045c-.654.051-1.097.122-1.558.247l-.31.085-.334.16-.333.16-.228.21-.23.209-.15.304-.15.304-.019.423-.018.424.069.31.068.309.128.257.127.257.29.287.289.287.306.148c.386.188.776.306 1.247.379l.368.057.632.004.631.003.472-.045zm-66.87 2.223l-1.318-.012V1.243l5.04-.03 5.038-.03 1.451.02 1.451.022.539.084c1.29.2 2.199.526 3.004 1.076l.354.242.322.336c.4.417.54.619.791 1.145l.2.416.1.389c.056.213.124.535.15.715l.05.327-.002.552v.552l-.068.409-.067.409-.144.429-.143.43-.146.265a5.72 5.72 0 01-.347.539l-.202.273-.345.327-.346.327-.337.223c-.407.27-.807.474-1.38.707l-.43.175.003.094.003.095 2.379 4.267a861.96 861.96 0 012.378 4.283c0 .008-1.503.013-3.342.011l-3.342-.003-.868-1.745c-.9-1.81-1.848-3.621-2.612-4.994l-.444-.797H7.355l-.071.029-.072.03v7.482l-1.645-.01c-.905-.005-2.239-.014-2.964-.02zm5.673-10.252a16.268 16.268 0 001.825-.227l.434-.084.414-.136c.535-.175.888-.337 1.257-.575l.297-.193.262-.25.263-.252.174-.245c.23-.323.395-.658.533-1.083l.113-.348-.002-.287v-.288l-.066-.254a2.14 2.14 0 00-.4-.816l-.16-.214-.29-.204-.29-.203-.314-.122-.316-.121-.426-.093-.426-.093-1.962-.002H7.233l-.01 3.02-.011 3.02.048.059.049.058.289-.022c.159-.012.464-.032.677-.045z" fill="#fff"/></svg>