<svg width="141" height="25" fill="none" xmlns="http://www.w3.org/2000/svg"><g clip-path="url(#clip0_2260_329)"><path d="M62.647.74H64v13.59c0 .564 0 1.093-.034 1.62-.035.529-.07 1.022-.174 1.514-.068.494-.242.987-.416 1.444a7.258 7.258 0 01-.831 1.374 6.797 6.797 0 01-2.635 1.901 8.447 8.447 0 01-3.19.634 8.459 8.459 0 01-3.19-.634c-1.04-.422-1.94-1.056-2.634-1.901a7.258 7.258 0 01-.832-1.374 5.29 5.29 0 01-.416-1.443c-.07-.493-.14-.986-.173-1.515-.036-.527-.036-1.055-.036-1.619V.74h1.352v14.684c0 .492.035.985.14 1.443.069.458.173.916.312 1.373.138.423.346.846.658 1.197.278.353.59.67.97.916a8.22 8.22 0 001.215.67c.426.177.866.318 1.317.422.45.07.901.14 1.317.14a5.8 5.8 0 001.317-.14 4.436 4.436 0 001.318-.423 8.256 8.256 0 001.214-.669 4.05 4.05 0 001.594-2.113c.145-.447.25-.907.312-1.373.069-.458.104-.95.14-1.443V.739h.033zm26.557 21.83h-1.352V2.043h-5.547V.74h12.48v1.303H89.24v20.529h-.035zM107.093.424c1.491 0 2.947.282 4.299.88a11.374 11.374 0 013.537 2.43 11.566 11.566 0 012.391 3.59 10.86 10.86 0 01.902 4.332c0 1.55-.312 2.993-.902 4.33a11.82 11.82 0 01-2.391 3.557 11.377 11.377 0 01-3.537 2.43c-1.352.598-2.773.88-4.299.88-1.525 0-2.947-.282-4.299-.88a11.368 11.368 0 01-3.536-2.43 11.835 11.835 0 01-2.392-3.556 10.624 10.624 0 01-.901-4.33c0-1.516.277-2.959.866-4.332a11.97 11.97 0 012.393-3.591 11.369 11.369 0 013.535-2.43c1.387-.564 2.843-.88 4.334-.88zm0 1.303c-1.352 0-2.6.28-3.779.809a10.14 10.14 0 00-3.12 2.148c-.901.88-1.595 1.937-2.115 3.134-.52 1.197-.762 2.465-.762 3.838 0 1.338.242 2.64.762 3.838.52 1.197 1.214 2.253 2.115 3.133.901.88 1.942 1.62 3.12 2.149a9.108 9.108 0 003.779.81c1.318 0 2.6-.282 3.779-.81a10.066 10.066 0 005.235-5.317 9.44 9.44 0 00.797-3.803 9.603 9.603 0 00-.797-3.838c-.52-1.197-1.213-2.253-2.115-3.134a9.91 9.91 0 00-3.12-2.148 9.109 9.109 0 00-3.779-.81zM141 23.275L122.938 3.803V22.57h-1.353V.424l18.063 19.33V.74H141v22.536zM0 22.571h1.907l6.934-7.5h7.835v-1.304h-6.622l9.223-9.964V22.57h1.35V.424L0 22.57zm84.246 0L75.267 0l-9.014 22.57h1.387l7.627-19.049 4.056 10.246h-5.547l-.52 1.303h6.587l3.016 7.5h1.387zm-43.96-1.973l-.313-.422a10.07 10.07 0 01-1.075.563 9.23 9.23 0 01-7.557 0 10.131 10.131 0 01-3.12-2.147c-.901-.88-1.595-1.937-2.115-3.134-.52-1.197-.763-2.465-.763-3.838 0-1.338.243-2.641.763-3.838s1.214-2.254 2.115-3.134c.901-.88 1.942-1.62 3.12-2.148a9.233 9.233 0 017.558 0 10.142 10.142 0 013.12 2.148c.893.907 1.61 1.97 2.115 3.134.53 1.21.802 2.517.798 3.838a9.45 9.45 0 01-.798 3.803 10.4 10.4 0 01-1.144 2.007c.173.21.346.422.485.669l.347.457a12.037 12.037 0 001.56-2.57c.601-1.366.908-2.84.902-4.33 0-1.516-.313-2.959-.902-4.332-.589-1.373-1.387-2.535-2.392-3.591a11.368 11.368 0 00-3.537-2.43c-1.351-.598-2.772-.88-4.297-.88-1.526 0-2.948.282-4.3.88a11.365 11.365 0 00-3.536 2.43c-1.006 1.02-1.837 2.218-2.392 3.59-.59 1.374-.867 2.818-.867 4.332 0 1.55.313 2.993.902 4.33a11.832 11.832 0 002.392 3.557 11.368 11.368 0 003.536 2.43c1.352.598 2.774.88 4.299.88 1.49 0 2.947-.282 4.3-.88.485-.211.935-.458 1.386-.705-.243-.246-.416-.457-.59-.668z" fill="#1D1D1B"/><path d="M49.092 23.979c-2.878 0-4.542-2.254-6.137-4.401-.173-.212-.346-.458-.52-.67-1.837-2.429-3.744-4.929-7.315-4.929h-.104v.95h.104c2.6 0 4.16 2.114 5.685 4.19.174.247.347.459.52.706C43.234 22.358 45.209 25 49.128 25h.103v-.95h-.138v-.071z" fill="#00ACD8"/></g><defs><clipPath id="clip0_2260_329"><path fill="#fff" d="M0 0h141v25H0z"/></clipPath></defs></svg>