<svg width="109" height="143" fill="none" xmlns="http://www.w3.org/2000/svg"><path d="M63.784 106.659l.05-.013m-12.88 27.641l37.755-10.116c5.564-1.491 8.346-2.237 10.178-3.9a10.335 10.335 0 003.168-5.547c.507-2.435-.245-5.244-1.75-10.862L77.847 20.049c-1.505-5.617-2.258-8.426-3.916-10.282a10.335 10.335 0 00-5.516-3.22c-2.418-.524-5.2.222-10.765 1.712L19.896 18.376c-5.564 1.49-8.346 2.236-10.178 3.899a10.336 10.336 0 00-3.168 5.547c-.508 2.436.245 5.244 1.75 10.862l22.458 83.813c1.505 5.618 2.258 8.427 3.916 10.282a10.338 10.338 0 005.516 3.22c2.418.524 5.2-.221 10.765-1.712zm15.314-28.293c.371 1.385-.44 2.806-1.812 3.173-1.372.368-2.785-.457-3.156-1.842-.37-1.385.44-2.806 1.812-3.173 1.372-.368 2.785.457 3.156 1.842z" stroke="#001152" stroke-opacity=".04" stroke-width="12" stroke-linecap="round" stroke-linejoin="round"/></svg>