<svg width="32" height="32" fill="none" xmlns="http://www.w3.org/2000/svg"><path d="M21.333 21.333s-2-2.666-5.333-2.666-5.333 2.666-5.333 2.666m12-9.013c-.527.647-1.247 1.013-2 1.013-.754 0-1.454-.366-2-1.013m-5.334 0c-.526.647-1.246 1.013-2 1.013-.753 0-1.453-.366-2-1.013m20 3.68c0 7.364-5.97 13.333-13.333 13.333-7.364 0-13.333-5.97-13.333-13.333C2.667 8.636 8.637 2.667 16 2.667c7.364 0 13.333 5.97 13.333 13.333z" stroke="#272727" stroke-width="2" stroke-linecap="round" stroke-linejoin="round"/></svg>