<svg width="20" height="20" viewBox="0 0 20 20" fill="none" xmlns="http://www.w3.org/2000/svg">
<g id="cube-outline">
<path id="Icon" d="M8.125 17.2917L9.35248 17.9736C9.58881 18.1049 9.70698 18.1705 9.83213 18.1963C9.94288 18.2191 10.0571 18.2191 10.1679 18.1963C10.293 18.1705 10.4112 18.1049 10.6475 17.9736L11.875 17.2917M4.375 15.2083L3.18581 14.5477C2.93621 14.409 2.8114 14.3397 2.72053 14.241C2.64013 14.1538 2.57929 14.0504 2.54207 13.9378C2.5 13.8104 2.5 13.6677 2.5 13.3821V12.0833M2.5 7.91666V6.61786C2.5 6.33233 2.5 6.18956 2.54207 6.06223C2.57929 5.94958 2.64013 5.84618 2.72053 5.75894C2.8114 5.66032 2.93621 5.59099 3.18581 5.45232L4.375 4.79166M8.125 2.70832L9.35248 2.02639C9.58881 1.89509 9.70698 1.82944 9.83213 1.80371C9.94288 1.78093 10.0571 1.78093 10.1679 1.80371C10.293 1.82944 10.4112 1.89509 10.6475 2.02639L11.875 2.70832M15.625 4.79166L16.8142 5.45232C17.0638 5.59099 17.1886 5.66032 17.2795 5.75893C17.3599 5.84618 17.4207 5.94958 17.4579 6.06222C17.5 6.18956 17.5 6.33232 17.5 6.61786V7.91666M17.5 12.0833V13.3821C17.5 13.6677 17.5 13.8104 17.4579 13.9378C17.4207 14.0504 17.3599 14.1538 17.2795 14.241C17.1886 14.3397 17.0638 14.409 16.8142 14.5477L15.625 15.2083M8.125 8.95832L10 9.99999M10 9.99999L11.875 8.95832M10 9.99999V12.0833M2.5 5.83332L4.375 6.87499M15.625 6.87499L17.5 5.83332M10 16.25V18.3333" stroke="#272727" stroke-width="1.75" stroke-linecap="round" stroke-linejoin="round"/>
</g>
</svg>
