<svg width="104" height="104" fill="none" xmlns="http://www.w3.org/2000/svg"><path d="M52 0l3.55 2.363L59.4.529l3.178 2.844 4.072-1.267 2.74 3.268 4.212-.675 2.247 3.624 4.264-.068 1.71 3.907 4.23.539 1.136 4.11 4.11 1.136.54 4.23 3.906 1.71-.068 4.264 3.624 2.247-.675 4.211 3.268 2.74-1.267 4.073 2.844 3.178-1.834 3.85L104 52l-2.363 3.55 1.834 3.85-2.844 3.178 1.267 4.072-3.268 2.74.675 4.212-3.624 2.247.068 4.264-3.907 1.71-.539 4.23-4.11 1.136-1.136 4.11-4.23.54-1.71 3.906-4.264-.068-2.247 3.624-4.211-.675-2.74 3.268-4.073-1.267-3.178 2.844-3.85-1.834L52 104l-3.55-2.363-3.85 1.834-3.178-2.844-4.072 1.267-2.74-3.268-4.212.675-2.247-3.624-4.264.068-1.71-3.907-4.23-.539-1.136-4.11-4.11-1.136-.54-4.23-3.906-1.71.068-4.264L4.7 73.602l.675-4.211-3.268-2.74 1.267-4.073L.53 59.4l1.834-3.85L0 52l2.363-3.55L.529 44.6l2.844-3.178-1.267-4.072 3.268-2.74-.675-4.212 3.624-2.247-.068-4.264 3.907-1.71.539-4.23 4.11-1.136 1.136-4.11 4.23-.54 1.71-3.906 4.264.068L30.398 4.7l4.211.675 2.74-3.268 4.073 1.267L44.6.53l3.85 1.834L52 0z" fill="#1547FF"/><circle cx="52" cy="52" r="48" fill="#FCFDFF" stroke="#1547FF" stroke-width="2"/><circle cx="52" cy="52" r="43" stroke="#1547FF" stroke-width="2"/><g clip-path="url(#clip0_2717_38382)"><path d="M61.382 61.489l-.144-.013m-18.294.013h-.21" stroke="#1547FF" stroke-width="2"/><path d="M64.989 58.039c-.115-.117-.121-.223-.019-.32a158.453 158.453 0 002.866-2.762c.781-.78 1.202-1.684 1.263-2.713.037-.644-.103-1.279-.422-1.906a5.824 5.824 0 00-1.207-1.603 169.11 169.11 0 01-.606-.57 1189.75 1189.75 0 00-11.717-11.654c-.687-.675-1.291-1.103-1.812-1.284a3.68 3.68 0 00-2.32-.063c-.57.17-1.216.609-1.937 1.32a1326.82 1326.82 0 00-12.076 12.004c-.884.89-1.442 1.62-1.675 2.194-.407.995-.377 1.97.087 2.925.219.45.854 1.204 1.907 2.263.7.704 1.38 1.427 2.04 2.169L36.05 61.26a.231.231 0 01-.158.064.219.219 0 01-.155-.061l-2.685-2.685a11.113 11.113 0 01-1.86-2.438 8.24 8.24 0 01-1-2.856c-.333-2.213.152-4.264 1.454-6.154.536-.775 1.212-1.562 2.028-2.362.609-.596.92-.9.932-.91 6.367-6.425 10.355-10.387 11.963-11.885.455-.421 1.127-.815 2.016-1.182a8.754 8.754 0 012.232-.61c2.965-.378 5.586.57 7.863 2.848l10.923 10.92c1.906 1.906 3.095 3.322 3.566 4.247.917 1.802 1.127 3.732.631 5.788-.277 1.152-.863 2.306-1.756 3.463a26.28 26.28 0 01-3.454 3.65.33.33 0 01-.447-.012l-3.153-3.047z" fill="#1547FF"/><path d="M64.766 57.973l-3.385 3.516-.144-.013c.004-.123-.068-.255-.215-.396-1.07-1.03-3.444-3.38-7.126-7.051-.365-.363-.668-.6-.91-.713a2.075 2.075 0 00-1.18-.181c-.411.058-.872.331-1.382.819a381.573 381.573 0 00-7.06 6.929c-.246.248-.387.45-.422.606h-.21a.34.34 0 00-.103-.3 170.884 170.884 0 01-3.125-3.138c.425-.635 1.001-1.262 1.728-1.878a.688.688 0 00.24-.519l.017-6.335a.16.16 0 01.044-.11.152.152 0 01.109-.046l4.534-.016a.221.221 0 01.165.07.24.24 0 01.067.17l-.022 1.398c0 .108.036.12.11.037 1.32-1.502 2.874-2.374 4.662-2.616 2.265-.306 4.262.379 5.991 2.054a243.93 243.93 0 017.617 7.713z" fill="#1547FF"/><path d="M51.688 57.968l-2.729.01a.115.115 0 00-.115.116l.01 2.966c0 .063.053.115.116.115l2.73-.01a.116.116 0 00.114-.116l-.01-2.965a.115.115 0 00-.116-.116zm3.585.01l-2.7-.01a.165.165 0 00-.163.167l-.01 2.88c0 .092.072.167.162.167l2.7.01c.09 0 .164-.075.164-.167l.01-2.879a.165.165 0 00-.163-.168zm-12.541 3.511h.21a962.1 962.1 0 005.25 5.285c1.09 1.085 1.975 1.746 2.657 1.981 1.479.513 2.917.102 4.313-1.231a200.152 200.152 0 006.075-6.048l.144.013 3.288 3.238a.23.23 0 01.066.164c0 .061-.026.12-.07.164-2.22 2.219-4.373 4.37-6.456 6.454-1.309 1.31-3.008 2.111-5.098 2.403-2.731.381-5.155-.476-7.272-2.572-2.092-2.075-4.17-4.145-6.235-6.21a.29.29 0 01-.003-.406l3.131-3.235z" fill="#1547FF"/><path d="M51.733 61.766l-2.754-.014a.12.12 0 00-.12.119l-.015 2.772c0 .066.053.12.12.12l2.753.014a.12.12 0 00.12-.119l.015-2.772a.12.12 0 00-.119-.12zm3.487.001l-2.623.014a.202.202 0 00-.201.203l.013 2.589c0 .111.092.201.203.2l2.624-.013a.202.202 0 00.201-.203l-.013-2.588a.202.202 0 00-.203-.202z" fill="#1547FF"/></g><path d="M45.269 79.553l-3.913 10.75-6.961-2.533.542-1.489 6.164 2.244-1.326.743 3.765-10.344 1.729.63zm-15.758-6.027l5.05 4.237-1.008 1.201-5.05-4.237 1.008-1.201zm.029-3.569l1.495 1.255-3.549 10.327-.465-.39 9.554-5.288 1.446 1.213L27.2 82.927l-1.544-1.296 3.884-11.674zm-.92-2.071l.92 1.593-9.908 5.72-2.288-3.963c-.394-.683-.616-1.356-.666-2.017-.058-.656.052-1.255.33-1.798.263-.546.69-.99 1.282-1.331.582-.336 1.18-.484 1.794-.445.609.03 1.187.233 1.735.606.54.379 1.006.91 1.4 1.593l1.448 2.508-1.357.784-1.448-2.508c-.326-.563-.72-.927-1.184-1.09-.479-.167-.962-.11-1.452.173s-.777.67-.862 1.163c-.1.489.013 1.015.338 1.578l1.368 2.37 8.55-4.936zm-7.142-11.827l1.446 6.431-1.53.344-1.445-6.432 1.53-.343zm2.187-2.82l.428 1.904-9.084 6.06-.133-.594 10.803 1.59.414 1.842-12.154-1.91-.442-1.966 10.168-6.927zm1.105-9.143l-11.266-1.987.32-1.812 11.266 1.987-.32 1.812zm-1.019 5.783l-.32 1.812-11.266-1.987.32-1.812L23.75 49.88zm-5.054-.73l-1.56-.274 1.075-6.098 1.56.275-1.075 6.098zm9.417-12.151l-.92 1.593-8.674-5.008.92-1.593 8.674 5.008zm-6.704-8.101l-4.576 7.925-1.372-.792 4.576-7.925 1.372.791zm8.89 4.513l-7.354-8.764 1.41-1.183 6.756 8.053-.906.76-1.414-12.536 1.52-1.275 7.354 8.763-1.41 1.183-6.767-8.065.882-.74 1.424 12.549-1.496 1.254z" fill="#1547FF"/><path d="M44.557 24.706l-3.376-9.277-2.57.936c-.622.226-1.052.558-1.29.997-.241.428-.265.908-.072 1.44.194.53.522.888.986 1.07.46.174 1.001.147 1.623-.08l2.721-.99.536 1.474-2.721.99c-.742.27-1.446.379-2.112.326-.66-.066-1.232-.283-1.718-.651-.486-.368-.844-.868-1.074-1.5-.233-.641-.28-1.254-.141-1.838.136-.594.437-1.124.903-1.589.473-.478 1.08-.853 1.822-1.123l4.3-1.565 3.912 10.75-1.729.63zm-7.051 2.566l1.801-6.325 1.925-.7-1.666 6.276-2.06.75zm20.526-3.411l-1.73-.63 3.913-10.75 1.73.63-3.913 10.75zm7.743 2.818l-2.42-.88-3.669-7.653.226.082L66.86 14.9l2.195.8-7.372 3.412.154-.421 3.937 7.988zm8.73 3.795l-5.05-4.237 1.008-1.201 5.05 4.237-1.008 1.201zm-.029 3.569l-1.495-1.255 3.548-10.327.466.39-9.554 5.288-1.447-1.213 10.823-5.853 1.544 1.296-3.885 11.674zm5.166 1.176c-.63-1.09-.852-2.095-.669-3.014.193-.924.78-1.669 1.758-2.234l3.243-1.872.92 1.593-3.062 1.768c-.62.357-.986.81-1.102 1.356-.1.551.046 1.169.441 1.852.272.471.605.889 1 1.252a4.74 4.74 0 001.202.802l-.725 1.047a4.363 4.363 0 01-1.675-.917 6.257 6.257 0 01-1.331-1.633zm-2.08 4.655l9.908-5.72.92 1.593-9.907 5.72-.92-1.593zm2.978 11.573l-1.368-7.753 11.266-1.986 1.367 7.752-1.544.272-1.047-5.94-8.178 1.442 1.047 5.94-1.544.273zm4.894-1.172l-1.022-5.799 1.544-.272 1.022 5.798-1.544.273zm-3.315 11.39l-1.427.999c-.564-.609-.97-1.346-1.218-2.213-.24-.855-.275-1.76-.106-2.716.15-.85.435-1.608.855-2.27a5.76 5.76 0 011.554-1.627 5.846 5.846 0 012.073-.885 6.487 6.487 0 012.423-.012c.85.15 1.607.435 2.27.855a5.678 5.678 0 011.658 1.56 5.91 5.91 0 01.899 2.092c.168.766.178 1.57.03 2.41-.169.956-.516 1.788-1.042 2.497a5.288 5.288 0 01-1.88 1.634l-1-1.427a4.042 4.042 0 001.505-1.164c.414-.502.684-1.11.81-1.824.133-.756.063-1.467-.21-2.132a3.996 3.996 0 00-1.262-1.685c-.58-.46-1.285-.763-2.114-.91-.82-.144-1.58-.099-2.282.135a4.119 4.119 0 00-1.779 1.148c-.473.534-.776 1.18-.91 1.936-.125.714-.08 1.377.137 1.99a4.26 4.26 0 001.016 1.609zm-6.217 5.337l.92-1.593 8.674 5.008-.92 1.593-8.674-5.008zm6.704 8.102l4.576-7.926 1.371.792-4.576 7.925-1.371-.791zm-9.371-4.109l7.353 8.763-3.517 2.952c-.572.48-1.153.8-1.743.96-.59.176-1.144.188-1.66.037-.526-.145-.98-.445-1.364-.903a2.539 2.539 0 01-.612-1.45c-.045-.52.07-1.054.345-1.606.274-.536.697-1.044 1.27-1.524l1.985-1.666.514.613-2.157 1.81c-.613.514-1.23.865-1.852 1.053-.623.188-1.211.208-1.766.061-.548-.139-1.025-.45-1.43-.931-.417-.499-.66-1.046-.73-1.643-.062-.588.047-1.18.326-1.777.286-.588.736-1.14 1.349-1.654l3.689-3.095zm-.412 2.371l-2.28 1.913c-.507.425-.803.876-.89 1.353-.08.485.06.944.424 1.377.357.425.777.636 1.262.633.485-.003.98-.217 1.487-.642l2.403-2.016.987 1.177-2.17 1.82c-.457.384-.724.796-.8 1.236-.078.456.048.88.377 1.271.322.384.707.57 1.155.556.447 0 .899-.19 1.356-.575l2.047-1.717-5.358-6.386zM59.4 82.243l6.194-2.255.536 1.474-6.194 2.254-.537-1.473zm-3.077-1.81l1.834-.667 7.17 8.237-.571.208.197-10.918 1.774-.646-.342 12.299-1.894.69-8.168-9.202z" fill="#1547FF"/><defs><clipPath id="clip0_2717_38382"><path fill="#fff" transform="translate(30 30)" d="M0 0h44v44H0z"/></clipPath></defs></svg>