<svg width="338" height="40" viewBox="0 0 338 40" fill="none" xmlns="http://www.w3.org/2000/svg">
<path d="M11.0175 38.8859L0.757812 0.984802H7.55141L15.4542 30.0862L23.9115 0.984802H30.2198L38.6772 30.2248L46.5799 0.984802H53.3042L43.0445 38.8859H35.2111L26.9617 10.616L18.7816 38.8859H11.0175Z" fill="#BE11A5"/>
<path d="M58.0156 0.984802H64.4626V38.8859H58.0156V0.984802Z" fill="#BE11A5"/>
<path d="M78.1208 32.927H93.7184V38.8859H71.8125V1.05408H78.1208V32.927Z" fill="#BE11A5"/>
<path d="M113.542 1.05403C118.464 0.915448 123.247 2.92484 126.644 6.52787C133.645 14.0804 133.645 25.8595 126.644 33.412C123.247 37.015 118.464 39.0244 113.542 38.8858H98.4297V1.05403H113.542ZM113.542 32.927C117.147 32.927 120.128 31.6798 122.346 29.2547C124.703 26.7603 125.951 23.3651 125.812 19.9699C125.951 16.5055 124.703 13.1796 122.346 10.6852C120.058 8.26009 116.869 6.87431 113.542 7.01289H104.738V32.927H113.542Z" fill="#BE11A5"/>
<path d="M165.742 28.0768C165.811 30.987 164.563 33.8278 162.414 35.7679C160.196 37.8466 157.284 38.9552 154.234 38.8859H137.805V1.05409H153.056C155.967 0.984802 158.809 2.09343 161.028 4.03352C163.177 5.90433 164.355 8.67589 164.286 11.5167C164.424 14.5655 162.899 17.4756 160.404 19.2078C163.731 20.8708 165.811 24.3352 165.742 28.0768ZM144.113 6.87438V16.852H153.056C155.829 16.852 158.047 14.6347 158.047 11.8632C158.047 9.09162 155.829 6.87438 153.056 6.87438H144.113ZM154.234 32.9963C157.146 32.8578 159.433 30.4326 159.295 27.5225C159.225 24.7509 156.938 22.5337 154.234 22.4644H144.113V33.0656L154.234 32.9963Z" fill="#BE11A5"/>
<path d="M178.082 32.927H195.066V38.8859H171.773V1.05408H194.788V7.01294H178.082V16.852H193.471V22.7415H178.082V32.927Z" fill="#BE11A5"/>
<path d="M222.589 38.8859L214.409 25.0974H206.992V38.8859H200.684V0.984782H216.073C219.331 0.915492 222.52 2.23198 224.808 4.58781C227.165 6.80506 228.482 9.92306 228.413 13.1796C228.343 18.0299 225.362 22.3951 220.787 24.1273L229.522 38.8859H222.589ZM206.992 6.87435V19.5542H216.004C219.47 19.4157 222.174 16.4362 222.035 12.9025C221.896 9.64591 219.262 7.01293 216.004 6.87435H206.992Z" fill="#BE11A5"/>
<path d="M256.212 38.8859L248.101 25.0974H240.683V38.8859H234.375V0.984782H249.765C253.023 0.915492 256.212 2.23198 258.499 4.58781C260.856 6.80506 262.173 9.92306 262.104 13.1796C262.035 18.0299 259.054 22.3951 254.479 24.1273L263.213 38.8859H256.212ZM240.683 6.87435V19.5542H249.695C253.231 19.3464 255.865 16.3669 255.657 12.8332C255.449 9.6459 252.884 7.01293 249.695 6.87435H240.683Z" fill="#BE11A5"/>
<path d="M267.785 0.984802H274.093V38.8859H267.785V0.984802Z" fill="#BE11A5"/>
<path d="M287.824 32.927H304.808V38.8859H281.516V1.05408H304.531V7.01294H287.824V16.852H303.214V22.7415H287.824V32.927Z" fill="#BE11A5"/>
<path d="M309.242 30.294L314.719 27.176C316.244 31.4719 319.433 33.5506 324.216 33.5506C328.999 33.5506 331.356 31.5412 331.356 28.5618C331.425 27.176 330.663 25.7902 329.415 25.0973C328.167 24.2659 325.88 23.3651 322.621 22.3951C318.947 21.2864 317.145 20.5935 314.58 18.9306C312.015 17.2677 310.837 14.704 310.837 11.3088C310.698 8.26009 312.084 5.28067 314.441 3.34057C316.868 1.33119 319.987 0.291853 323.176 0.361142C328.93 0.153275 334.198 3.47915 336.555 8.67583L331.287 11.6553C329.692 8.1908 326.989 6.3893 323.245 6.3893C319.502 6.3893 317.214 8.1908 317.214 11.1009C317.214 14.0111 319.086 15.189 324.978 16.9905C326.434 17.4755 327.474 17.822 328.167 18.0991C328.86 18.3763 329.831 18.7227 331.009 19.2078C331.98 19.5542 332.95 20.1085 333.782 20.7321C335.793 22.3258 338.011 24.8895 337.734 28.4925C337.872 31.6798 336.486 34.6592 333.99 36.6686C331.495 38.678 328.237 39.648 324.147 39.648C316.59 39.5787 311.183 36.045 309.242 30.294Z" fill="#BE11A5"/>
</svg>
