<svg width="52" height="52" fill="none" xmlns="http://www.w3.org/2000/svg"><g clip-path="url(#clip0_209_11315)"><path d="M37.09 37.214l-.17-.015m-21.623.015h-.247" stroke="#1547FF" stroke-width="2"/><path d="M41.352 33.136c-.136-.137-.143-.263-.022-.376 1.371-1.295 2.5-2.384 3.387-3.265.923-.921 1.42-1.99 1.492-3.206.044-.761-.122-1.512-.499-2.253a6.884 6.884 0 00-1.426-1.895l-.716-.672c-4.585-4.625-9.2-9.216-13.847-13.774-.813-.797-1.527-1.303-2.143-1.518a4.35 4.35 0 00-2.74-.074c-.675.2-1.438.72-2.29 1.56A1582.552 1582.552 0 008.276 21.848c-1.044 1.051-1.704 1.916-1.98 2.593-.48 1.177-.445 2.33.104 3.457.258.532 1.01 1.423 2.253 2.674a64.05 64.05 0 012.412 2.563L7.15 36.944a.274.274 0 01-.186.077.259.259 0 01-.184-.073l-3.173-3.172a13.138 13.138 0 01-2.197-2.882A9.74 9.74 0 01.228 27.52c-.394-2.615.178-5.04 1.717-7.273.633-.916 1.432-1.847 2.397-2.792.72-.704 1.086-1.063 1.101-1.075C12.968 8.785 17.681 4.103 19.582 2.332c.537-.497 1.33-.962 2.382-1.396.894-.37 1.773-.61 2.638-.72 3.503-.448 6.601.673 9.293 3.365 4.304 4.302 8.607 8.603 12.908 12.905 2.254 2.253 3.658 3.926 4.215 5.02 1.083 2.13 1.332 4.41.746 6.84-.328 1.362-1.02 2.726-2.076 4.092a31.057 31.057 0 01-4.081 4.314.39.39 0 01-.529-.014l-3.726-3.602z" fill="#1547FF"/><path d="M41.09 33.059l-4 4.155-.17-.015c.004-.145-.08-.301-.255-.469-1.264-1.216-4.07-3.994-8.422-8.332-.43-.429-.789-.71-1.074-.843a2.46 2.46 0 00-1.397-.214c-.485.07-1.029.392-1.632.968a450.896 450.896 0 00-8.344 8.189c-.29.293-.457.532-.498.716h-.248a.402.402 0 00-.122-.354 202.076 202.076 0 01-3.693-3.709c.502-.75 1.183-1.49 2.042-2.22a.811.811 0 00.285-.613l.018-7.487c0-.049.02-.096.053-.13a.18.18 0 01.128-.054l5.36-.019a.26.26 0 01.194.082.281.281 0 01.079.203l-.026 1.65c0 .129.043.144.13.045 1.56-1.775 3.397-2.806 5.51-3.091 2.676-.362 5.037.447 7.08 2.426a288.377 288.377 0 019.002 9.116z" fill="#1547FF"/><path d="M25.633 33.054l-3.225.01a.136.136 0 00-.136.138l.012 3.505c0 .075.062.136.137.136l3.225-.012a.136.136 0 00.136-.136l-.012-3.505a.137.137 0 00-.137-.136zm4.235.011l-3.19-.011a.195.195 0 00-.194.197l-.012 3.402c0 .11.085.198.192.199l3.191.01a.195.195 0 00.194-.196l.012-3.403a.195.195 0 00-.193-.198zM15.05 37.214h.247c2.061 2.09 4.13 4.173 6.206 6.246 1.288 1.283 2.334 2.063 3.14 2.342 1.747.605 3.447.12 5.096-1.456a236.743 236.743 0 007.18-7.147l.17.015 3.886 3.827a.27.27 0 01.078.193.28.28 0 01-.082.194c-2.625 2.623-5.168 5.165-7.63 7.628-1.547 1.549-3.555 2.495-6.025 2.84-3.228.45-6.093-.563-8.595-3.04a2599.867 2599.867 0 01-7.368-7.339.344.344 0 01-.004-.48l3.701-3.823z" fill="#1547FF"/><path d="M25.683 37.541l-3.254-.017a.141.141 0 00-.142.141l-.018 3.276c0 .078.063.142.141.142l3.255.017a.142.142 0 00.142-.14l.017-3.276a.141.141 0 00-.14-.142zm4.123.002l-3.1.017a.24.24 0 00-.238.24l.016 3.059a.24.24 0 00.24.237l3.101-.016a.239.239 0 00.238-.24l-.016-3.059a.239.239 0 00-.24-.238z" fill="#1547FF"/></g><defs><clipPath id="clip0_209_11315"><path fill="#fff" d="M0 0h52v52H0z"/></clipPath></defs></svg>