<svg width="68" height="20" viewBox="0 0 68 20" fill="none" xmlns="http://www.w3.org/2000/svg">
<rect width="68" height="20" rx="4" fill="black"/>
<g clip-path="url(#clip0_289_31140)">
<path d="M15.9392 6H14.6044V12.7689H15.9392V6Z" fill="white"/>
<path d="M13.0711 6.37876H11.7363V13.1475H13.0711V6.37876Z" fill="white"/>
<path d="M10.203 6.80162H8.86814V13.5716H10.203V6.80162Z" fill="white"/>
<path d="M7.33482 7.22917H6L6.00001 14H7.33482L7.33482 7.22917Z" fill="white"/>
<path d="M51.1935 9.60631L49.0442 7.21671H47.7878V12.7495H49.0996V9.21946L51.0618 11.3109H51.3043L53.2327 9.21946V12.7495H54.5446V7.21671H53.2881L51.1935 9.60631Z" fill="white"/>
<path d="M60.7945 7.21671L57.543 10.8128V7.21671H56.2311V12.7495H57.433L60.6846 9.15338V12.7495H61.9964V7.21671H60.7945Z" fill="white"/>
<path d="M40.7217 9.24122C40.7217 10.1221 41.2034 10.816 41.9428 11.107L40.5563 12.7495H42.162L43.4233 11.2553H44.7882V12.7495H46.1V7.21671H42.7602C41.5149 7.21671 40.7217 8.06858 40.7217 9.24122ZM44.789 8.43528V10.0713H43.0034C42.4077 10.0713 42.0882 9.73929 42.0882 9.25251C42.0882 8.76572 42.4189 8.43367 43.0034 8.43367L44.789 8.43528Z" fill="white"/>
<path d="M34.6255 8.32326C34.5453 10.2261 34.1438 11.4543 33.3578 11.4543H33.1611V12.7825L33.3707 12.7938C34.9467 12.8817 35.8178 11.4987 35.9607 8.478H38.0337V12.7495H39.3431V7.21671H34.6697L34.6255 8.32326Z" fill="white"/>
<path d="M29.6872 7.1394C27.9129 7.1394 26.6364 8.36765 26.6364 9.98276C26.6364 11.6535 28.0253 12.8382 29.6872 12.8382C31.4182 12.8382 32.763 11.5874 32.763 9.98276C32.763 8.37813 31.4182 7.1394 29.6872 7.1394ZM29.6872 11.51C28.6845 11.51 28.0012 10.8572 28.0012 9.98276C28.0012 9.08655 28.6853 8.45147 29.6872 8.45147C30.6892 8.45147 31.3957 9.11557 31.3957 9.98276C31.3957 10.8499 30.6796 11.51 29.6872 11.51Z" fill="white"/>
<path d="M25.2451 7.22714H20.615L20.5709 8.3337C20.505 9.92784 20.0891 11.4438 19.3031 11.4656L18.9395 11.4769V14L20.2626 13.9974V12.7502H24.8589V13.9974H26.1932V11.4656H25.2451V7.22714ZM23.9332 11.4656H21.1337C21.6073 10.7467 21.861 9.70621 21.9052 8.48924H23.9332V11.4656Z" fill="white"/>
</g>
<defs>
<clipPath id="clip0_289_31140">
<rect width="56" height="8" fill="white" transform="translate(6 6)"/>
</clipPath>
</defs>
</svg>
