<svg width="89" height="53" viewBox="0 0 89 53" fill="none" xmlns="http://www.w3.org/2000/svg">
<path d="M17 39.9029L24.78 47.6625C27.9049 50.7792 32.9714 50.7792 36.0963 47.6625L51.6563 32.1433C54.7812 29.0266 54.7812 23.9734 51.6563 20.8567L36.0963 5.33754C32.9714 2.22082 27.9049 2.22082 24.78 5.33754L17 13.0971" stroke="#1547FF" stroke-width="6"/>
<path d="M9.15713 33V21.56H11.9091V33H9.15713ZM4.48513 33H1.73313V21.56H4.48513V33ZM4.32513 28.312V26.008H9.31713V28.312H4.32513ZM20.1635 33.256C19.2568 33.256 18.4248 33.1067 17.6675 32.808C16.9102 32.5093 16.2488 32.0933 15.6835 31.56C15.1288 31.0267 14.6968 30.3973 14.3875 29.672C14.0888 28.936 13.9395 28.136 13.9395 27.272C13.9395 26.408 14.0888 25.6133 14.3875 24.888C14.6968 24.1627 15.1288 23.5333 15.6835 23C16.2488 22.4667 16.9102 22.0507 17.6675 21.752C18.4248 21.4533 19.2568 21.304 20.1635 21.304C21.0702 21.304 21.9022 21.4533 22.6595 21.752C23.4168 22.0507 24.0728 22.4667 24.6275 23C25.1928 23.5333 25.6248 24.1627 25.9235 24.888C26.2328 25.6133 26.3875 26.408 26.3875 27.272C26.3875 28.136 26.2328 28.936 25.9235 29.672C25.6248 30.3973 25.1928 31.0267 24.6275 31.56C24.0728 32.0933 23.4168 32.5093 22.6595 32.808C21.9022 33.1067 21.0702 33.256 20.1635 33.256ZM20.1635 30.84C20.8248 30.84 21.4008 30.6907 21.8915 30.392C22.3928 30.0827 22.7822 29.6613 23.0595 29.128C23.3475 28.584 23.4915 27.9653 23.4915 27.272C23.4915 26.5787 23.3475 25.9653 23.0595 25.432C22.7822 24.8987 22.3928 24.4827 21.8915 24.184C21.4008 23.8747 20.8248 23.72 20.1635 23.72C19.5128 23.72 18.9368 23.8747 18.4355 24.184C17.9342 24.4827 17.5395 24.8987 17.2515 25.432C16.9742 25.9653 16.8355 26.5787 16.8355 27.272C16.8355 27.9653 16.9742 28.584 17.2515 29.128C17.5395 29.6613 17.9342 30.0827 18.4355 30.392C18.9368 30.6907 19.5128 30.84 20.1635 30.84ZM28.4206 33V21.56H33.4766C34.2446 21.56 34.9166 21.6827 35.4926 21.928C36.0686 22.1733 36.5166 22.52 36.8366 22.968C37.1566 23.4053 37.3166 23.9227 37.3166 24.52C37.3166 25.0853 37.1566 25.5867 36.8366 26.024C36.5166 26.4613 36.0686 26.8027 35.4926 27.048C34.9166 27.2933 34.2446 27.416 33.4766 27.416H31.3326V26.568H33.4766C34.3406 26.568 35.0926 26.696 35.7326 26.952C36.3833 27.1973 36.89 27.5493 37.2526 28.008C37.6153 28.4667 37.7966 29.0107 37.7966 29.64C37.7966 30.312 37.6153 30.904 37.2526 31.416C36.89 31.9173 36.3833 32.3067 35.7326 32.584C35.0926 32.8613 34.3406 33 33.4766 33H28.4206ZM31.1726 30.744H33.4926C33.962 30.744 34.33 30.632 34.5966 30.408C34.874 30.1733 35.0126 29.8533 35.0126 29.448C35.0126 29.0747 34.874 28.7813 34.5966 28.568C34.33 28.3547 33.962 28.248 33.4926 28.248H31.0126V26.056H33.2846C33.6793 26.056 33.9833 25.9547 34.1966 25.752C34.4206 25.5387 34.5326 25.2507 34.5326 24.888C34.5326 24.5467 34.4206 24.2853 34.1966 24.104C33.9833 23.912 33.6793 23.816 33.2846 23.816H31.1726V30.744ZM39.5925 33V21.56H42.3445V31.864H40.4565L47.0165 21.56H49.8965V33H47.1445V22.552H49.0645L42.4725 33H39.5925ZM59.8759 33V21.56H62.6279V33H59.8759ZM55.2039 33H52.4519V21.56H55.2039V33ZM55.0439 28.312V26.008H60.0359V28.312H55.0439ZM67.9383 33H65.1863V21.56H67.9383V33ZM76.3703 33H72.7863L67.5383 27.064H67.7943L72.3703 21.56H75.6983L70.7703 27.304V26.824L76.3703 33ZM86.1708 30.92H79.0348V28.632H86.1708V30.92ZM88.6028 33H85.6428L82.2188 23.576H82.9228L79.4828 33H76.6188L81.0828 21.56H84.1388L88.6028 33Z" fill="#1547FF"/>
</svg>
