<svg width="200" height="71" fill="none" xmlns="http://www.w3.org/2000/svg"><rect y=".472" width="200" height="70" rx="14" fill="#1547FF"/><path d="M110.982 46.566l-.17-.015.17.015z" fill="#fff"/><path d="M110.982 46.566l-.17-.015" stroke="#1547FF" stroke-width="2"/><path d="M89.189 46.566h-.248.248z" fill="#fff"/><path d="M89.189 46.566h-.248" stroke="#1547FF" stroke-width="2"/><path d="M115.244 42.488c-.135-.138-.142-.263-.022-.377a184.71 184.71 0 003.387-3.265c.924-.92 1.421-1.99 1.492-3.206.045-.76-.122-1.511-.498-2.253a6.895 6.895 0 00-1.426-1.894l-.717-.673c-4.584-4.624-9.2-9.215-13.847-13.773-.812-.798-1.526-1.304-2.142-1.518a4.349 4.349 0 00-2.74-.074c-.675.2-1.438.72-2.29 1.559A1582.818 1582.818 0 0082.168 31.2c-1.044 1.051-1.704 1.916-1.98 2.593-.48 1.177-.446 2.33.103 3.457.259.532 1.01 1.423 2.253 2.674a64.022 64.022 0 012.412 2.563l-3.915 3.808a.274.274 0 01-.186.077.259.259 0 01-.183-.073L77.5 43.127a13.14 13.14 0 01-2.198-2.88 9.737 9.737 0 01-1.181-3.377c-.394-2.615.178-5.039 1.717-7.272.633-.916 1.432-1.847 2.397-2.793.72-.704 1.086-1.062 1.1-1.074 7.526-7.594 12.239-12.276 14.14-14.047.536-.497 1.33-.963 2.382-1.396.894-.37 1.773-.61 2.637-.72 3.504-.448 6.602.673 9.293 3.365 4.304 4.301 8.607 8.603 12.909 12.905 2.253 2.253 3.658 3.926 4.214 5.02 1.084 2.13 1.332 4.41.746 6.84-.327 1.361-1.019 2.726-2.075 4.092a31.092 31.092 0 01-4.082 4.314.388.388 0 01-.266.095.398.398 0 01-.262-.11l-3.727-3.6z" fill="#fff"/><path d="M114.984 42.41l-4 4.156-.17-.015c.005-.145-.08-.302-.255-.469-1.263-1.216-4.07-3.994-8.421-8.333-.431-.428-.79-.709-1.075-.842a2.453 2.453 0 00-1.396-.214c-.485.069-1.03.392-1.633.968a451.517 451.517 0 00-8.344 8.188c-.29.293-.456.532-.498.717h-.248a.401.401 0 00-.122-.355 201.435 201.435 0 01-3.693-3.708c.502-.751 1.183-1.491 2.042-2.22a.813.813 0 00.285-.613l.018-7.487c0-.049.02-.096.053-.13a.18.18 0 01.128-.054l5.36-.019a.261.261 0 01.194.082.283.283 0 01.079.203l-.026 1.65c0 .129.043.143.13.045 1.56-1.776 3.397-2.806 5.51-3.092 2.677-.362 5.037.447 7.081 2.427a288.7 288.7 0 019.001 9.116z" fill="#fff"/><path d="M99.526 42.405l-3.225.012a.137.137 0 00-.136.136l.012 3.506c0 .075.061.136.137.136l3.225-.012a.136.136 0 00.136-.137l-.012-3.505a.136.136 0 00-.137-.136zm4.233.012l-3.191-.011a.196.196 0 00-.194.197l-.012 3.402c0 .11.086.198.193.198l3.191.012a.195.195 0 00.193-.198l.012-3.402a.195.195 0 00-.192-.198zm-14.817 4.149h.247c2.06 2.09 4.13 4.172 6.205 6.246 1.288 1.283 2.334 2.063 3.14 2.341 1.748.606 3.447.121 5.097-1.455a237.08 237.08 0 007.18-7.147l.17.015 3.885 3.826a.278.278 0 01-.003.388l-7.631 7.627c-1.547 1.55-3.555 2.496-6.024 2.84-3.228.451-6.093-.562-8.595-3.039a2613.219 2613.219 0 01-7.369-7.34.344.344 0 01-.004-.48l3.702-3.822z" fill="#fff"/><path d="M99.576 46.893l-3.255-.017a.142.142 0 00-.142.141l-.017 3.276a.14.14 0 00.14.142l3.255.017a.142.142 0 00.143-.14l.017-3.276a.141.141 0 00-.141-.143zm4.123.002l-3.101.016a.238.238 0 00-.237.24l.016 3.06c0 .131.108.238.24.237l3.101-.016a.24.24 0 00.238-.24l-.016-3.06a.24.24 0 00-.241-.237z" fill="#fff"/></svg>