<svg width="201" height="153" fill="none" xmlns="http://www.w3.org/2000/svg"><path d="M198.958 1.051c.214 0 .388.173.388.388v46.57c0 .142-.082.275-.235.356L1.65 151.341a.424.424 0 01-.184.051.387.387 0 01-.316-.184c-.113-.163-.051-.306-.02-.377L55.33 1.296a.4.4 0 01.357-.245h143.27zm0-1.051H55.688c-.592 0-1.132.357-1.347.908L.13 150.463c-.398 1.01.388 1.99 1.337 1.99.214 0 .439-.051.653-.163L199.601 49.304c.49-.245.796-.745.796-1.296V1.438c0-.795-.643-1.438-1.439-1.438z" fill="#49B170"/><path d="M52.473 38.172L.14 150.412c-.541 1.164.592 2.408 1.806 1.97l164.187-59.763c.571-.204.949-.755.949-1.357V38.784c0-.796-.653-1.438-1.449-1.438H53.79c-.562 0-1.082.326-1.317.836" fill="#49B170"/><path d="M60.115 46.427h-2.582v-6.194h-2.275v14.459h2.275v-6.194h2.582v6.194h2.316V40.233h-2.316m95.802 0h-2.275v14.459h2.275V40.233zm-89.741 0L63.87 54.692h2.081l.398-2.623h2.786l.398 2.623h2.296l-2.317-14.459h-3.336zm.459 9.867l1.092-7.306 1.091 7.306h-2.183zm19.193-3.898l-.827 3.184v-9.153h-2.02v14.459h2.337l1.898-6.633.928-3.55v10.183h2.041V40.233h-2.5l-1.857 5.97zm36.06 4.837l.245-8.735h1.979v12.398h2.316V40.243h-6.418l-.377 10.928c-.041 1.347-.368 1.49-1.408 1.49v2.072h.347c2.275 0 3.224-1.041 3.306-3.674m30.447.082v-1.878c0-2.316-1.112-3.57-3.387-3.57h-1.072v-5.43h-2.275v14.46h3.347c2.275 0 3.387-1.256 3.387-3.572m-4.459-3.388h1.072c.724 0 1.112.327 1.112 1.368v2.163c0 1.03-.398 1.367-1.112 1.367h-1.072v-4.898zm-12.867 3.388v-1.877c0-2.317-1.112-3.572-3.387-3.572h-1.072v-5.428h-2.275v14.459h3.347c2.275 0 3.387-1.255 3.387-3.572m-4.459-3.387h1.072c.724 0 1.112.326 1.112 1.367v2.163c0 1.03-.398 1.367-1.112 1.367h-1.072v-4.897zm8.347.765h2.582v6.194h2.316V40.274h-2.316v6.194h-2.582v-6.194h-2.275v14.459h2.275v-6.194zM80.4 40.274h-2.306v12.387h-2.582V40.274h-2.275v14.459h5.948v1.938h2.204v-3.959h-.99V40.274zm34.345 14.459h2.296l-2.316-14.459h-3.327l-2.306 14.459h2.082l.398-2.623h2.785l.398 2.623h-.01zm-2.898-4.582l1.092-7.306 1.092 7.306h-2.184zm52.07-7.806v-2.06h-6.194v14.458h6.194v-2.061h-3.919v-4.235h3.113v-2.061h-3.113v-4.03h3.919v-.01zm-68.62-2.234c-2.235 0-3.449 1.326-3.449 3.642v7.52c0 2.317 1.214 3.633 3.449 3.633s3.449-1.326 3.449-3.633v-7.52c0-2.316-1.225-3.642-3.449-3.642zm1.173 11.295c0 1.03-.448 1.429-1.173 1.429-.724 0-1.173-.398-1.173-1.429V43.6c0-1.03.449-1.418 1.173-1.418.725 0 1.173.388 1.173 1.418v7.806zm6.245-2.867h2.582v6.194h2.306V40.274h-2.306v6.194h-2.582v-6.194h-2.275v14.459h2.275v-6.194zm31.866 11.153V57.63h-6.193v14.46h6.193v-2.061h-3.918v-4.235h3.112v-2.071h-3.112v-4.03h3.918zm6.816 12.387h2.327l-3.164-8.01 3.164-6.439h-2.276l-2.969 6.296V57.63h-2.275v14.46h2.275v-4.44l.704-1.326 2.214 5.765v-.01zm8.143 0V59.692h2.377V57.63h-7.02v2.062h2.378v12.387h2.275-.01zm10.55-3.572V66.63c0-2.316-1.112-3.571-3.387-3.571h-1.072V57.63h-2.275v14.46h3.347c2.275 0 3.387-1.255 3.387-3.571m-4.469-3.388h1.071c.725 0 1.113.327 1.113 1.367v2.164c0 1.03-.398 1.367-1.113 1.367h-1.071V65.13zm-37.233-2.04v-1.878c0-2.316-1.112-3.571-3.388-3.571h-3.347V72.1h2.276v-5.428h1.082c2.275 0 3.387-1.255 3.387-3.571m-4.459-3.388h1.082c.724 0 1.112.326 1.112 1.367v2.163c0 1.031-.388 1.368-1.112 1.368h-1.082v-4.898zM102.684 72.1h2.276V59.712h2.581v12.387h2.306V57.641h-7.163v14.458zm58.712 0h2.276V57.641h-2.276v14.458zm-38.151-14.622c-2.235 0-3.449 1.327-3.449 3.633v7.52c0 2.316 1.214 3.643 3.449 3.643 2.234 0 3.449-1.327 3.449-3.643v-7.52c0-2.316-1.225-3.633-3.449-3.633zm1.173 11.296c0 1.04-.459 1.428-1.173 1.428s-1.184-.387-1.184-1.428v-7.806c0-1.03.459-1.418 1.184-1.418.724 0 1.173.388 1.173 1.418v7.806zm34.897 12.193l-.827 3.184v-9.153h-2.03v14.459h2.326l1.898-6.633.929-3.55v10.183h2.04v-14.46h-2.499l-1.858 5.97h.021zm-33.58-6.132c-2.235 0-3.449 1.316-3.449 3.632v7.52c0 2.317 1.214 3.633 3.449 3.633 2.234 0 3.448-1.326 3.448-3.633v-7.52c0-2.316-1.214-3.632-3.448-3.632zm1.173 11.305c0 1.031-.449 1.419-1.173 1.419-.725 0-1.174-.398-1.174-1.419v-7.805c0-1.03.459-1.429 1.174-1.429.714 0 1.173.388 1.173 1.429v7.805zm-9.398-11.132h-3.346v14.459h2.275v-5.428h1.071c2.276 0 3.388-1.255 3.388-3.572V78.59c0-2.317-1.112-3.572-3.388-3.572m1.113 5.602c0 1.03-.388 1.368-1.113 1.368h-1.071V77.09h1.071c.725 0 1.113.326 1.113 1.367v2.163zm15.519-5.765c-2.234 0-3.387 1.317-3.387 3.633v7.52c0 2.316 1.153 3.632 3.387 3.632 2.235 0 3.388-1.326 3.388-3.632v-1.919h-2.153v2.072c0 1.03-.459 1.408-1.173 1.408-.715 0-1.184-.377-1.184-1.408v-7.806c0-1.03.449-1.428 1.184-1.428.734 0 1.173.387 1.173 1.428v1.551h2.153v-1.408c0-2.316-1.153-3.633-3.388-3.633m8.306 0c-2.234 0-3.387 1.317-3.387 3.633v7.52c0 2.316 1.153 3.633 3.387 3.633 2.235 0 3.388-1.327 3.388-3.633V84.1h-2.143v2.071c0 1.03-.459 1.408-1.184 1.408-.724 0-1.173-.377-1.173-1.408v-7.806c0-1.03.449-1.428 1.173-1.428.725 0 1.184.387 1.184 1.428v1.551h2.143v-1.408c0-2.316-1.153-3.632-3.388-3.632m7.857 6.132l-.826 3.184v-9.153h-2.021v14.459h2.337l1.898-6.633.938-3.55v10.183h2.041v-14.46h-2.5l-1.857 5.97h-.01z" fill="#fff"/><path d="M160.044 12.295h-.878v3.347h-1.337v-3.347h-.908l-1.898 3.347h-1.683l2.5-4.132-2.327-3.633h1.623l1.857 3.245h.836V7.877h1.337v3.245h.806l1.837-3.245h1.622l-2.316 3.622 2.48 4.143h-1.674m7.355-7.765h1.347v7.765h-1.347v-5.53l-3.398 5.53h-1.347V7.877h1.347v5.53m12.466-5.53v7.755h-1.347V8.969h-2.377l-.133 3c-.061.939-.163 1.663-.347 2.184-.173.51-.428.897-.765 1.122-.337.234-.786.357-1.347.357h-.337v-1.071l.215-.02c.306-.031.54-.133.714-.327.163-.194.296-.47.388-.857.092-.388.153-.94.183-1.684l.153-3.796m7.936 2.969h1.592c.572 0 1.061.092 1.49.286.418.194.745.48.959.827.214.367.327.775.327 1.245 0 .724-.245 1.305-.735 1.744-.5.44-1.163.663-2.01.674h-2.969V7.867h1.346m0 4.05v2.623h1.582c.459 0 .806-.122 1.061-.367.255-.245.378-.572.378-.98 0-.408-.123-.694-.368-.928-.255-.225-.591-.347-1.04-.347h-1.623.01zm10.012.256h-3.183v2.388h3.724v1.081h-5.071V7.877h5.03V8.97h-3.683v2.143h3.183M83.44 20.969h1.347v7.754H83.44v-5.52l-3.398 5.52h-1.347V20.97h1.347v5.53m14.032-4.44h-3.57v6.663h-1.348V20.97h4.918m7.06 4.08c0 .765-.133 1.428-.398 2-.265.571-.633 1.02-1.123 1.316-.49.306-1.05.46-1.683.46a3.135 3.135 0 01-1.684-.46c-.49-.306-.867-.745-1.142-1.316-.266-.561-.398-1.225-.409-1.96v-.438c0-.755.133-1.428.409-2.01.265-.582.642-1.02 1.132-1.327.49-.306 1.051-.459 1.684-.459.632 0 1.194.153 1.673.46.49.306.867.744 1.133 1.316.265.571.398 1.234.398 1.99m-1.347.03c0-.857-.163-1.52-.49-1.98-.327-.459-.786-.683-1.388-.683-.602 0-1.04.224-1.367.683-.326.46-.49 1.102-.5 1.929v.449c0 .857.163 1.51.5 1.98.327.469.796.693 1.377.693.582 0 1.062-.224 1.378-.683.326-.46.48-1.113.48-1.99v-.408l.01.01zm4.031 1.194v2.877h-1.347V20.97h2.969c.868 0 1.551.224 2.061.673.511.449.766 1.051.766 1.786 0 .734-.255 1.357-.745 1.775-.5.419-1.204.633-2.102.633m-1.602-1.092h1.622c.48 0 .847-.112 1.092-.337.255-.224.378-.55.378-.98 0-.428-.123-.754-.388-1-.255-.244-.602-.377-1.061-.387h-1.653v2.704h.01zm11.877.305c0 .765-.133 1.428-.398 2-.266.571-.633 1.02-1.123 1.316-.49.306-1.051.46-1.683.46-.633 0-1.194-.154-1.684-.46a3.016 3.016 0 01-1.143-1.316c-.265-.561-.398-1.225-.408-1.96v-.438c0-.755.133-1.428.408-2.01.266-.582.643-1.02 1.133-1.327.49-.306 1.051-.459 1.683-.459.633 0 1.194.153 1.684.46.49.306.867.744 1.133 1.316.265.571.398 1.234.408 1.99m-1.347.03c0-.857-.163-1.52-.49-1.98-.326-.459-.786-.683-1.377-.683-.592 0-1.041.224-1.368.683-.326.46-.5 1.102-.5 1.929v.449c0 .857.164 1.51.5 1.98.327.469.796.693 1.378.693.581 0 1.051-.224 1.377-.683.317-.46.48-1.113.48-1.99v-.408.01zm9.611 5.979h-1.276v-1.908h-5.102v1.909h-1.306l-.041-2.99h.623c.316-.296.561-.725.745-1.296a8.234 8.234 0 00.357-1.939l.204-3.438h4.887v6.673h.99m-5.653 0h3.327V22.05h-2.265l-.123 2.184c-.092 1.459-.408 2.591-.928 3.408m12.38-1.439c-.072.826-.388 1.48-.908 1.939-.531.459-1.245.694-2.123.694a3.072 3.072 0 01-1.632-.44 2.916 2.916 0 01-1.092-1.254c-.255-.541-.388-1.164-.398-1.878v-.724c0-.735.122-1.378.388-1.939.255-.561.632-.99 1.112-1.286.48-.306 1.041-.459 1.684-.459.857 0 1.55.235 2.071.694.52.46.826 1.112.908 1.96h-1.337c-.061-.562-.224-.96-.489-1.205-.256-.245-.643-.367-1.143-.367-.582 0-1.031.214-1.347.643-.316.428-.48 1.06-.48 1.887v.684c0 .837.153 1.48.449 1.918.296.439.735.653 1.317.653.53 0 .928-.112 1.193-.357.266-.235.439-.633.511-1.183m4.77-.776h-.919v3.316h-1.336V20.97h1.336v3.265h.735l2.286-3.265h1.653l-2.664 3.714 2.898 4.04h-1.622m7.238-1.807h-2.999l-.633 1.806h-1.408l2.928-7.754h1.204l2.939 7.754h-1.408m-3.265-2.887h2.245l-1.123-3.214-1.122 3.214zm9.702 2.887v-2.897h-1.5l-1.49 2.897h-1.438l1.734-3.295c-.898-.429-1.347-1.123-1.347-2.092 0-.745.245-1.316.725-1.735.49-.408 1.173-.622 2.041-.632h2.632v7.754m-4.071-5.326c0 .439.122.776.367 1.02.245.245.613.368 1.102.368h1.255V22.06h-1.255c-.5 0-.867.123-1.112.358-.245.234-.357.56-.357.98zm14.296 2.806c-.081.826-.387 1.48-.918 1.939-.53.459-1.245.694-2.122.694a3.076 3.076 0 01-1.633-.44 2.922 2.922 0 01-1.092-1.254c-.255-.541-.387-1.164-.398-1.878v-.724c0-.735.123-1.378.388-1.939.265-.561.633-.99 1.112-1.286.49-.306 1.041-.459 1.684-.459.857 0 1.541.235 2.061.694.52.46.827 1.112.908 1.96h-1.347c-.061-.562-.224-.96-.489-1.205-.256-.245-.643-.367-1.143-.367-.582 0-1.031.214-1.347.643-.316.428-.47 1.06-.48 1.887v.684c0 .837.153 1.48.449 1.918.296.439.735.653 1.317.653.53 0 .928-.112 1.193-.357.266-.235.429-.633.511-1.183m3.874-.337v2.877h-1.347V20.97h2.969c.868 0 1.551.224 2.062.673.51.449.765 1.051.765 1.786 0 .734-.255 1.357-.745 1.775-.5.419-1.204.633-2.092.633m-1.602-1.092h1.623c.479 0 .847-.112 1.091-.337.256-.224.378-.55.378-.98 0-.428-.122-.754-.388-1-.255-.244-.602-.377-1.061-.387h-1.653v2.704h.01zm10.125.519h-3.194v2.378h3.725v1.081h-5.071V20.97h5.04v1.081h-3.694v2.153h3.194m9.07 6.427h-1.275v-1.908h-5.112v1.909h-1.296l-.041-2.99h.623c.306-.296.551-.725.734-1.296a8.183 8.183 0 00.357-1.939l.205-3.438h4.887v6.673h.98m-5.643 0h3.326V22.05h-2.265l-.122 2.184c-.092 1.459-.408 2.591-.929 3.408m11.368-.725h-3l-.632 1.806h-1.408l2.928-7.754h1.204l2.939 7.754h-1.408m-3.265-2.887h2.244l-1.122-3.214-1.122 3.214z" fill="#49B170"/></svg>