<svg width="32" height="32" viewBox="0 0 32 32" fill="none" xmlns="http://www.w3.org/2000/svg">
<g id="delete">
<path id="Icon" d="M22.6667 11.9999L14.6667 19.9999M14.6667 11.9999L22.6667 19.9999M3.62667 17.2799L9.38667 24.9599C9.856 25.5857 10.0907 25.8986 10.3881 26.1242C10.6515 26.3241 10.9498 26.4733 11.2677 26.5641C11.6267 26.6666 12.0178 26.6666 12.8 26.6666H22.9333C25.1735 26.6666 26.2936 26.6666 27.1493 26.2306C27.9019 25.8471 28.5139 25.2352 28.8974 24.4825C29.3333 23.6269 29.3333 22.5068 29.3333 20.2666V11.7333C29.3333 9.49304 29.3333 8.37294 28.8974 7.51729C28.5139 6.76464 27.9019 6.15272 27.1493 5.76923C26.2936 5.33325 25.1735 5.33325 22.9333 5.33325H12.8C12.0178 5.33325 11.6267 5.33325 11.2677 5.43577C10.9498 5.52658 10.6515 5.67572 10.3881 5.87559C10.0907 6.10126 9.856 6.41414 9.38667 7.03992L3.62667 14.7199C3.28241 15.1789 3.11028 15.4084 3.04393 15.6605C2.98536 15.883 2.98536 16.1168 3.04393 16.3393C3.11028 16.5914 3.28241 16.8209 3.62667 17.2799Z" stroke="#272727" stroke-width="2" stroke-linecap="round" stroke-linejoin="round"/>
</g>
</svg>
