<svg width="20" height="20" viewBox="0 0 20 20" fill="none" xmlns="http://www.w3.org/2000/svg">
<g id="colors" clip-path="url(#clip0_197_5525)">
<path id="Icon" d="M9.99983 17.0602C10.8844 17.8519 12.0526 18.3334 13.3332 18.3334C16.0946 18.3334 18.3332 16.0948 18.3332 13.3334C18.3332 11.0276 16.7724 9.08634 14.6497 8.5085M5.34999 8.50849C3.22728 9.08633 1.6665 11.0276 1.6665 13.3334C1.6665 16.0948 3.90508 18.3334 6.6665 18.3334C9.42793 18.3334 11.6665 16.0948 11.6665 13.3334C11.6665 12.6829 11.5423 12.0615 11.3164 11.4916M14.9998 6.66669C14.9998 9.42811 12.7613 11.6667 9.99984 11.6667C7.23841 11.6667 4.99984 9.42811 4.99984 6.66669C4.99984 3.90526 7.23841 1.66669 9.99984 1.66669C12.7613 1.66669 14.9998 3.90526 14.9998 6.66669Z" stroke="#272727" stroke-width="1.75" stroke-linecap="round" stroke-linejoin="round"/>
</g>
<defs>
<clipPath id="clip0_197_5525">
<rect width="20" height="20" fill="white"/>
</clipPath>
</defs>
</svg>
