<svg width="242" height="55" fill="none" xmlns="http://www.w3.org/2000/svg"><path d="M217.23.95l24.44 52.41c.25.54-.28 1.12-.84.92l-76.66-27.9a.677.677 0 01-.45-.63V1.24c0-.38.3-.68.68-.68h52.22c.26 0 .5.15.61.39z" fill="#49B170"/><path d="M167.71 4.87h-1.21v-2.9h-1.06v6.75h1.06V5.83h1.21v2.89h1.08V1.97h-1.08m14.04 6.75V1.97h-1.17l-.87 2.79-.39 1.48V1.97h-.95v6.75h1.09l.89-3.1.43-1.66v4.76h.97zm-5.13.9h1.03V7.77h-.46V1.96h-1.08v5.79h-1.21V1.96h-1.07v6.75h2.78v.9l.01.01zm-6.08-7.66l-1.08 6.75h.97l.18-1.23h1.3l.19 1.23h1.07l-1.08-6.75h-1.55zm.21 4.61l.51-3.42.51 3.42h-1.02zm30.35-2.08h-.5V1.95h-1.06V8.7h1.56c1.06 0 1.58-.59 1.58-1.67v-.88c0-1.08-.52-1.67-1.58-1.67m.52 2.61c0 .48-.18.64-.52.64h-.5V5.44h.5c.34 0 .52.15.52.64v1.01zm7.57-2.61h-.5V1.94h-1.06v6.75h1.56c1.06 0 1.58-.59 1.58-1.67v-.88c0-1.08-.52-1.67-1.58-1.67m.52 2.61c0 .48-.18.64-.52.64h-.5V5.43h.5c.34 0 .52.15.52.64v1.01zm1.67 1.6h1.06V1.93h-1.06v6.75zm4.8-5.78v-.97h-2.89v6.75h2.89v-.96h-1.83V5.74h1.46v-.97h-1.46V2.89h1.83v.01zM205.7 4.83h-1.2v-2.9h-1.06v6.75h1.06V5.79h1.2v2.89h1.08V1.93h-1.08v2.9zm-14.04-2.9l-1.08 6.75h.97l.19-1.23h1.3l.18 1.23h1.07l-1.08-6.75h-1.55zm.21 4.61l.51-3.42.51 3.42h-1.02zm-1.98 2.14V1.93h-1.08v2.9h-1.21v-2.9h-1.06v6.75h1.06V5.79h1.21v2.89h1.08zm-5.75.07c1.04 0 1.6-.62 1.6-1.7V3.54c0-1.08-.57-1.7-1.6-1.7-1.03 0-1.61.61-1.61 1.7v3.51c0 1.08.57 1.7 1.61 1.7zm-.55-5.27c0-.48.21-.67.55-.67.34 0 .55.19.55.67v3.65c0 .48-.21.66-.55.66-.34 0-.55-.18-.55-.66V3.48zm11.91 3.55c-.02.63-.17.7-.66.7v.96h.16c1.06 0 1.5-.48 1.54-1.72l.12-4.07h.93v5.78h1.08V1.93h-3l-.17 5.1zm-24.31 3h-1.56v6.75h1.06v-2.53h.5c1.06 0 1.58-.59 1.58-1.67v-.88c0-1.08-.52-1.67-1.58-1.67zm.52 2.61c0 .49-.18.64-.52.64h-.5V11h.5c.34 0 .52.16.52.64v1.01-.01zm-6.28 4.14h1.06V11h1.21v5.78h1.08v-6.75h-3.35v6.75zm25.23-4.21h-.5v-2.54h-1.06v6.75h1.56c1.06 0 1.58-.59 1.58-1.67v-.88c0-1.08-.52-1.67-1.58-1.67m.52 2.61c0 .48-.18.64-.52.64h-.5v-2.29h.5c.34 0 .52.16.52.64v1.01zm-13.75 1.6h2.89v-.96h-1.83v-1.98h1.46v-.97h-1.46v-1.88h1.83v-.97h-2.89v6.76zm8.82 0h1.06v-5.78h1.11v-.97h-3.28v.97h1.11v5.78zm6.6 0h1.06v-6.75h-1.06v6.75zm-9.31-6.75l-1.39 2.94v-2.94h-1.06v6.75h1.06V14.7l.33-.61 1.03 2.69h1.09l-1.48-3.74 1.48-3.01h-1.06v-.01zm-8.51-.08c-1.04 0-1.61.62-1.61 1.7v3.51c0 1.09.57 1.7 1.61 1.7s1.61-.61 1.61-1.7v-3.51c0-1.08-.57-1.7-1.61-1.7zm.55 5.28c0 .48-.21.66-.55.66-.34 0-.55-.18-.55-.66v-3.64c0-.48.21-.67.55-.67.34 0 .55.18.55.67v3.64zm10.94 5.69l-.39 1.48v-4.27h-.95v6.75h1.09l.89-3.09.43-1.66v4.75h.96v-6.75h-1.17l-.87 2.79h.01zm-4.2 0l-.39 1.48v-4.27h-.95v6.75h1.09l.89-3.09.43-1.66v4.75h.96v-6.75h-1.17l-.87 2.79h.01zm-7.55-2.87c-1.04 0-1.58.62-1.58 1.7v3.51c0 1.08.53 1.7 1.58 1.7s1.58-.62 1.58-1.7v-.89h-1v.97c0 .48-.21.66-.55.66-.34 0-.55-.18-.55-.66v-3.65c0-.48.21-.66.55-.66.34 0 .55.18.55.66v.72h1v-.65c0-1.08-.54-1.7-1.58-1.7m3.88 0c-1.04 0-1.58.62-1.58 1.7v3.51c0 1.08.54 1.7 1.58 1.7s1.58-.62 1.58-1.7v-.89h-1v.97c0 .48-.22.66-.55.66-.33 0-.55-.18-.55-.66v-3.65c0-.48.21-.66.55-.66.34 0 .55.18.55.66v.72h1v-.65c0-1.08-.54-1.7-1.58-1.7m-7.81 0c-1.04 0-1.61.62-1.61 1.7v3.51c0 1.08.57 1.7 1.61 1.7s1.61-.62 1.61-1.7v-3.51c0-1.08-.57-1.7-1.61-1.7zm.55 5.28c0 .48-.22.66-.55.66-.33 0-.55-.18-.55-.66v-3.65c0-.48.21-.66.55-.66.34 0 .55.18.55.66v3.65zm-4.39-5.2h-1.57v6.75h1.06v-2.54h.5c1.06 0 1.58-.59 1.58-1.67v-.88c0-1.08-.52-1.67-1.58-1.67m.52 2.61c0 .48-.18.64-.52.64h-.5v-2.29h.5c.34 0 .52.15.52.64v1.01z" fill="#fff"/><path d="M110.15 7.19h-1.18v4.57h-1.83V7.19h-1.24l-2.59 4.57h-2.29l3.4-5.63-3.18-4.95h2.23l2.52 4.42h1.15V1.18h1.83V5.6h1.09l2.5-4.42h2.22l-3.15 4.93 3.37 5.65h-2.28m9.89-10.58h1.84v10.58h-1.84V4.22l-4.64 7.54h-1.84V1.18h1.84v7.54m17-7.54v10.58h-1.83V2.67h-3.24l-.19 4.09c-.07 1.28-.23 2.27-.47 2.97-.24.71-.59 1.22-1.04 1.54-.46.33-1.07.49-1.83.49h-.46v-1.47l.29-.02c.42-.04.75-.19.98-.45.23-.25.4-.64.52-1.16.12-.52.2-1.29.25-2.3l.2-5.18m10.84 4.04h2.16c.77 0 1.45.13 2.03.4.58.26 1.02.64 1.32 1.13.3.49.45 1.06.45 1.7 0 .99-.34 1.78-1.01 2.38-.67.6-1.58.91-2.74.92h-4.05V1.17h1.84m0 5.53v3.58h2.16c.62 0 1.1-.17 1.45-.5.35-.34.52-.78.52-1.34s-.17-.95-.51-1.26c-.34-.31-.81-.47-1.41-.48h-2.21zm13.72.33h-4.34v3.26h5.07v1.47h-6.91V1.18h6.86v1.48h-5.02v2.92h4.34M6.76 16.36H8.6v10.58H6.76V19.4l-4.64 7.54H.28V16.36h1.84v7.54m19.15-6.06h-4.88v9.1h-1.83V16.36h6.71m9.97 5.56c0 1.04-.18 1.95-.54 2.73-.36.78-.87 1.38-1.53 1.8-.67.42-1.43.63-2.3.63-.87 0-1.62-.21-2.29-.63-.67-.42-1.19-1.02-1.55-1.79-.36-.78-.55-1.67-.55-2.68v-.6c0-1.03.18-1.94.55-2.73.37-.79.88-1.4 1.55-1.82.66-.42 1.43-.62 2.29-.62.86 0 1.62.21 2.29.62.66.41 1.18 1.01 1.54 1.78.36.78.55 1.68.55 2.72m-1.84.03c0-1.17-.22-2.07-.66-2.7-.45-.62-1.07-.94-1.89-.94-.82 0-1.41.31-1.86.93-.45.62-.68 1.5-.69 2.64v.61c0 1.16.23 2.06.68 2.7.45.63 1.08.95 1.89.95.81 0 1.44-.31 1.88-.93.44-.62.66-1.52.66-2.72v-.55l-.01.01zm5.5 1.65v3.93h-1.84V16.36h4.05c1.18 0 2.12.31 2.81.92.7.62 1.04 1.43 1.04 2.44s-.34 1.84-1.02 2.42c-.68.58-1.64.86-2.86.86m-2.19-1.48h2.21c.65 0 1.15-.15 1.49-.46.34-.31.52-.75.52-1.34 0-.59-.17-1.03-.52-1.37-.35-.34-.83-.52-1.44-.53H34.9v3.7zm16.12.4c0 1.04-.18 1.95-.54 2.73-.36.78-.87 1.38-1.54 1.8-.67.42-1.43.63-2.3.63-.87 0-1.62-.21-2.29-.63-.67-.42-1.19-1.02-1.56-1.79-.36-.78-.55-1.67-.55-2.68v-.6c0-1.03.18-1.94.55-2.73.36-.79.88-1.4 1.55-1.82.66-.42 1.43-.62 2.29-.62.86 0 1.62.21 2.29.62.67.41 1.18 1.01 1.54 1.78.37.78.55 1.68.55 2.72m-1.84.03c0-1.17-.23-2.07-.67-2.7-.44-.62-1.07-.94-1.89-.94-.82 0-1.41.31-1.86.93-.45.62-.68 1.5-.69 2.64v.61c0 1.16.23 2.06.68 2.7.45.63 1.08.95 1.89.95.81 0 1.44-.31 1.88-.93.44-.62.66-1.52.66-2.72v-.55.01zm13.41 8.18h-1.75v-2.6h-6.96v2.6H52.1l-.06-4.07h.85c.42-.41.76-1 1.01-1.77.25-.78.41-1.66.49-2.64l.27-4.69h6.67v9.11h1.35m-7.71 0h4.53v-7.63h-3.09l-.17 2.98c-.13 1.99-.55 3.54-1.27 4.65zm17.16-1.99c-.1 1.13-.52 2.01-1.25 2.64-.73.63-1.69.95-2.9.95-.84 0-1.59-.2-2.23-.6-.64-.4-1.13-.97-1.48-1.7-.35-.73-.53-1.59-.55-2.56v-.99c0-1 .18-1.88.53-2.64.35-.76.86-1.35 1.52-1.76.66-.41 1.42-.62 2.29-.62 1.17 0 2.1.32 2.82.95.71.63 1.12 1.53 1.24 2.68h-1.83c-.09-.76-.31-1.3-.66-1.64-.36-.34-.88-.5-1.57-.5-.8 0-1.41.29-1.84.88-.43.58-.65 1.44-.66 2.57v.94c0 1.14.21 2.02.61 2.62.41.6 1.01.9 1.8.9.72 0 1.26-.16 1.63-.48.36-.32.59-.86.69-1.62m6.61-1.11h-1.25v4.54h-1.83V16.36h1.83v4.45h1.01l3.11-4.45h2.25l-3.63 5.06 3.95 5.52h-2.21m9.15-2.47h-4.1l-.86 2.46h-1.91l3.99-10.58h1.65l4 10.58h-1.92m-4.45-3.94h3.07l-1.54-4.39-1.53 4.39zm12.8 3.95v-3.95h-2.05l-2.04 3.95h-1.97l2.36-4.5c-1.23-.58-1.84-1.53-1.84-2.85 0-1.01.33-1.8 1-2.37.66-.56 1.6-.85 2.79-.86h3.6v10.58m-5.55-7.27c0 .59.17 1.06.5 1.39.34.33.84.5 1.51.5h1.7v-3.72h-1.7c-.68 0-1.18.16-1.52.49-.33.32-.49.77-.49 1.34zm19.49 3.82c-.11 1.13-.52 2.01-1.25 2.64-.73.63-1.69.95-2.9.95-.84 0-1.59-.2-2.23-.6-.65-.4-1.14-.97-1.49-1.7-.35-.73-.53-1.59-.55-2.56v-.99c0-1 .18-1.88.54-2.64.35-.76.85-1.35 1.52-1.76.66-.41 1.43-.62 2.29-.62 1.17 0 2.11.32 2.82.95.71.63 1.12 1.53 1.24 2.68h-1.83c-.09-.76-.31-1.3-.66-1.64-.36-.34-.88-.5-1.57-.5-.8 0-1.41.29-1.84.88-.43.58-.65 1.44-.66 2.57v.94c0 1.14.21 2.02.61 2.62.41.6 1.01.9 1.8.9.72 0 1.26-.16 1.63-.48.36-.32.59-.86.69-1.62m5.32-.5v3.93h-1.84V16.36h4.05c1.18 0 2.12.31 2.81.92.7.62 1.05 1.43 1.05 2.44s-.34 1.84-1.02 2.42c-.68.58-1.64.86-2.86.86m-2.19-1.48h2.21c.65 0 1.15-.15 1.5-.46.34-.31.52-.75.52-1.34 0-.59-.18-1.03-.53-1.37-.35-.34-.83-.52-1.44-.53h-2.26v3.7zm13.85.7h-4.34v3.25h5.08v1.47h-6.92V16.36h6.87v1.48h-5.03v2.92h4.34m11.96 8.78h-1.74v-2.6h-6.97v2.6h-1.77l-.06-4.07h.85c.42-.41.76-1 1.01-1.77.25-.78.41-1.66.49-2.64l.28-4.69h6.67v9.11h1.34m-7.71 0h4.53v-7.63h-3.09l-.18 2.98c-.13 1.99-.55 3.54-1.27 4.65m15.02-1.01h-4.1l-.86 2.46h-1.91l4-10.58h1.64l4 10.58h-1.92m-4.45-3.94h3.07l-1.54-4.39-1.53 4.39z" fill="#49B170"/></svg>