<svg width="90" height="112" viewBox="0 0 90 112" fill="none" xmlns="http://www.w3.org/2000/svg">
<g id="Frame 108">
<g id="1">
<g id="Group">
<path id="Vector" fill-rule="evenodd" clip-rule="evenodd" d="M0 0H90V92.935C89.9475 99.6555 86.2695 103.145 79.0462 103.182H54.7597C49.7549 103.493 46.2682 106.08 44.9969 112C43.7287 106.08 40.239 103.493 35.2342 103.182H10.9538C3.73354 103.145 0.0524547 99.6555 0 92.935V0Z" fill="#2B2A29"/>
<path id="Vector_2" fill-rule="evenodd" clip-rule="evenodd" d="M88.2701 97.9738L88.0602 98.3681L87.8319 98.7438L87.5881 99.1011L87.3228 99.4368L87.0389 99.7571L86.7365 100.059L86.4156 100.342L86.0731 100.61L85.7121 100.86L85.3295 101.094L84.9253 101.309L84.5026 101.507L84.0552 101.688L83.5862 101.852L83.0955 101.996L82.5833 102.123L82.0495 102.23L81.4941 102.32L80.914 102.391L80.3155 102.443L79.6922 102.474L79.0411 102.489H54.736L54.2331 102.526L53.7579 102.578L53.2889 102.643L52.8261 102.726L52.3725 102.822L51.9282 102.933L51.4931 103.062L51.0673 103.204L50.6507 103.364L50.2465 103.542L49.8485 103.736L49.4628 103.946L49.0864 104.174L48.7223 104.417L48.3674 104.682L48.028 104.962L47.6979 105.258L47.38 105.575L47.0746 105.908L46.7845 106.259L46.5037 106.625L46.2384 107.014L45.9854 107.417L45.7447 107.839L45.5194 108.276L45.3096 108.735L45.1091 109.21L45.0011 109.496L44.8931 109.21L44.6956 108.735L44.4827 108.276L44.2574 107.839L44.0168 107.417L43.7637 107.014L43.4984 106.625L43.2207 106.259L42.9276 105.908L42.6221 105.575L42.3074 105.258L41.9772 104.962L41.6347 104.682L41.2799 104.417L40.9158 104.174L40.5393 103.946L40.1536 103.736L39.7587 103.542L39.3514 103.364L38.9348 103.204L38.509 103.062L38.0739 102.933L37.6296 102.822L37.176 102.726L36.7163 102.643L36.2473 102.578L35.769 102.526L35.2661 102.489H10.961L10.313 102.474L9.68976 102.443L9.08807 102.391L8.51107 102.32L7.95258 102.23L7.41878 102.123L6.90657 101.996L6.41597 101.852L5.94696 101.688L5.50264 101.507L5.07683 101.309L4.67262 101.094L4.29001 100.86L3.92899 100.61L3.58649 100.342L3.26559 100.059L2.96321 99.7571L2.67934 99.4368L2.41706 99.1011L2.17022 98.7438L1.94188 98.3681L1.73515 97.9738L1.54385 97.5611L1.37105 97.1268L1.21986 96.6741L1.08718 96.1998L0.973014 95.707L0.877361 95.1926L0.803308 94.6567L0.747767 94.1023L0.71074 93.5264L0.695312 92.9258V0.692993H89.3068V92.9258L89.2914 93.5264L89.2574 94.1023L89.2019 94.6567L89.1248 95.1926L89.0322 95.707L88.918 96.1998L88.7823 96.6741L88.6311 97.1268L88.4583 97.5611L88.2701 97.9738Z" fill="#008DD2"/>
<path id="Vector_3" fill-rule="evenodd" clip-rule="evenodd" d="M44.2041 3.27094H45.7006V4.26884H46.7806V6.01211H45.7006V7.43197C52.4364 7.61677 53.0566 11.5437 50.8597 16.3084C52.8715 15.8803 54.2569 15.9358 54.2692 17.0569V19.6317C56.2101 19.3699 58.012 19.4531 59.5116 20.297C60.0022 21.4304 59.0457 22.8164 59.5949 24.1993C64.5596 24.6983 69.4379 21.2087 74.4859 25.6931V32.5861C70.5827 30.2884 65.4946 30.0944 59.5949 31.3418C56.8735 31.8992 54.3772 32.1241 53.4392 30.0143C53.4948 29.155 53.5503 28.2988 53.6058 27.4394C52.856 27.5503 52.1093 27.883 51.3595 28.4374C49.6131 28.9363 47.8111 27.5226 49.4465 25.9457C49.4743 25.3636 49.502 24.7845 49.5298 24.2024C48.1166 24.4303 46.4874 24.7476 44.9539 24.763C43.4204 24.7476 41.7912 24.4303 40.378 24.2024C40.4058 24.7845 40.4335 25.3636 40.4613 25.9457C42.0967 27.5226 40.2947 28.9363 38.5482 28.4374C37.7985 27.883 37.0517 27.5503 36.3019 27.4394C36.3575 28.2988 36.413 29.155 36.4686 30.0143C35.5306 32.1241 33.0312 31.8992 30.3129 31.3418C24.4132 30.0975 19.3251 30.2915 15.4219 32.5861V25.6931C20.4699 21.2087 25.3482 24.6952 30.3129 24.1993C30.8621 22.8164 29.9056 21.4304 30.3962 20.297C31.8927 19.4531 33.6946 19.3699 35.6386 19.6317V17.0569C35.6509 15.9358 37.0394 15.8803 39.0481 16.3084C36.8481 11.5437 37.4714 7.61677 44.2072 7.43197V6.01211H43.1272V4.26884H44.2072V3.27094H44.2041Z" fill="#2B2A29"/>
<path id="Vector_4" fill-rule="evenodd" clip-rule="evenodd" d="M40.1472 13.7582C40.3138 13.8968 40.4681 14.0508 40.6069 14.2233C41.3197 15.0949 41.6745 16.37 41.6653 18.0486H39.8047C39.8818 17.7006 39.8664 17.3772 39.7707 17.063C39.7522 16.9983 39.7275 16.9306 39.6998 16.8659L39.7553 16.8782L39.2308 15.7047L39.0549 15.2766L38.8975 14.8547L38.7587 14.442L38.6383 14.0385L38.5365 13.6442L38.4532 13.2593L38.3915 12.8835L38.3853 12.825C38.5211 12.8835 38.6568 12.942 38.7895 13.0067C39.2369 13.2192 39.8232 13.4902 40.1503 13.7613L40.1472 13.7582ZM49.7618 13.7582C49.5952 13.8968 49.4409 14.0508 49.3021 14.2233C48.5893 15.0949 48.2345 16.37 48.2437 18.0486H50.1043C50.0272 17.7006 50.0426 17.3772 50.1383 17.063C50.1568 16.9983 50.1815 16.9306 50.2092 16.8659L50.1537 16.8782L50.6782 15.7047L50.8541 15.2766L51.0115 14.8547L51.1503 14.442L51.2707 14.0385L51.3725 13.6442L51.4558 13.2593L51.5175 12.8835L51.5237 12.825C51.3879 12.8835 51.2521 12.942 51.1195 13.0067C50.6721 13.2192 50.0858 13.4902 49.7587 13.7613L49.7618 13.7582ZM44.9545 24.3441H45.1396L45.334 24.3348L45.5315 24.3256L45.729 24.3133L45.9264 24.2979L46.127 24.2794L46.3276 24.2609L46.5281 24.2393L46.7287 24.2147L46.9293 24.1901L47.1298 24.1623L47.3304 24.1346L47.5309 24.1038L47.7284 24.073L47.9259 24.0422L48.1234 24.0114L48.3209 23.9806L48.5152 23.9498L48.7096 23.919L48.9009 23.8882L49.0922 23.8574L49.2805 23.8266C49.9686 23.7157 50.1197 23.7311 50.8109 23.4324C51.4064 23.1737 52.0019 22.915 52.5481 22.7825C53.1745 22.6316 53.7268 22.6378 54.131 22.9673C54.0446 22.339 53.986 21.7107 53.952 21.0824C53.8811 19.7549 53.8595 18.4767 53.8595 17.0753V17.0014L53.8471 16.9429L53.8348 16.8905L53.8193 16.8474L53.8008 16.8105L53.7792 16.7766L53.7546 16.7458L53.7268 16.715L53.6928 16.6873L53.6527 16.6595L53.6064 16.6318L53.5509 16.6041L53.4861 16.5795L53.4151 16.5579L53.3349 16.5363L53.2454 16.5179L53.1498 16.5025L53.0449 16.4932L52.9338 16.4871H52.8165H52.69H52.5573L52.4185 16.4994L52.2766 16.5117L52.1285 16.5271L51.9742 16.5456L51.8137 16.5671L51.6502 16.5918L51.4805 16.6195L51.3077 16.6503L51.1287 16.6842L50.7245 16.7673C50.6412 16.9059 50.5764 17.0476 50.5332 17.1893C50.4499 17.4603 50.4437 17.7468 50.5332 18.0578C50.9343 18.0671 51.1812 18.4367 51.2799 18.9079C51.3139 19.0742 51.3324 19.2498 51.3324 19.4253C51.3324 19.6009 51.3139 19.7765 51.2799 19.9428C51.1781 20.4202 50.9282 20.7929 50.5178 20.7929H44.9545H39.3912C38.9839 20.7929 38.7309 20.4202 38.6291 19.9428C38.5951 19.7765 38.5766 19.6009 38.5766 19.4253C38.5766 19.2498 38.5951 19.0742 38.6291 18.9079C38.7278 18.4367 38.9747 18.0671 39.3758 18.0578C39.4622 17.7498 39.456 17.4634 39.3758 17.1893C39.3326 17.0476 39.2678 16.9059 39.1845 16.7673L38.7803 16.6842L38.6013 16.6503L38.4285 16.6195L38.2588 16.5918L38.0953 16.5671L37.9348 16.5456L37.7805 16.5271L37.6324 16.5117L37.4905 16.4994L37.3516 16.4901H37.219L37.0925 16.484H36.9752L36.8641 16.4932L36.7592 16.5025L36.6636 16.5179L36.5741 16.5363L36.4939 16.5579L36.4229 16.5795L36.3581 16.6041L36.3025 16.6318L36.2563 16.6595L36.2162 16.6873L36.1822 16.715L36.1544 16.7458L36.1298 16.7766L36.1082 16.8105L36.0896 16.8474L36.0742 16.8905L36.0619 16.9429L36.0526 17.0014V17.0753C36.0495 18.4767 36.0279 19.7518 35.957 21.0824C35.923 21.7107 35.8644 22.339 35.778 22.9673C36.1822 22.6378 36.7376 22.6316 37.3609 22.7825C37.907 22.915 38.5026 23.1737 39.0981 23.4324C39.7892 23.7311 39.9404 23.7157 40.6285 23.8266L40.8167 23.8574L41.008 23.8882L41.1994 23.919L41.3937 23.9498L41.5881 23.9806L41.7856 24.0114L41.9831 24.0422L42.1806 24.073L42.378 24.1038L42.5786 24.1346L42.7792 24.1623L42.9797 24.1901L43.1803 24.2147L43.3808 24.2393L43.5814 24.2609L43.782 24.2794L43.9825 24.2979L44.18 24.3133L44.3775 24.3256L44.575 24.3348L44.7694 24.341H44.9545V24.3441ZM44.9545 20.3709H39.3912C39.2184 20.3709 39.095 20.143 39.0333 19.8504C39.0055 19.7149 38.9901 19.567 38.9901 19.4192C38.9901 19.2714 39.0055 19.1204 39.0333 18.988C39.095 18.6954 39.2153 18.4675 39.3912 18.4675H50.5178C50.6906 18.4675 50.814 18.6954 50.8757 18.988C50.9035 19.1235 50.9189 19.2714 50.9189 19.4192C50.9189 19.567 50.9035 19.7179 50.8757 19.8504C50.814 20.143 50.6937 20.3709 50.5178 20.3709H44.9545ZM44.9545 18.0517H44.1893C44.1862 17.5958 44.1893 17.1431 44.1924 16.6873C44.1954 16.1667 44.2016 15.6431 44.1924 15.1226C44.3806 14.8239 44.5873 14.5744 44.8187 14.368C44.8619 14.328 44.9082 14.291 44.9545 14.2541C45.0008 14.291 45.0471 14.328 45.0903 14.368C45.3217 14.5744 45.5284 14.8239 45.7166 15.1226C45.7105 15.6431 45.7135 16.1667 45.7166 16.6873C45.7197 17.1431 45.7228 17.5958 45.7197 18.0517H44.9545ZM44.9545 13.7551C44.8095 13.8444 44.6737 13.9461 44.5441 14.06C44.2633 14.3064 44.0226 14.6052 43.8067 14.9563L43.7758 15.0056V15.0672C43.7851 15.6062 43.782 16.1452 43.7758 16.6842C43.7727 17.14 43.7696 17.5958 43.7727 18.0517H43.2574V17.8546C43.2482 16.6873 43.242 15.7017 43.3006 14.8516C43.3346 14.3834 43.5197 14.0354 43.7388 13.7459C43.9764 13.5395 44.2541 13.2839 44.5349 13.0252C44.6737 12.8958 44.8156 12.7665 44.9514 12.6433C45.0872 12.7665 45.2291 12.8958 45.368 13.0252C45.6457 13.2839 45.9264 13.5395 46.164 13.7459C46.3831 14.0354 46.5682 14.3834 46.6022 14.8516C46.6608 15.7017 46.6546 16.6842 46.6485 17.8546V18.0517H46.1332C46.1363 17.5958 46.1332 17.14 46.1301 16.6842C46.127 16.1452 46.1208 15.6062 46.1301 15.0672V15.0056L46.0992 14.9563C45.8832 14.6052 45.6426 14.3064 45.3618 14.06C45.2322 13.9461 45.0964 13.8444 44.9514 13.7551H44.9545ZM44.9545 12.0889C45.1674 12.2767 45.405 12.4954 45.6426 12.7172C45.6919 12.5724 45.7166 12.4184 45.7166 12.2583C45.7166 12.055 45.6796 11.8394 45.6025 11.6084H45.5624L45.6642 9.08281L45.6734 8.88877L45.8678 8.88261C47.8179 8.83333 49.046 9.26145 49.7433 10.0314C50.3851 10.7398 50.5702 11.7254 50.4561 12.8897C50.6196 12.7973 50.7831 12.7141 50.9467 12.6371C51.1565 12.5355 51.3663 12.4461 51.573 12.363L51.5854 12.1689V11.8301L51.5638 11.5037L51.5206 11.1895L51.4558 10.8877L51.3694 10.6012L51.2614 10.3271L51.1287 10.0684L50.9744 9.822L50.7955 9.58793L50.5918 9.36617L50.3604 9.15673L50.1012 8.95961L49.8112 8.77482L49.4903 8.60542L49.1385 8.45142L48.7528 8.31282L48.3332 8.18962L47.8796 8.0849L47.389 7.99866L46.8645 7.9309L46.3029 7.88162C45.8462 7.86006 45.4112 7.83235 44.9668 7.80155C44.5256 7.82927 44.0905 7.86006 43.6308 7.88162L43.0692 7.9309L42.5447 7.99866L42.0541 8.0849L41.6005 8.18962L41.1808 8.31282L40.7951 8.45142L40.4434 8.60542L40.1225 8.77482L39.8324 8.95961L39.5733 9.15673L39.3418 9.36617L39.1382 9.58793L38.9592 9.822L38.8049 10.0684L38.6723 10.3271L38.5643 10.6012L38.4779 10.8877L38.4131 11.1895L38.3699 11.5037L38.3483 11.8301V12.1689L38.3575 12.363C38.5643 12.4461 38.7741 12.5385 38.9839 12.6371C39.1474 12.7141 39.311 12.8003 39.4745 12.8897C39.3603 11.7254 39.5455 10.7398 40.1873 10.0314C40.8846 9.25837 42.1127 8.83333 44.0628 8.88261L44.2572 8.88877L44.2664 9.08281L44.3682 11.6084H44.3281C44.251 11.8394 44.214 12.0581 44.214 12.2613C44.214 12.4246 44.2386 12.5786 44.288 12.7203C44.5256 12.4985 44.7663 12.2798 44.9761 12.0919L44.9545 12.0889ZM44.9545 7.37651L45.2908 7.39499V5.60245H46.3708V4.68462H45.2908V3.68671H44.6213V4.68462H43.5413V5.60245H44.6213V7.39499L44.9576 7.37651H44.9545ZM49.9439 24.2301C50.2802 24.1038 50.6289 23.9529 50.9744 23.8051C51.5545 23.5525 52.1346 23.303 52.6437 23.1768C53.4213 22.9889 54.0538 23.109 54.2914 24.0638C54.4426 25.2557 53.8996 25.6407 53.1066 25.7454C52.6283 25.807 52.0513 25.7762 51.4774 25.7454C50.922 25.7146 50.3666 25.6838 49.8729 25.7362V25.6931L49.8791 25.6376V25.5822L49.8852 25.5268V25.4713L49.8914 25.4159V25.3604L49.8976 25.305V25.2496L49.9038 25.1941V25.1387L49.9099 25.0833V25.0278L49.9161 24.9724V24.9169L49.9223 24.8615V24.8061L49.9284 24.7506V24.6952L49.9346 24.6397V24.5843L49.9408 24.5289V24.4734L49.9469 24.418V24.3625L49.9531 24.3071V24.2517L49.9562 24.2085L49.9439 24.2301ZM49.299 26.8296C49.7526 25.9087 50.4406 26.1027 51.4527 26.1582C52.0451 26.192 52.6407 26.2228 53.159 26.1582C54.1526 26.0288 54.8499 25.5606 54.7142 24.1531L54.7481 24.1469C54.5445 23.1152 54.421 22.0864 54.3655 21.0577C54.347 20.7189 54.3377 20.3832 54.3316 20.0444L54.5074 20.0229L54.6833 20.0013L54.8592 19.9828L55.032 19.9674L55.2048 19.952L55.3776 19.9397L55.5473 19.9305L55.717 19.9243H55.8836L56.0502 19.9181H56.2137L56.3773 19.9212L56.5408 19.9274L56.7013 19.9366L56.8617 19.9489L57.0191 19.9643L57.1765 19.9828L57.3307 20.0044L57.4819 20.029L57.6331 20.0567L57.7812 20.0875L57.9293 20.1214L58.0744 20.1584L58.2194 20.1984L58.3613 20.2415L58.5032 20.2908L58.6421 20.3432L58.7809 20.3986L58.9167 20.4571L59.0494 20.5187L59.1821 20.5865L59.1944 20.6235L59.216 20.7066L59.2314 20.7929L59.2407 20.8822L59.2469 20.9746V21.0701V21.1717L59.2407 21.2764L59.2314 21.3842L59.2191 21.4951L59.2037 21.609L59.1882 21.7261L59.1697 21.8431L59.1512 21.9632L59.1296 22.0864L59.108 22.2127L59.0864 22.3421L59.0679 22.4714L59.0494 22.6039L59.034 22.7394L59.0216 22.878L59.0124 23.0166V23.1583L59.0093 23.303L59.0154 23.4478C59.071 24.0853 59.2253 24.7691 59.3209 25.3974C59.4135 26.0134 59.5369 26.6325 59.6758 27.2516C59.3981 27.076 59.0093 26.9128 58.4724 26.7649L58.4539 26.7588H58.4384C57.2783 26.6263 56.1736 26.6078 55.14 26.731C54.1865 26.8419 53.0634 27.036 52.1655 27.461L52.0883 27.4979L52.0143 27.5349L51.9402 27.5749L51.8662 27.615L51.7921 27.6581L51.7181 27.7012L51.644 27.7474L51.57 27.7936L51.4959 27.8398L51.4219 27.8891L51.3478 27.9384L51.2737 27.9907L51.1997 28.0431L51.1935 28.0493L51.1195 28.0677L50.9806 28.0924L50.8449 28.1078L50.7091 28.117H50.5764L50.4468 28.1078L50.3203 28.0924L50.1969 28.0677L50.0796 28.0369L49.9686 28L49.8636 27.9569L49.7649 27.9076L49.6723 27.8552L49.589 27.7967L49.515 27.7351L49.4502 27.6704L49.3946 27.6057L49.3453 27.538L49.3051 27.4702L49.2743 27.3994L49.2527 27.3286L49.2373 27.2546L49.2311 27.1776V27.0976L49.2465 27.0113L49.2712 26.9189L49.3082 26.8204L49.299 26.8296ZM60.2497 27.9137C60.046 27.0575 59.8609 26.1982 59.7282 25.3358C59.6912 25.0956 59.6603 24.8553 59.6326 24.6151L60.0399 24.6459L60.5212 24.6613L61.0026 24.6551L61.4808 24.6336L61.956 24.5966L62.4281 24.5473L62.9002 24.4888L63.3692 24.4211L63.8351 24.3471L64.301 24.2701L64.7639 24.1931L65.2236 24.1161L65.6834 24.0422L66.14 23.9745L66.5967 23.9129L67.0503 23.8605L67.5039 23.8205L67.9482 23.7958C67.9729 24.9015 67.9821 26.0072 67.9605 27.116C67.942 28.1478 67.9019 29.1858 67.8309 30.2237H67.8186L67.3372 30.1929L66.8497 30.1744L66.3591 30.1652H65.8623L65.3594 30.1775L64.8534 30.1991L64.3412 30.2299L63.8228 30.2699L63.3013 30.3192L62.7737 30.3808L62.2399 30.4516L61.703 30.5286L61.1599 30.6149L60.6138 30.7104L60.0615 30.8151L59.5091 30.929L59.2561 30.9783L59.0062 31.0276L58.7593 31.0738L58.5156 31.1169L58.2749 31.157L58.0373 31.1908L57.8028 31.2216L57.5714 31.2494L57.3462 31.2709L57.124 31.2863L56.9049 31.2986L56.692 31.3048H56.4853L56.2847 31.2956L56.0903 31.2832L55.9021 31.2617L55.7201 31.234L55.5442 31.2001L55.3745 31.157L55.214 31.1077L55.0597 31.0522L54.9116 30.9876L54.7728 30.9167L54.6401 30.8366L54.5136 30.7473L54.3963 30.6488L54.2853 30.541L54.1804 30.4239L54.0816 30.2946L53.9891 30.1529C53.6805 29.6108 54.0477 29.1457 54.637 28.9517C55.214 28.7607 56.0163 28.8285 56.9574 29.0564C57.0376 29.0903 57.1302 29.1242 57.2289 29.1611C58.0065 29.4537 58.639 29.5738 59.1204 29.5246C59.6542 29.4691 60.0121 29.2166 60.1972 28.7669C60.1972 28.7669 60.2034 28.7515 60.2127 28.7269V28.7145C60.2713 28.5421 60.3083 28.3696 60.3052 28.1971H60.3237C60.3145 28.1509 60.3052 28.1109 60.2929 28.0708C60.2836 28.0154 60.2713 27.9599 60.2528 27.9014L60.2497 27.9137ZM68.0963 30.2484L68.2969 30.2638L68.7659 30.313L68.8152 30.3192C68.8862 29.2843 68.9263 28.2495 68.9448 27.2177C68.9633 26.0781 68.9572 24.9385 68.9294 23.7958H68.8523L68.4049 23.7835H68.2135C68.2382 24.8985 68.2475 26.0072 68.2259 27.116C68.2074 28.1601 68.1673 29.2012 68.0963 30.2422V30.2484ZM69.0775 30.3562L69.2287 30.3777L69.6854 30.4516L69.7378 30.4609C69.8119 29.3952 69.8551 28.3357 69.8705 27.2762C69.889 26.1489 69.8828 25.0217 69.8551 23.8944L69.7409 23.8759L69.2966 23.8266L69.1886 23.8205C69.2164 24.957 69.2225 26.0935 69.204 27.23C69.1855 28.2772 69.1454 29.3213 69.0744 30.3623L69.0775 30.3562ZM70.0001 30.5071L70.1389 30.5317L70.5863 30.6272L70.7838 30.6765C70.8486 29.6755 70.8887 28.6807 70.9042 27.6858C70.9258 26.497 70.9134 25.305 70.8857 24.1131L70.6295 24.0422L70.1852 23.9437L70.1204 23.9344C70.1451 25.0494 70.1544 26.1643 70.1359 27.2793C70.1173 28.3573 70.0741 29.4352 70.0001 30.5102V30.5071ZM71.0461 30.7381L71.4627 30.852L71.7558 30.9414C71.8298 29.888 71.8699 28.8377 71.8885 27.7875C71.907 26.6818 71.9008 25.576 71.8761 24.4703L71.5213 24.3225L71.1541 24.1931C71.1819 25.3574 71.1911 26.5247 71.1726 27.6889C71.1541 28.7084 71.1171 29.7248 71.0492 30.7381H71.0461ZM72.015 31.0245L72.3112 31.1231L72.7247 31.2771L72.8018 31.3079C72.8666 30.3223 72.9036 29.3367 72.919 28.3542C72.9376 27.2423 72.9314 26.1304 72.9036 25.0186L72.8542 24.9878L72.4068 24.7291L72.1353 24.5935C72.1569 25.6592 72.1631 26.7249 72.1446 27.7905C72.126 28.8716 72.0829 29.9496 72.0088 31.0214L72.015 31.0245ZM73.0579 31.4126L73.135 31.4434L73.5362 31.622L73.9311 31.813L74.0761 31.89V25.8871L73.7583 25.6222L73.3047 25.2834L73.169 25.1941C73.1906 26.2475 73.1967 27.3039 73.1782 28.3603C73.1597 29.3798 73.1227 30.3993 73.0548 31.4157L73.0579 31.4126ZM54.0292 27.3501L54.0168 27.5441L54.0014 27.7844L53.9952 27.8645L53.9798 28.1047L53.9736 28.1848L53.9582 28.425L53.952 28.5051L53.9428 28.6653L53.9366 28.7453L53.9304 28.8254V28.8716C54.094 28.7392 54.2853 28.6375 54.5043 28.5636C55.1677 28.3449 56.0502 28.4127 57.0685 28.6622H57.087L57.0993 28.6714C57.2042 28.7145 57.2937 28.7484 57.3708 28.7792C58.0898 29.0472 58.6575 29.1611 59.0772 29.118C59.4444 29.0811 59.6912 28.9117 59.8115 28.616C59.8177 28.6037 59.8177 28.5975 59.8208 28.5944C59.8732 28.4219 59.9041 28.2495 59.8702 28.0893V28.077C59.8486 28.0092 59.8208 27.9415 59.7745 27.8799C59.5955 27.6304 59.1882 27.3901 58.3798 27.1653C57.2567 27.039 56.1891 27.0236 55.1893 27.1407C54.7913 27.1869 54.4056 27.2546 54.0292 27.347V27.3501ZM39.9682 24.2301V24.2732L39.9713 24.3287V24.3841L39.9775 24.4395V24.495L39.9836 24.5504V24.6059L39.9898 24.6613V24.7167L39.996 24.7722V24.8276L40.0021 24.8831V24.9385L40.0083 24.9939V25.0494L40.0145 25.1048V25.1603L40.0207 25.2157V25.2711L40.0268 25.3266V25.382L40.033 25.4374V25.4929L40.0392 25.5483V25.6038L40.0453 25.6592V25.7146L40.0515 25.7578C39.5578 25.7054 39.0024 25.7362 38.447 25.767C37.8731 25.7978 37.2961 25.8317 36.8178 25.767C36.0279 25.6654 35.4818 25.2773 35.633 24.0853C35.8706 23.1306 36.5031 23.0074 37.2807 23.1983C37.7929 23.3215 38.3699 23.5741 38.95 23.8266C39.2956 23.9775 39.6442 24.1285 39.9806 24.2517L39.9682 24.2301ZM40.6131 26.8296L40.6501 26.9282L40.6748 27.0206L40.6871 27.1068V27.1869V27.2639L40.6717 27.3378L40.6501 27.4086L40.6193 27.4795L40.5791 27.5472L40.5298 27.615L40.4742 27.6797L40.4094 27.7443L40.3354 27.8059L40.2521 27.8645L40.1595 27.9168L40.0608 27.9661L39.9559 28.0092L39.8448 28.0462L39.7275 28.077L39.6041 28.1016L39.4776 28.117L39.348 28.1263H39.2153L39.0796 28.1201L38.9438 28.1047L38.8049 28.0801L38.7309 28.0616L38.7247 28.0554L38.6507 28.0031L38.5766 27.9507L38.5026 27.9014L38.4285 27.8521L38.3545 27.8059L38.2804 27.7597L38.2063 27.7135L38.1323 27.6704L38.0582 27.6273L37.9842 27.5873L37.9101 27.5472L37.8361 27.5103L37.7589 27.4733C36.861 27.0514 35.7379 26.8573 34.7844 26.7434C33.7477 26.6202 32.6461 26.6386 31.486 26.768H31.4705L31.452 26.7742C30.9151 26.922 30.5264 27.0852 30.2487 27.2608C30.3875 26.6417 30.5078 26.0226 30.6035 25.4066C30.6991 24.7783 30.8534 24.0946 30.909 23.457L30.9151 23.3123V23.1675L30.912 23.0258L30.9028 22.8872L30.8904 22.7486L30.875 22.6131L30.8565 22.4807L30.838 22.3513L30.8164 22.222L30.7948 22.0957L30.7732 21.9725L30.7547 21.8524L30.7362 21.7353L30.7207 21.6183L30.7053 21.5043L30.693 21.3934L30.6837 21.2857L30.6775 21.1809V21.0793V20.9838L30.6837 20.8914L30.693 20.8021L30.7084 20.7159L30.73 20.6327L30.7423 20.5957L30.875 20.528L31.0077 20.4664L31.1435 20.4079L31.2823 20.3524L31.4212 20.3001L31.5631 20.2508L31.705 20.2077L31.8501 20.1676L31.9951 20.1307L32.1432 20.0968L32.2913 20.066L32.4425 20.0383L32.5937 20.0136L32.748 19.9921L32.9053 19.9736L33.0627 19.9582L33.2231 19.9459L33.3836 19.9366L33.5471 19.9305H33.7107L33.8742 19.9274H34.0408L34.2074 19.9335L34.3771 19.9397L34.5469 19.9489L34.7196 19.9613L34.8924 19.9767L35.0652 19.9921L35.2411 20.0105L35.417 20.0321L35.5929 20.0537C35.5898 20.3925 35.5774 20.7282 35.5589 21.067C35.5034 22.0957 35.38 23.1244 35.1763 24.1562L35.2103 24.1623C35.0745 25.5699 35.7687 26.038 36.7654 26.1674C37.2838 26.2352 37.8793 26.2013 38.4717 26.1674C39.4838 26.112 40.1719 25.921 40.6254 26.8388L40.6131 26.8296ZM29.6624 27.9137C29.6439 27.9692 29.6315 28.0246 29.6223 28.0831C29.613 28.1232 29.6038 28.1663 29.5914 28.2063H29.6099C29.6069 28.3819 29.6439 28.5544 29.6963 28.7269V28.7392C29.7087 28.7638 29.7148 28.7761 29.7148 28.7792C29.9 29.2289 30.2579 29.4814 30.7917 29.5369C31.2731 29.5862 31.9056 29.466 32.6832 29.1735C32.7819 29.1365 32.8745 29.0995 32.9547 29.0687C33.8958 28.8408 34.698 28.7731 35.275 28.964C35.8644 29.1581 36.2316 29.6231 35.923 30.1652L35.8305 30.3069L35.7317 30.4362L35.6268 30.5533L35.5157 30.6611L35.3985 30.7596L35.272 30.849L35.1393 30.929L35.0004 30.9999L34.8523 31.0646L34.698 31.12L34.5376 31.1693L34.3679 31.2124L34.192 31.2463L34.01 31.274L33.8217 31.2956L33.6274 31.3079L33.4268 31.314H33.2201L33.0072 31.311L32.7881 31.2986L32.5659 31.2832L32.3407 31.2617L32.1093 31.234L31.8747 31.2032L31.6372 31.1693L31.3965 31.1292L31.1527 31.0861L30.9059 31.0399L30.6559 30.9906L30.4029 30.9414L29.8506 30.8274L29.2983 30.7227L28.7521 30.6272L28.2091 30.541L27.6722 30.464L27.1384 30.3931L26.6108 30.3315L26.0893 30.2822L25.5709 30.2422L25.0587 30.2114L24.5527 30.1898L24.0497 30.1775H23.553L23.0623 30.1837L22.5748 30.2022L22.0935 30.2299H22.0811C22.0102 29.1919 21.9701 28.1571 21.9515 27.1222C21.933 26.0165 21.9392 24.9108 21.9639 23.802L22.4082 23.8266L22.8618 23.8667L23.3154 23.919L23.772 23.9806L24.2287 24.0484L24.6884 24.1223L25.1482 24.1993L25.611 24.2763L26.077 24.3533L26.5429 24.4272L27.0119 24.495L27.484 24.5535L27.9561 24.6028L28.4312 24.6397L28.9095 24.6613L29.3909 24.6675L29.8722 24.6521L30.2795 24.6213C30.2517 24.8615 30.2209 25.1017 30.1839 25.342C30.0543 26.2044 29.866 27.0606 29.6624 27.9199V27.9137ZM21.8158 30.2484L21.6152 30.2638L21.1462 30.313L21.0968 30.3192C21.0259 29.2843 20.9858 28.2495 20.9672 27.2177C20.9487 26.0781 20.9549 24.9385 20.9827 23.7958H21.0598L21.5072 23.7835H21.7016C21.6769 24.8985 21.6677 26.0072 21.6893 27.116C21.7078 28.1601 21.7479 29.2012 21.8189 30.2422L21.8158 30.2484ZM20.8346 30.3562L20.6834 30.3777L20.2267 30.4516L20.1743 30.4609C20.1002 29.3952 20.057 28.3357 20.0416 27.2762C20.0231 26.1489 20.0292 25.0217 20.057 23.8944L20.1712 23.8759L20.6155 23.8266L20.7235 23.8205C20.6957 24.957 20.6895 26.0935 20.7081 27.23C20.7266 28.2772 20.7667 29.3213 20.8377 30.3623L20.8346 30.3562ZM19.912 30.5071L19.7731 30.5317L19.3257 30.6272L19.1282 30.6765C19.0634 29.6755 19.0233 28.6807 19.0079 27.6858C18.9863 26.497 18.9987 25.305 19.0264 24.1131L19.2825 24.0422L19.7268 23.9437L19.7916 23.9344C19.767 25.0494 19.7577 26.1643 19.7762 27.2793C19.7947 28.3573 19.8379 29.4352 19.912 30.5102V30.5071ZM18.866 30.7381L18.4494 30.852L18.1563 30.9414C18.0822 29.888 18.0421 28.8377 18.0236 27.7875C18.0051 26.6818 18.0113 25.576 18.036 24.4703L18.3908 24.3225L18.758 24.1931C18.7302 25.3574 18.7209 26.5247 18.7395 27.6889C18.758 28.7084 18.795 29.7248 18.8629 30.7381H18.866ZM17.8971 31.0245L17.6009 31.1231L17.1874 31.2771L17.1103 31.3079C17.0455 30.3223 17.0085 29.3367 16.993 28.3542C16.9745 27.2423 16.9807 26.1304 17.0085 25.0186L17.0578 24.9878L17.5052 24.7291L17.7768 24.5935C17.7552 25.6592 17.749 26.7249 17.7675 27.7905C17.786 28.8716 17.8292 29.9496 17.9033 31.0214L17.8971 31.0245ZM16.8542 31.4126L16.777 31.4434L16.3759 31.622L15.981 31.813L15.8359 31.89V25.8871L16.1538 25.6222L16.6073 25.2834L16.7431 25.1941C16.7215 26.2475 16.7153 27.3039 16.7338 28.3603C16.7524 29.3798 16.7894 30.3993 16.8573 31.4157L16.8542 31.4126ZM35.8829 27.3501C35.5065 27.2577 35.1208 27.19 34.7227 27.1438C33.723 27.0267 32.6554 27.0421 31.5322 27.1684C30.7238 27.3932 30.3165 27.6335 30.1376 27.8829C30.0913 27.9476 30.0635 28.0123 30.045 28.0801V28.0924C30.0049 28.2525 30.0357 28.4219 30.0913 28.5975C30.0913 28.6006 30.0944 28.6067 30.1005 28.6191C30.2209 28.9178 30.4677 29.0841 30.8349 29.1211C31.2545 29.1642 31.8223 29.0533 32.5412 28.7823C32.6184 28.7546 32.7079 28.7176 32.8128 28.6745H32.822L32.8405 28.6653C33.8619 28.4158 34.7443 28.348 35.4046 28.5667C35.6237 28.6375 35.815 28.7392 35.9816 28.8747V28.8285L35.9724 28.7484L35.9662 28.6683L35.957 28.5082L35.9508 28.4281L35.9354 28.1879L35.9292 28.1078L35.9138 27.8675L35.9076 27.7875L35.8922 27.5472L35.8798 27.3532L35.8829 27.3501Z" fill="#FFED00"/>
<path id="Vector_5" fill-rule="evenodd" clip-rule="evenodd" d="M43.9285 11.439L43.839 9.2861C42.1358 9.2707 41.0682 9.64338 40.4727 10.3025C39.8772 10.9585 39.7383 11.9226 39.8926 13.0775C40.0777 13.1884 40.2505 13.3085 40.411 13.4441C40.5992 13.6011 40.772 13.7736 40.9263 13.9646C41.7007 14.9101 42.0864 16.2715 42.0741 18.0517H42.8486C42.8486 17.987 42.8486 17.9193 42.8486 17.8546C42.8393 16.6719 42.8331 15.677 42.8949 14.8239C42.9535 14.0015 43.3793 13.5149 43.7434 13.1022C43.7989 13.0375 43.8545 12.9759 43.9038 12.9174C43.8205 12.7079 43.7804 12.4862 43.7804 12.2552C43.7804 11.9996 43.8298 11.7285 43.9285 11.4421V11.439ZM45.9835 11.439L46.073 9.2861C47.7762 9.2707 48.8438 9.64338 49.4394 10.3025C50.0349 10.9585 50.1737 11.9226 50.0225 13.0775C49.8374 13.1884 49.6646 13.3085 49.5042 13.4441C49.3159 13.6011 49.1431 13.7736 48.9889 13.9646C48.2144 14.9101 47.8287 16.2715 47.841 18.0517H47.0666C47.0666 17.987 47.0666 17.9193 47.0666 17.8546C47.0758 16.6719 47.082 15.677 47.0203 14.8239C46.9616 14.0015 46.5358 13.5149 46.1717 13.1022C46.1162 13.0375 46.0607 12.9759 46.0113 12.9174C46.0946 12.7079 46.1347 12.4862 46.1347 12.2552C46.1347 11.9996 46.0853 11.7285 45.9866 11.4421L45.9835 11.439ZM64.3211 24.6613C64.0958 24.6613 63.9107 24.8461 63.9107 25.0709C63.9107 25.0925 63.9107 25.1171 63.9169 25.1387C63.7163 25.1664 63.5651 25.3389 63.5651 25.5453C63.5651 25.7701 63.7503 25.9549 63.9755 25.9549C63.9971 25.9549 64.0187 25.9549 64.0372 25.9487V26.9466L63.164 27.0298C63.1671 27.0082 63.1702 26.9867 63.1702 26.9651C63.1702 26.7403 62.985 26.574 62.7598 26.5955C62.553 26.614 62.3803 26.7834 62.3525 26.9867C62.3309 26.9867 62.3093 26.9867 62.2846 26.9867C62.0594 27.0082 61.8742 27.2084 61.8742 27.4364C61.8742 27.6643 62.0594 27.8275 62.2846 27.806C62.3 27.806 62.3124 27.8029 62.3278 27.7998C62.371 27.9784 62.5314 28.0986 62.7289 28.0801C62.9542 28.0585 63.1393 27.8583 63.1393 27.6304C63.1393 27.5965 63.1362 27.5657 63.127 27.538L64.0372 27.4518V28.2279C64.0156 28.2248 63.9971 28.2218 63.9755 28.2218C63.7503 28.2218 63.5651 28.4066 63.5651 28.6314C63.5651 28.8377 63.7194 29.0102 63.9169 29.0379C63.9138 29.0595 63.9107 29.0811 63.9107 29.1057C63.9107 29.3305 64.0958 29.5153 64.3211 29.5153C64.5463 29.5153 64.7315 29.3305 64.7315 29.1057C64.7315 29.0903 64.7315 29.078 64.7315 29.0626C64.9135 29.0195 65.0493 28.8593 65.0493 28.6622C65.0493 28.4374 64.8641 28.2526 64.6389 28.2526C64.605 28.2526 64.5741 28.2556 64.5432 28.2649V27.4025L65.4843 27.3132C65.4782 27.344 65.472 27.3748 65.472 27.4086C65.472 27.6335 65.6571 27.7998 65.8824 27.7782C66.0768 27.7598 66.2403 27.6088 66.2835 27.424C66.2958 27.424 66.3113 27.424 66.3267 27.424C66.5519 27.4025 66.7371 27.2023 66.7371 26.9744C66.7371 26.7465 66.5519 26.5832 66.3267 26.6048C66.3051 26.6048 66.2804 26.6109 66.2588 26.6171C66.231 26.42 66.0583 26.2845 65.8515 26.3029C65.6263 26.3245 65.4411 26.5247 65.4411 26.7526C65.4411 26.7742 65.4411 26.7957 65.4473 26.8142L64.5432 26.9004V25.9118C64.5741 25.9179 64.605 25.9241 64.6389 25.9241C64.8641 25.9241 65.0493 25.7393 65.0493 25.5145C65.0493 25.3204 64.9135 25.1572 64.7315 25.1141C64.7315 25.1017 64.7315 25.0863 64.7315 25.0709C64.7315 24.8461 64.5463 24.6613 64.3211 24.6613ZM58.9244 23.2599C58.9244 23.0351 58.7701 22.8441 58.5819 22.8349C58.5634 22.8349 58.5449 22.8349 58.5264 22.8349C58.5017 22.6347 58.3598 22.4745 58.187 22.4684C57.9957 22.4591 57.8445 22.6378 57.8445 22.8626C57.8445 22.8842 57.8445 22.9057 57.8475 22.9242L57.1286 22.8934V22.0156C57.1595 22.0218 57.1903 22.0249 57.2243 22.0249C57.4495 22.0249 57.6346 21.8493 57.6346 21.6306C57.6346 21.4427 57.4989 21.2887 57.3168 21.2487C57.3168 21.2364 57.3168 21.221 57.3168 21.2087C57.3168 20.99 57.1317 20.8144 56.9064 20.8144C56.6812 20.8144 56.4961 20.99 56.4961 21.2087C56.4961 21.2302 56.4961 21.2518 56.5022 21.2733C56.3017 21.3011 56.1505 21.4643 56.1505 21.6645C56.1505 21.8832 56.3356 22.0587 56.5609 22.0587C56.5825 22.0587 56.6041 22.0587 56.6226 22.0557V22.8749L55.9345 22.8441C55.9345 22.8226 55.9376 22.8041 55.9376 22.7825C55.9376 22.5577 55.7833 22.3667 55.5951 22.3575C55.4223 22.3513 55.2773 22.4961 55.2557 22.6932C55.2372 22.6901 55.2186 22.687 55.2001 22.684C55.0088 22.6747 54.8576 22.8534 54.8576 23.0782C54.8576 23.303 55.0119 23.494 55.2001 23.5032C55.2125 23.5032 55.2248 23.5032 55.2341 23.5032C55.268 23.685 55.4069 23.8266 55.5704 23.8359C55.7617 23.8451 55.9129 23.6665 55.9129 23.4416C55.9129 23.4078 55.9098 23.377 55.9036 23.3462L56.6226 23.377V24.2424C56.601 24.2424 56.5825 24.2363 56.5609 24.2363C56.3356 24.2363 56.1505 24.4118 56.1505 24.6305C56.1505 24.8276 56.3048 24.9939 56.5022 25.0217C56.4992 25.0432 56.4961 25.0648 56.4961 25.0863C56.4961 25.305 56.6812 25.4806 56.9064 25.4806C57.1317 25.4806 57.3168 25.305 57.3168 25.0863C57.3168 25.074 57.3168 25.0586 57.3168 25.0463C57.4989 25.0063 57.6346 24.8492 57.6346 24.6644C57.6346 24.4457 57.4495 24.2702 57.2243 24.2702C57.1903 24.2702 57.1595 24.2732 57.1286 24.2794V23.4016L57.8784 23.4355C57.8722 23.4663 57.8691 23.4971 57.8691 23.531C57.8691 23.7558 58.0234 23.9468 58.2116 23.956C58.3752 23.9622 58.5109 23.8328 58.548 23.6542C58.5603 23.6542 58.5727 23.6572 58.5819 23.6572C58.7701 23.6665 58.9244 23.4878 58.9244 23.263V23.2599ZM25.5879 24.6613C25.8131 24.6613 25.9983 24.8461 25.9983 25.0709C25.9983 25.0925 25.9983 25.1171 25.9921 25.1387C26.1927 25.1664 26.3438 25.3389 26.3438 25.5453C26.3438 25.7701 26.1587 25.9549 25.9335 25.9549C25.9119 25.9549 25.8903 25.9549 25.8718 25.9487V26.9466L26.745 27.0298C26.7419 27.0082 26.7388 26.9867 26.7388 26.9651C26.7388 26.7403 26.9239 26.574 27.1492 26.5955C27.3559 26.614 27.5287 26.7834 27.5565 26.9867C27.5781 26.9867 27.5997 26.9867 27.6244 26.9867C27.8496 27.0082 28.0347 27.2084 28.0347 27.4364C28.0347 27.6643 27.8496 27.8275 27.6244 27.806C27.6089 27.806 27.5966 27.8029 27.5812 27.7998C27.538 27.9784 27.3775 28.0986 27.18 28.0801C26.9548 28.0585 26.7697 27.8583 26.7697 27.6304C26.7697 27.5965 26.7727 27.5657 26.782 27.538L25.8718 27.4518V28.2279C25.8934 28.2248 25.9119 28.2218 25.9335 28.2218C26.1587 28.2218 26.3438 28.4066 26.3438 28.6314C26.3438 28.8377 26.1896 29.0102 25.9921 29.0379C25.9952 29.0595 25.9983 29.0811 25.9983 29.1057C25.9983 29.3305 25.8131 29.5153 25.5879 29.5153C25.3626 29.5153 25.1775 29.3305 25.1775 29.1057C25.1775 29.0903 25.1775 29.078 25.1775 29.0626C24.9954 29.0195 24.8597 28.8593 24.8597 28.6622C24.8597 28.4374 25.0448 28.2526 25.2701 28.2526C25.304 28.2526 25.3349 28.2556 25.3657 28.2649V27.4025L24.4246 27.3132C24.4308 27.344 24.437 27.3748 24.437 27.4086C24.437 27.6335 24.2518 27.7998 24.0266 27.7782C23.8322 27.7598 23.6687 27.6088 23.6255 27.424C23.6131 27.424 23.5977 27.424 23.5823 27.424C23.357 27.4025 23.1719 27.2023 23.1719 26.9744C23.1719 26.7465 23.357 26.5832 23.5823 26.6048C23.6039 26.6048 23.6285 26.6109 23.6501 26.6171C23.6779 26.42 23.8507 26.2845 24.0574 26.3029C24.2827 26.3245 24.4678 26.5247 24.4678 26.7526C24.4678 26.7742 24.4678 26.7957 24.4616 26.8142L25.3657 26.9004V25.9118C25.3349 25.9179 25.304 25.9241 25.2701 25.9241C25.0448 25.9241 24.8597 25.7393 24.8597 25.5145C24.8597 25.3204 24.9954 25.1572 25.1775 25.1141C25.1775 25.1017 25.1775 25.0863 25.1775 25.0709C25.1775 24.8461 25.3626 24.6613 25.5879 24.6613ZM30.9845 23.2599C30.9845 23.0351 31.1388 22.8441 31.327 22.8349C31.3456 22.8349 31.3641 22.8349 31.3826 22.8349C31.4073 22.6347 31.5492 22.4745 31.722 22.4684C31.9133 22.4591 32.0645 22.6378 32.0645 22.8626C32.0645 22.8842 32.0645 22.9057 32.0614 22.9242L32.7804 22.8934V22.0156C32.7495 22.0218 32.7186 22.0249 32.6847 22.0249C32.4595 22.0249 32.2743 21.8493 32.2743 21.6306C32.2743 21.4427 32.4101 21.2887 32.5921 21.2487C32.5921 21.2364 32.5921 21.221 32.5921 21.2087C32.5921 20.99 32.7773 20.8144 33.0025 20.8144C33.2278 20.8144 33.4129 20.99 33.4129 21.2087C33.4129 21.2302 33.4129 21.2518 33.4067 21.2733C33.6073 21.3011 33.7585 21.4643 33.7585 21.6645C33.7585 21.8832 33.5733 22.0587 33.3481 22.0587C33.3265 22.0587 33.3049 22.0587 33.2864 22.0557V22.8749L33.9745 22.8441C33.9745 22.8226 33.9714 22.8041 33.9714 22.7825C33.9714 22.5577 34.1257 22.3667 34.3139 22.3575C34.4867 22.3513 34.6317 22.4961 34.6533 22.6932C34.6718 22.6901 34.6903 22.687 34.7088 22.684C34.9001 22.6747 35.0513 22.8534 35.0513 23.0782C35.0513 23.303 34.8971 23.494 34.7088 23.5032C34.6965 23.5032 34.6842 23.5032 34.6749 23.5032C34.641 23.685 34.5021 23.8266 34.3386 23.8359C34.1473 23.8451 33.9961 23.6665 33.9961 23.4416C33.9961 23.4078 33.9992 23.377 34.0053 23.3462L33.2864 23.377V24.2424C33.308 24.2424 33.3265 24.2363 33.3481 24.2363C33.5733 24.2363 33.7585 24.4118 33.7585 24.6305C33.7585 24.8276 33.6042 24.9939 33.4067 25.0217C33.4098 25.0432 33.4129 25.0648 33.4129 25.0863C33.4129 25.305 33.2278 25.4806 33.0025 25.4806C32.7773 25.4806 32.5921 25.305 32.5921 25.0863C32.5921 25.074 32.5921 25.0586 32.5921 25.0463C32.4101 25.0063 32.2743 24.8492 32.2743 24.6644C32.2743 24.4457 32.4595 24.2702 32.6847 24.2702C32.7186 24.2702 32.7495 24.2732 32.7804 24.2794V23.4016L32.0306 23.4355C32.0367 23.4663 32.0398 23.4971 32.0398 23.531C32.0398 23.7558 31.8855 23.9468 31.6973 23.956C31.5338 23.9622 31.398 23.8328 31.361 23.6542C31.3486 23.6542 31.3363 23.6572 31.327 23.6572C31.1388 23.6665 30.9845 23.4878 30.9845 23.263V23.2599Z" fill="#E31E24"/>
<path id="Vector_6" fill-rule="evenodd" clip-rule="evenodd" d="M20.1373 63.4813C23.9943 72.2068 34.3896 77.0793 44.8867 77.1656C55.3838 77.0793 65.7761 72.2037 69.6361 63.4813H51.4251C51.5084 58.233 51.7645 54.2598 53.2795 52.0669C54.0601 50.9365 55.0136 50.6963 55.8529 51.8667C57.0408 53.5237 57.1704 56.3018 57.3802 61.2483H58.4386C58.3984 55.8861 57.985 50.8657 56.2478 48.6512C55.2758 47.41 54.1589 47.2129 53.1036 48.3771C51.1875 50.4961 50.2772 56.4497 50.0952 63.4843H48.7684C48.8486 56.1324 49.9903 48.8483 52.4865 45.8731C53.7485 44.367 55.2975 44.0467 56.6551 45.6051C58.6823 47.9336 59.7314 53.8348 60.04 61.2514H61.0335C61.0243 53.6962 60.438 46.4613 57.479 43.3567C55.9022 41.6997 54.0941 41.4379 52.3847 42.9933C49.2405 45.8546 47.7717 53.9549 47.5033 63.4874H46.1857C46.2721 54.2413 47.9476 45.023 51.6503 41.2808C53.5078 39.4051 55.7819 39.0047 57.7752 40.9451C60.8422 43.9296 62.385 51.6295 62.7861 61.2514H64.2117C64.2456 51.5495 63.4619 42.1247 58.9909 38.1393C56.6767 36.0757 54.0169 35.7492 51.5053 37.6865C51.3633 37.7974 51.2214 37.9144 51.0826 38.0376C49.944 32.4844 47.4478 29.7494 44.8806 29.6848C42.3164 29.7494 39.8171 32.4844 38.6786 38.0376C38.5397 37.9144 38.4009 37.7974 38.2558 37.6865C35.7442 35.7492 33.0875 36.0757 30.7702 38.1393C26.2992 42.1217 25.5155 51.5464 25.5494 61.2514H26.975C27.3761 51.6295 28.922 43.9296 31.9859 40.9451C33.9823 39.0017 36.2564 39.4021 38.1108 41.2808C41.8135 45.023 43.489 54.2413 43.5754 63.4874H42.2578C41.9894 53.9549 40.5206 45.8546 37.3764 42.9933C35.667 41.4379 33.8589 41.7028 32.2822 43.3567C29.3262 46.4644 28.7368 53.6993 28.7276 61.2514H29.7211C30.0297 53.8348 31.0788 47.9336 33.106 45.6051C34.4637 44.0467 36.0126 44.367 37.2746 45.8731C39.7708 48.8483 40.9125 56.1355 40.9927 63.4843H39.6659C39.4839 56.4497 38.5736 50.4992 36.6575 48.3771C35.6022 47.2098 34.4853 47.4069 33.5133 48.6512C31.7761 50.8688 31.3627 55.8891 31.3225 61.2483H32.3809C32.5907 56.3018 32.7203 53.5237 33.9083 51.8667C34.7475 50.6963 35.701 50.9396 36.4816 52.0669C37.9966 54.2598 38.2527 58.233 38.3361 63.4813H20.125H20.1373ZM44.8867 55.4395C44.5072 52.1223 43.9487 49.0762 43.1897 46.4367C43.5754 44.7858 44.2048 43.8619 44.8867 43.6432C45.5686 43.8619 46.2012 44.7828 46.5838 46.4367C45.8247 49.0762 45.2663 52.1254 44.8867 55.4395ZM44.8867 41.0899C43.9672 41.1884 43.0786 42.2171 42.4707 44.2253C42.2239 43.5569 41.9616 42.9225 41.6839 42.3249C42.3257 39.8209 43.5784 38.5766 44.8867 38.5181C46.195 38.5797 47.4478 39.8209 48.0896 42.3249C47.8119 42.9225 47.5496 43.5569 47.3027 44.2253C46.6949 42.2171 45.8062 41.1884 44.8867 41.0899ZM44.8867 35.6599C43.273 35.7554 41.7086 37.397 40.7983 40.6525C40.57 40.2737 40.3324 39.9164 40.0887 39.5838C40.8508 35.4135 42.8286 33.3992 44.8898 33.3838C46.951 33.3961 48.9257 35.4135 49.691 39.5838C49.4441 39.9164 49.2096 40.2737 48.9813 40.6525C48.071 37.397 46.5067 35.7585 44.8929 35.6599H44.8867Z" fill="#2B2A29"/>
<path id="Vector_7" fill-rule="evenodd" clip-rule="evenodd" d="M44.88 60.2565L44.8615 59.9393L44.8214 59.3603L44.7782 58.7843L44.7319 58.2145L44.6826 57.6478L44.6301 57.0842L44.5746 56.5267L44.5159 55.9723L44.4542 55.4241L44.3894 54.882L44.3215 54.343L44.2506 53.8102L44.1765 53.2835L44.0994 52.763L44.0192 52.2455L43.9358 51.7343L43.8494 51.2291L43.7569 50.7302L43.6612 50.2374L43.5625 49.7508L43.4607 49.2734L43.3558 48.8021L43.2478 48.337L43.1367 47.8781L43.0225 47.4285L42.9022 46.9849C42.5443 45.7068 42.4764 45.4665 42.0475 44.3054L42.0259 44.2438L42.0043 44.1822L41.9827 44.1206L41.9611 44.059L41.9364 43.9974L41.9117 43.9358L41.887 43.8742L41.8623 43.8157L41.8377 43.7571L41.813 43.6986L41.7883 43.6401L41.7636 43.5816L41.7389 43.5231L41.7142 43.4645L41.6895 43.406L41.6649 43.3475L41.6402 43.289L41.6155 43.2305L41.5908 43.1719C41.2113 42.2818 40.8873 41.6289 40.4029 40.8281L40.3936 40.8158C39.5543 39.5561 38.4404 38.1885 37.0982 37.4216L36.8761 37.3077L36.6539 37.206L36.4317 37.1167L36.2096 37.0397L35.9905 36.972L35.7714 36.9165L35.5523 36.8734L35.3333 36.8395L35.1142 36.818L34.8951 36.8087H34.676L34.457 36.821L34.241 36.8426L34.025 36.8765L33.809 36.9196L33.593 36.975L33.377 37.0397L33.161 37.1136L32.945 37.1999L32.729 37.2954L32.5131 37.4032L32.3001 37.5202L32.0872 37.6496L31.8743 37.7882L31.6614 37.936L31.4516 38.0962L31.2418 38.2655L31.0351 38.4442L30.6432 38.8169L30.2729 39.2173L29.9212 39.6485L29.5879 40.1104L29.2732 40.6002L28.9739 41.1176L28.6931 41.6628L28.4278 42.2325L28.1778 42.827L27.9464 43.4461L27.7304 44.0898L27.5299 44.755L27.3416 45.4419L27.1688 46.1503L27.0084 46.8771L26.8634 47.6225L26.7307 48.3863L26.6104 49.1656L26.5024 49.9602L26.4067 50.7702L26.3203 51.5926L26.2432 52.4272L26.1784 53.2742L26.1228 54.1305L26.0765 54.9959L26.0364 55.8707L26.0056 56.7546L25.9809 57.6447L25.9655 58.541L25.9562 59.4403V60.3428L25.9531 60.8386H26.5702L26.5918 60.3335L26.6412 59.4465L26.6967 58.5718L26.7585 57.7094L26.8263 56.8593L26.9035 56.0216L26.9868 55.1992L27.0763 54.3923L27.175 53.6007L27.2799 52.8246L27.391 52.0638L27.5113 51.3185L27.6378 50.5916L27.7736 49.8832L27.9155 49.1902L28.0667 48.5157L28.2272 47.8627L28.3938 47.2283L28.5697 46.6123L28.7548 46.0178L28.9461 45.445L29.1467 44.8936L29.3565 44.3639L29.5756 43.8557L29.8039 43.3691L30.0415 42.9071L30.2884 42.4697L30.5475 42.0539L30.816 41.6628L31.0937 41.2993L31.3837 40.9605L31.683 40.6494L31.8867 40.4616L32.0903 40.2891L32.2971 40.1289L32.5069 39.9811L32.7167 39.8487L32.9296 39.7285L33.1456 39.6238L33.3616 39.5314L33.5807 39.4513L33.7997 39.3867L34.0188 39.3343L34.241 39.2943L34.4631 39.2696L34.6853 39.2573H34.9075L35.1296 39.2696L35.3487 39.2943L35.5678 39.3312L35.7838 39.3805L35.9998 39.4421L36.2127 39.516L36.4225 39.5992L36.6323 39.6947L36.839 39.7994L37.0427 39.9133L37.2432 40.0396L37.4438 40.1751L37.6413 40.3199L37.8357 40.4739L38.027 40.6371L38.2152 40.8096L38.4034 40.9913L38.7583 41.3732L39.1008 41.789L39.4309 42.2325L39.7487 42.7069L40.0511 43.2058L40.3412 43.7325L40.6189 44.2838L40.8842 44.8598L41.1372 45.4604L41.3779 46.0825L41.6093 46.7262L41.8284 47.3884L42.0351 48.0722L42.2326 48.7744L42.4177 49.4951L42.5936 50.2312L42.7572 50.9827L42.9114 51.7497L43.0534 52.5289L43.1861 53.3204L43.3064 54.1243L43.4175 54.9405L43.5193 55.7659L43.6088 56.6006L43.689 57.4445L43.76 58.2946L43.8217 59.1508L43.8741 60.0101L43.9142 60.8756L43.9451 61.7442L43.9667 62.6127L43.979 63.5244H45.7502L45.7625 62.6127L45.7841 61.7442L45.815 60.8756L45.8551 60.0101L45.9075 59.1508L45.9692 58.2946L46.0402 57.4445L46.1204 56.6006L46.2099 55.7659L46.3117 54.9405L46.4228 54.1243L46.5432 53.3204L46.6758 52.5289L46.8178 51.7497L46.9721 50.9827L47.1356 50.2312L47.3115 49.4951L47.4966 48.7744L47.6941 48.0722L47.9008 47.3884L48.1199 46.7262L48.3513 46.0825L48.592 45.4604L48.845 44.8598L49.1104 44.2838L49.3881 43.7325L49.6781 43.2058L49.9805 42.7069L50.2983 42.2325L50.6285 41.789L50.971 41.3732L51.3258 40.9913L51.514 40.8096L51.7022 40.6371L51.8935 40.4739L52.0879 40.3199L52.2854 40.1751L52.486 40.0396L52.6865 39.9133L52.8902 39.7994L53.0969 39.6947L53.3067 39.5992L53.5166 39.516L53.7295 39.4421L53.9454 39.3805L54.1614 39.3312L54.3805 39.2943L54.5996 39.2696L54.8217 39.2573H55.0439L55.2661 39.2696L55.4882 39.2943L55.7104 39.3343L55.9326 39.3867L56.1516 39.4513L56.3707 39.5314L56.5867 39.6238L56.8027 39.7285L57.0156 39.8487L57.2254 39.9811L57.4352 40.1289L57.642 40.2891L57.8456 40.4616L58.0493 40.6494L58.3486 40.9605L58.6386 41.2993L58.9163 41.6628L59.1847 42.0539L59.4439 42.4697L59.6908 42.9071L59.9284 43.3691L60.1567 43.8557L60.3758 44.3639L60.5856 44.8936L60.7862 45.445L60.9775 46.0178L61.1626 46.6123L61.3385 47.2283L61.5051 47.8627L61.6656 48.5157L61.8167 49.1902L61.9587 49.8832L62.0944 50.5916L62.221 51.3185L62.3413 52.0638L62.4524 52.8246L62.5573 53.6007L62.656 54.3923L62.7455 55.1992L62.8288 56.0216L62.906 56.8593L62.9738 57.7094L63.0355 58.5718L63.0911 59.4465L63.1405 60.3335L63.1621 60.8386H63.7792V60.3428L63.7761 59.4403L63.7668 58.541L63.7514 57.6447L63.7267 56.7546L63.6959 55.8707L63.6557 54.9959L63.6095 54.1305L63.5539 53.2742L63.4891 52.4272L63.412 51.5926L63.3256 50.7702L63.2299 49.9602L63.1219 49.1656L63.0016 48.3863L62.8689 47.6225L62.7239 46.8771L62.5635 46.1503L62.3907 45.4419L62.2024 44.755L62.0019 44.0898L61.7859 43.4461L61.5545 42.827L61.3045 42.2325L61.0392 41.6628L60.7584 41.1176L60.4591 40.6002L60.1444 40.1104L59.8111 39.6485L59.4594 39.2173L59.0891 38.8169L58.6972 38.4442L58.4905 38.2655L58.2807 38.0962L58.0709 37.936L57.858 37.7882L57.645 37.6496L57.4321 37.5202L57.2192 37.4032L57.0032 37.2954L56.7873 37.1999L56.5713 37.1136L56.3553 37.0397L56.1393 36.975L55.9233 36.9196L55.7073 36.8765L55.4913 36.8426L55.2753 36.821L55.0563 36.8087H54.8372L54.6181 36.818L54.399 36.8395L54.18 36.8734L53.9609 36.9165L53.7418 36.972L53.5227 37.0397L53.3006 37.1167L53.0784 37.206L52.8562 37.3077L52.6341 37.4216C51.2949 38.1885 50.178 39.5561 49.3387 40.8158L49.3294 40.8281C48.845 41.6289 48.5241 42.2787 48.1415 43.1719L48.1168 43.2305L48.0921 43.289L48.0674 43.3475L48.0427 43.406L48.0181 43.4645L47.9934 43.5231L47.9687 43.5816L47.944 43.6401L47.9193 43.6986L47.8946 43.7571L47.8699 43.8157L47.8453 43.8742L47.8206 43.9358L47.7959 43.9974L47.7712 44.059L47.7465 44.1206L47.7249 44.1822L47.7033 44.2438L47.6817 44.3054C47.2528 45.4665 47.185 45.7068 46.827 46.9849L46.7067 47.4285L46.5925 47.8781L46.4814 48.337L46.3734 48.8021L46.2685 49.2734L46.1667 49.7508L46.068 50.2374L45.9723 50.7302L45.8798 51.2291L45.7934 51.7343L45.71 52.2455L45.6298 52.763L45.5527 53.2835L45.4786 53.8102L45.4077 54.343L45.3398 54.882L45.275 55.4241L45.2133 55.9723L45.1546 56.5267L45.0991 57.0842L45.0467 57.6478L44.9973 58.2145L44.951 58.7843L44.9078 59.3603L44.8677 59.9393L44.8492 60.2565H44.88ZM50.3878 63.4566C50.4557 59.6282 50.6346 55.9939 51.7485 52.3348L51.8627 51.9191L51.9799 51.5217L52.1034 51.1429L52.2299 50.7825L52.3625 50.4407L52.4983 50.1203L52.6402 49.8216L52.7853 49.5413L52.9334 49.2857L53.0877 49.0516L53.245 48.8391L53.4055 48.6481L53.4919 48.5557L53.5783 48.4695L53.6647 48.3925L53.748 48.3247L53.8313 48.2631L53.9115 48.2077L53.9917 48.1615L54.0689 48.1215L54.146 48.0876L54.2201 48.0598L54.2941 48.0383L54.3651 48.0229L54.436 48.0137L54.507 48.0075H54.578L54.649 48.0137L54.7199 48.0229L54.7909 48.0383L54.8649 48.0598L54.939 48.0876L55.0161 48.1215L55.0933 48.1584L55.1704 48.2015L55.2506 48.2539L55.3309 48.3124L55.4111 48.3771L55.4944 48.4479L55.5777 48.5249L55.661 48.6081L55.7443 48.6974L55.8276 48.7929L55.9079 48.8945L56.056 49.0947L56.1948 49.3072L56.3275 49.5382L56.4571 49.7846L56.5805 50.0464L56.6978 50.3236L56.8089 50.6162L56.9138 50.9211L57.0125 51.2415L57.1051 51.5741C58.0678 54.5955 58.0925 57.7186 58.1141 60.7524L57.6636 60.774C57.5926 57.8665 57.7962 54.4169 56.1794 51.6203L56.0899 51.5002L55.9974 51.3893L55.9048 51.2846L55.8091 51.1891L55.7104 51.0998L55.6086 51.0197L55.5037 50.9458L55.3988 50.8811L55.2908 50.8257L55.1797 50.7764L55.0655 50.7363L54.9513 50.7086L54.8341 50.6901L54.7168 50.6809H54.5996L54.4823 50.6901L54.3682 50.7086L54.254 50.7363L54.1429 50.7733L54.0349 50.8164L53.93 50.8688L53.8282 50.9273L53.7295 50.992L53.6307 51.0628L53.5351 51.1398L53.4425 51.223L53.353 51.3123L53.2635 51.4047L53.1771 51.5033L53.0938 51.608L53.0105 51.7158L52.9303 51.8297L52.7822 52.0515L52.6402 52.2856C50.971 55.6828 51.3227 60.004 51.1314 63.4689L50.3878 63.4535V63.4566ZM47.9101 63.5182L47.9409 62.6096L47.9779 61.7318L48.0211 60.8664L48.0705 60.0101L48.1291 59.1662L48.1939 58.3346L48.2649 57.5154L48.3451 56.7084L48.4315 55.9169L48.5272 55.1407L48.629 54.3799L48.7401 53.6346L48.8604 52.9077L48.9869 52.1962L49.1227 51.5033L49.2646 50.8318L49.4158 50.1789L49.5763 49.5475L49.7429 48.9376L49.9188 48.3494L50.1039 47.7857L50.2952 47.2437L50.4958 46.7262L50.7056 46.2334L50.9216 45.7684L51.1468 45.331L51.3813 44.9214L51.622 44.5394L51.8719 44.1853L52.128 43.8619L52.3903 43.5693L52.6618 43.3044L52.8069 43.1781L52.955 43.058L53.1031 42.9502L53.2481 42.8516L53.3931 42.7623L53.5382 42.6822L53.6832 42.6145L53.8251 42.5559L53.967 42.5067L54.109 42.4666L54.2478 42.4327L54.3867 42.4081L54.5255 42.3927L54.6644 42.3865H54.8032L54.9421 42.3958L55.0809 42.4112L55.2198 42.4358L55.3586 42.4697L55.4975 42.5097L55.6363 42.559L55.7752 42.6175L55.914 42.6822L56.0529 42.7561L56.1948 42.8393L56.3368 42.9317L56.4787 43.0303L56.6206 43.1381L56.7626 43.2551L56.9014 43.3814L57.0403 43.5138L57.176 43.6524L57.4321 43.9389L57.6728 44.2468L57.9042 44.5764L58.1233 44.9306L58.3331 45.3064L58.5306 45.7037L58.7188 46.1225L58.8947 46.563L59.0613 47.0219L59.2187 47.4993L59.3637 47.9952L59.4995 48.5095L59.626 49.0393L59.7432 49.5844L59.8512 50.145L59.95 50.7209L60.0425 51.3092L60.1258 51.9098L60.203 52.5227L60.2709 53.148L60.3326 53.7824L60.3881 54.4292L60.4344 55.0822L60.4745 55.7444L60.5085 56.4158L60.5393 57.0934L60.564 57.7772L60.5825 58.4671L60.5979 59.1631L60.6072 59.8623L60.6134 60.5645V60.8571H60.4313L60.419 60.5584L60.382 59.8746L60.3418 59.2001L60.2986 58.5348L60.2493 57.8788L60.1968 57.2351L60.1382 56.6006L60.0765 55.9785L60.0086 55.3686L59.9345 54.7711L59.8574 54.1859L59.7741 53.613L59.6877 53.0525L59.5951 52.5073L59.4964 51.9745L59.3946 51.4571L59.2866 50.9519L59.1724 50.4622L59.0552 49.9879L58.9317 49.529L58.8021 49.0855L58.6664 48.6604L58.5244 48.2508L58.3763 47.8566L58.222 47.4808L58.0616 47.1235L57.895 46.7817L57.7222 46.4583L57.5432 46.1534L57.355 45.8669L57.1606 45.599L56.9601 45.3526L56.8181 45.1986L56.6762 45.0569L56.5312 44.9244L56.383 44.8012L56.2349 44.6904L56.0837 44.5887L55.9295 44.4994L55.7721 44.4193L55.6147 44.3516L55.4543 44.2961L55.2938 44.2499L55.1334 44.216L54.9699 44.1945L54.8063 44.1822H54.6428L54.4823 44.1945L54.3219 44.216L54.1614 44.2499L54.0041 44.293L53.8498 44.3454L53.6955 44.407L53.5443 44.4778L53.3962 44.5579L53.2481 44.6472L53.1031 44.7427L52.9611 44.8474L52.8223 44.9583L52.6865 45.0784L52.5508 45.2047L52.4181 45.3372L52.2885 45.4788L52.1589 45.6298L51.9151 45.9377L51.6806 46.2704L51.4554 46.6277L51.2394 47.0065L51.0327 47.4069L50.8352 47.8258L50.647 48.2662L50.468 48.7251L50.2952 49.2025L50.1317 49.6953L49.9743 50.2066L49.8262 50.7333L49.6843 51.2753L49.5516 51.8328L49.4251 52.4026L49.3078 52.9878L49.1967 53.5853L49.0918 54.1921L48.9931 54.8111L48.9036 55.4395L48.8203 56.077L48.7432 56.7238L48.6753 57.3798L48.6136 58.042L48.558 58.7104L48.5087 59.3849L48.4655 60.0656L48.4284 60.7493L48.3976 61.4362L48.3729 62.1261L48.3575 62.816L48.3451 63.549H47.9101V63.5182ZM46.719 45.4357L46.6388 45.2078L46.5061 44.8844L46.3642 44.5856L46.2099 44.3146L46.0464 44.0713L45.8736 43.8526L45.6885 43.6617L45.491 43.4984L45.2812 43.366L45.059 43.2674L44.8769 43.2181L44.6949 43.2674L44.4727 43.366L44.2629 43.4984L44.0654 43.6617L43.8803 43.8526L43.7075 44.0713L43.544 44.3146L43.3897 44.5856L43.2478 44.8844L43.1151 45.2078L43.0349 45.4357C42.9454 45.1647 42.8559 44.8998 42.7602 44.6411L43.0009 43.8988L43.1552 43.4923L43.3156 43.1227L43.4823 42.7931L43.6551 42.5036L43.8309 42.2541L44.0068 42.0416L44.1827 41.866L44.3555 41.7274L44.5221 41.6258L44.6856 41.555L44.843 41.5118H44.8739H44.9047L45.0621 41.555L45.2256 41.6258L45.3922 41.7274L45.565 41.866L45.7409 42.0416L45.9168 42.2541L46.0927 42.5036L46.2655 42.7931L46.4321 43.1227L46.5925 43.4923L46.7468 43.8988L46.9875 44.6411C46.8918 44.8998 46.7993 45.1647 46.7129 45.4357H46.719ZM48.3328 41.6966V41.6905L48.1631 41.1946L47.9749 40.7357L47.7712 40.3106L47.5491 39.9226L47.3115 39.5715L47.0584 39.2542L46.7931 38.9739L46.5123 38.7306L46.2192 38.5273L45.9137 38.361L45.599 38.2347L45.275 38.1516L44.9448 38.1085H44.8183L44.4882 38.1516L44.1642 38.2347L43.8494 38.361L43.544 38.5273L43.2508 38.7306L42.9701 38.9739L42.7047 39.2542L42.4517 39.5715L42.2141 39.9226L41.9919 40.3106L41.7883 40.7357L41.6001 41.1946L41.4304 41.6905V41.6966C41.3532 41.5611 41.2761 41.4287 41.1989 41.2993C41.1619 41.2377 41.1249 41.173 41.0848 41.1114L41.3902 40.1043L41.6093 39.4945L41.8438 38.937L42.0938 38.4319L42.356 37.976L42.6276 37.5726L42.9084 37.2184L43.1953 36.9134L43.4854 36.6578L43.7785 36.4514L44.0716 36.2913L44.3647 36.1742L44.6579 36.1003L44.8831 36.0757L45.1084 36.1003L45.4015 36.1742L45.6946 36.2913L45.9878 36.4514L46.2809 36.6578L46.5709 36.9134L46.8579 37.2184L47.1387 37.5726L47.4102 37.976L47.6725 38.4319L47.9224 38.937L48.1569 39.4945L48.376 40.1043L48.6815 41.1114C48.6444 41.173 48.6043 41.2346 48.5673 41.2993C48.4902 41.4287 48.413 41.5611 48.339 41.6966H48.3328ZM50.0268 39.2327L49.9157 38.7029L49.7151 37.9483L49.4868 37.2461L49.2307 36.5962L48.9499 35.9987L48.6444 35.4535L48.3143 34.9607L47.9625 34.5203L47.5892 34.1353L47.1973 33.8027L46.79 33.5255L46.3673 33.3037L45.9291 33.1374L45.4817 33.0265L45.0281 32.9742H44.8739H44.7196L44.266 33.0265L43.8186 33.1374L43.3804 33.3037L42.9577 33.5255L42.5504 33.8027L42.1586 34.1353L41.7852 34.5203L41.4334 34.9607L41.1033 35.4535L40.7978 35.9987L40.517 36.5962L40.2609 37.2461L40.0326 37.9483L39.832 38.7029L39.721 39.2327C39.4895 38.9585 39.2489 38.6937 38.9989 38.4442L39.3137 37.0705L39.5852 36.0972L39.8876 35.201L40.2146 34.3786L40.5664 33.6302L40.9398 32.9557L41.3316 32.3551L41.742 31.8284L42.1647 31.3726L42.5967 30.9907L43.0349 30.6765L43.4792 30.4332L43.9266 30.2545L44.3771 30.1406L44.8276 30.0913H44.8677H44.9078L45.3583 30.1406L45.8088 30.2545L46.2562 30.4332L46.7005 30.6765L47.1387 30.9907L47.5706 31.3726L47.9934 31.8284L48.4038 32.3551L48.7956 32.9557L49.169 33.6302L49.5207 34.3786L49.8478 35.201L50.1502 36.0972L50.4217 37.0705L50.7365 38.4442C50.4865 38.6937 50.2458 38.9585 50.0144 39.2327H50.0268ZM39.3692 63.4597L38.6256 63.4751C38.4343 60.0101 38.786 55.692 37.1167 52.2917L36.9748 52.0577L36.8267 51.8359L36.7465 51.7219L36.6631 51.6141L36.5798 51.5094L36.4934 51.4109L36.404 51.3185L36.3145 51.2291L36.2219 51.146L36.1263 51.069L36.0275 50.9981L35.9288 50.9335L35.827 50.8749L35.722 50.8226L35.6141 50.7795L35.503 50.7425L35.3888 50.7148L35.2746 50.6963L35.1574 50.6871H35.0401L34.9229 50.6963L34.8056 50.7148L34.6915 50.7425L34.5773 50.7825L34.4662 50.8318L34.3582 50.8873L34.2533 50.9519L34.1484 51.0259L34.0466 51.1059L33.9478 51.1953L33.8522 51.2907L33.7596 51.3955L33.6671 51.5063L33.5776 51.6265C31.9607 54.4231 32.1675 57.8726 32.0934 60.7801L31.6429 60.7586C31.6614 57.7248 31.6892 54.6017 32.6519 51.5803L32.7445 51.2476L32.8432 50.9273L32.9481 50.6224L33.0592 50.3298L33.1765 50.0526L33.2999 49.7908L33.4295 49.5444L33.5621 49.3134L33.701 49.1009L33.846 48.9007L33.9262 48.799L34.0096 48.7036L34.0929 48.6142L34.1762 48.5311L34.2595 48.4541L34.3428 48.3832L34.423 48.3186L34.5032 48.26L34.5835 48.2077L34.6606 48.1646L34.7378 48.1276L34.8149 48.0937L34.8889 48.066L34.963 48.0445L35.034 48.0291L35.1049 48.0198L35.1759 48.0137H35.2469L35.3178 48.0198L35.3888 48.0291L35.4598 48.0445L35.5338 48.066L35.6079 48.0937L35.685 48.1276L35.7622 48.1676L35.8424 48.2138L35.9226 48.2693L36.0059 48.3309L36.0892 48.3986L36.1756 48.4756L36.262 48.5619L36.3484 48.6543L36.5089 48.8452L36.6662 49.0578L36.8205 49.2918L36.9686 49.5475L37.1136 49.8278L37.2556 50.1265L37.3913 50.4468L37.524 50.7887L37.6505 51.1491L37.774 51.5279L37.8912 51.9252L38.0054 52.341C39.1193 55.9969 39.2982 59.6313 39.3661 63.4628L39.3692 63.4597ZM41.8469 63.5213H41.4118L41.3995 62.7883L41.3841 62.0984L41.3594 61.4084L41.3285 60.7216L41.2915 60.0378L41.2483 59.3572L41.1989 58.6827L41.1434 58.0143L41.0817 57.3521L41.0107 56.6961L40.9336 56.0493L40.8503 55.4117L40.7608 54.7834L40.6621 54.1644L40.5571 53.5576L40.4461 52.9601L40.3257 52.3749L40.1992 51.8051L40.0665 51.2476L39.9246 50.7055L39.7765 50.1789L39.6191 49.6676L39.4556 49.1748L39.2828 48.6974L39.1038 48.2385L38.9156 47.7981L38.7181 47.3792L38.5114 46.9788L38.2954 46.5999L38.0702 46.2427L37.8357 45.91L37.5919 45.602L37.4623 45.4511L37.3327 45.3094L37.2 45.177L37.0643 45.0507L36.9285 44.9306L36.7897 44.8197L36.6477 44.715L36.5027 44.6195L36.3546 44.5302L36.2065 44.4501L36.0553 44.3793L35.901 44.3177L35.7467 44.2653L35.5894 44.2222L35.4289 44.1883L35.2685 44.1668L35.108 44.1544H34.9445L34.781 44.1637L34.6174 44.1853L34.457 44.2191L34.2965 44.2653L34.1361 44.3208L33.9787 44.3885L33.8213 44.4686L33.6671 44.5579L33.5159 44.6596L33.3678 44.7704L33.2196 44.8936L33.0746 45.0261L32.9327 45.1678L32.7908 45.3218L32.5902 45.5682L32.3958 45.8361L32.2076 46.1225L32.0286 46.4275L31.8558 46.7509L31.6892 47.0927L31.5288 47.45L31.3745 47.8258L31.2264 48.22L31.0844 48.6296L30.9487 49.0547L30.8191 49.4982L30.6956 49.9571L30.5784 50.4314L30.4642 50.9211L30.3562 51.4263L30.2544 51.9437L30.1557 52.4765L30.0631 53.0217L29.9767 53.5822L29.8934 54.1551L29.8163 54.7403L29.7422 55.3378L29.6743 55.9476L29.6126 56.5698L29.554 57.2043L29.5015 57.848L29.4522 58.504L29.409 59.1693L29.3689 59.8438L29.3318 60.5276L29.3195 60.8263H29.1344V60.5337L29.1405 59.8315L29.1498 59.1323L29.1652 58.4363L29.1837 57.7464L29.2084 57.0626L29.2393 56.385L29.2732 55.7136L29.3133 55.0514L29.3596 54.3984L29.4151 53.7516L29.4768 53.1172L29.5447 52.4919L29.6219 51.879L29.7052 51.2784L29.7977 50.6901L29.8965 50.1142L30.0045 49.5536L30.1217 49.0085L30.2482 48.4787L30.384 47.9644L30.529 47.4685L30.6864 46.9911L30.853 46.5322L31.0289 46.0917L31.2171 45.6729L31.4146 45.2756L31.6244 44.8998L31.8435 44.5456L32.0749 44.216L32.3156 43.9081L32.5717 43.6216L32.7074 43.483L32.8463 43.3506L32.9851 43.2243L33.1271 43.1073L33.269 42.9995L33.411 42.9009L33.5529 42.8085L33.6948 42.7253L33.8337 42.6514L33.9725 42.5867L34.1114 42.5282L34.2502 42.4789L34.3891 42.4389L34.5279 42.405L34.6668 42.3804L34.8056 42.365L34.9445 42.3557H35.0833L35.2222 42.3619L35.361 42.3773L35.4999 42.4019L35.6387 42.4358L35.7807 42.4759L35.9226 42.5251L36.0645 42.5837L36.2096 42.6514L36.3546 42.7315L36.4996 42.8208L36.6446 42.9194L36.7927 43.0272L36.9409 43.1473L37.0859 43.2736L37.3574 43.5385L37.6197 43.8311L37.8758 44.1544L38.1226 44.5086L38.3633 44.8906L38.5978 45.3002L38.8231 45.7376L39.039 46.2026L39.2489 46.6954L39.4494 47.2129L39.6407 47.7549L39.8259 48.3186L40.0017 48.9068L40.1684 49.5167L40.3288 50.1481L40.48 50.801L40.6219 51.4725L40.7577 52.1654L40.8842 52.8769L41.0045 53.6038L41.1156 54.3491L41.2175 55.1099L41.3131 55.8861L41.3995 56.6776L41.4797 57.4846L41.5507 58.3038L41.6155 59.1354L41.6741 59.9793L41.7235 60.8356L41.7667 61.701L41.8037 62.5788L41.8346 63.4874L41.8469 63.5213Z" fill="#F5F5F5"/>
<path id="Vector_8" fill-rule="evenodd" clip-rule="evenodd" d="M20.8203 63.9279L21.2739 64.8334L22.1718 66.2717L23.1931 67.6207L24.3348 68.8835L25.5875 70.0601L26.9421 71.1473L28.3892 72.1421L29.9228 73.0446L31.5334 73.8515L33.2089 74.563L34.943 75.179L36.7295 75.6933L38.5531 76.1091L40.4137 76.4233L42.2928 76.6358L44.1874 76.7436H44.8816H45.579L47.4735 76.6358L49.3526 76.4233L51.2132 76.1091L53.0368 75.6933L54.8233 75.179L56.5574 74.563L58.2329 73.8515L59.8436 73.0446L61.3771 72.1421L62.8242 71.1473L64.1788 70.0601L65.4284 68.8835L66.5732 67.6207L67.5945 66.2717L68.4924 64.8334L68.946 63.9279H44.8816H20.8203Z" fill="#FFED00"/>
<path id="Vector_9" fill-rule="evenodd" clip-rule="evenodd" d="M12.1697 75.4315C11.8643 77.2549 11.3027 78.7178 10.3647 79.6541C8.35289 82.0596 8.68613 85.9496 12.503 86.4886H17.733C21.553 85.9496 21.8862 82.0596 19.8713 79.6541C18.9333 78.7178 18.3687 77.2549 18.0663 75.4315C17.6929 70.5682 12.5462 70.5682 12.1697 75.4315Z" fill="#2B2A29"/>
<path id="Vector_10" fill-rule="evenodd" clip-rule="evenodd" d="M12.5802 75.4901L12.5462 75.6749L12.5154 75.8473L12.4815 76.0167L12.4475 76.1861L12.4105 76.3524L12.3735 76.5157L12.3333 76.6789L12.2901 76.836L12.2469 76.9962L12.2007 77.1502L12.1544 77.3042L12.105 77.4551L12.0526 77.6029L12.0001 77.7508L11.9446 77.8924L11.8859 78.0341L11.8273 78.1758L11.7656 78.3113L11.7008 78.4468L11.636 78.5762L11.5681 78.7055L11.4972 78.8349L11.4231 78.9581L11.349 79.0782L11.2688 79.1983L11.1886 79.3123L11.1084 79.4263L11.022 79.5371L10.9356 79.6449L10.843 79.7497L10.7504 79.8513L10.6733 79.9283L10.5129 80.1316L10.3586 80.3533L10.2166 80.5782L10.087 80.8092L9.97288 81.0432L9.87106 81.2835L9.78466 81.5268L9.71061 81.7701L9.65198 82.0165L9.60878 82.2598L9.57793 82.5031L9.5625 82.7465V82.9867L9.57484 83.2239L9.6057 83.4549L9.6489 83.6797L9.70752 83.9015L9.78158 84.114L9.87106 84.3203L9.97597 84.5205L10.0963 84.7084L10.2321 84.8901L10.3833 85.0626L10.5499 85.2258L10.735 85.3768L10.9387 85.5184L11.1577 85.6447L11.3984 85.7618L11.6576 85.8665L11.9384 85.9527L12.2377 86.0266L12.537 86.0759H17.6961L17.9954 86.0266L18.2978 85.9527L18.5785 85.8665L18.8377 85.7618L19.0784 85.6447L19.2975 85.5184L19.5011 85.3768L19.6863 85.2258L19.8529 85.0626L20.0041 84.8901L20.1398 84.7084L20.2602 84.5205L20.3651 84.3203L20.4515 84.114L20.5255 83.9015L20.5873 83.6797L20.6305 83.4549L20.6582 83.2239L20.6736 82.9867V82.7465L20.6582 82.5031L20.6274 82.2598L20.5842 82.0165L20.5255 81.7701L20.4515 81.5268L20.3651 81.2835L20.2633 81.0432L20.146 80.8092L20.0195 80.5782L19.8776 80.3533L19.7233 80.1316L19.5598 79.9283L19.4826 79.8513L19.3901 79.7497L19.3006 79.6449L19.2142 79.5371L19.1278 79.4263L19.0445 79.3123L18.9642 79.1983L18.8871 79.0782L18.813 78.9581L18.739 78.8349L18.668 78.7055L18.6001 78.5762L18.5353 78.4468L18.4705 78.3113L18.4088 78.1758L18.3502 78.0341L18.2916 77.8924L18.236 77.7508L18.1836 77.6029L18.1311 77.4551L18.0818 77.3042L18.0355 77.1502L17.9892 76.9962L17.946 76.836L17.9028 76.6789L17.8627 76.5157L17.8257 76.3524L17.7886 76.1861L17.7516 76.0167L17.7177 75.8473L17.6868 75.6749L17.656 75.4901L17.6066 75.0496L17.5387 74.6677L17.4461 74.3104L17.3351 73.987L17.2055 73.6914L17.0604 73.4234L16.9 73.1832L16.7303 72.9706L16.5482 72.7858L16.3569 72.6288L16.1625 72.4963L15.9589 72.3885L15.7522 72.3054L15.5423 72.2469L15.3294 72.2099L15.1165 72.1976L14.9036 72.2099L14.6938 72.2469L14.484 72.3054L14.2773 72.3885L14.0736 72.4963L13.8761 72.6288L13.6879 72.7858L13.5059 72.9706L13.3362 73.1832L13.1757 73.4234L13.0307 73.6914L12.9011 73.987L12.79 74.3104L12.6974 74.6677L12.6296 75.0496L12.5802 75.4901Z" fill="#F5F5F5"/>
<path id="Vector_11" fill-rule="evenodd" clip-rule="evenodd" d="M15.1719 72.9644C16.2426 73.2817 17.0356 74.0702 17.2176 75.9058C17.3873 76.9438 17.5107 78.0094 17.9242 78.8841C18.2513 79.5802 18.8468 80.0915 19.2417 80.7568C21.0869 83.8645 19.2603 85.7063 16.6005 85.5862C18.5598 84.8778 20.7197 84.1817 18.5969 81.0771C17.3441 79.6387 16.8844 78.1018 16.6468 76.1892C16.5696 74.7015 15.8877 73.8145 15.1719 72.9614V72.9644Z" fill="#D9DADA"/>
<path id="Vector_12" fill-rule="evenodd" clip-rule="evenodd" d="M72.2088 75.4315C71.9033 77.2549 71.3418 78.7178 70.4037 79.6541C68.392 82.0596 68.7252 85.9496 72.542 86.4886H77.7721C81.592 85.9496 81.9253 82.0596 79.9104 79.6541C78.9724 78.7178 78.4077 77.2549 78.1022 75.4315C77.7289 70.5682 72.5822 70.5682 72.2057 75.4315H72.2088Z" fill="#2B2A29"/>
<path id="Vector_13" fill-rule="evenodd" clip-rule="evenodd" d="M72.6193 75.4901L72.5884 75.6749L72.5575 75.8473L72.5236 76.0167L72.4866 76.1861L72.4526 76.3524L72.4125 76.5157L72.3724 76.6789L72.3292 76.836L72.286 76.9962L72.2397 77.1502L72.1934 77.3042L72.1441 77.4551L72.0916 77.6029L72.0392 77.7508L71.9836 77.8924L71.925 78.0341L71.8664 78.1758L71.8047 78.3113L71.7399 78.4468L71.6751 78.5762L71.6072 78.7055L71.5362 78.8349L71.4622 78.9581L71.3881 79.0782L71.311 79.1983L71.2307 79.3123L71.1474 79.4263L71.061 79.5371L70.9746 79.6449L70.8852 79.7497L70.7926 79.8513L70.7155 79.9283L70.5519 80.1316L70.3976 80.3533L70.2557 80.5782L70.1292 80.8092L70.0119 81.0432L69.9132 81.2835L69.8237 81.5268L69.7497 81.7701L69.691 82.0165L69.6478 82.2598L69.617 82.5031L69.6016 82.7465V82.9867L69.617 83.2239L69.6448 83.4549L69.691 83.6797L69.7497 83.9015L69.8237 84.114L69.9101 84.3203L70.015 84.5205L70.1354 84.7084L70.2711 84.8901L70.4223 85.0626L70.5889 85.2258L70.7741 85.3768L70.9777 85.5184L71.1999 85.6447L71.4375 85.7618L71.6967 85.8665L71.9775 85.9527L72.2798 86.0266L72.5791 86.0759H77.7382L78.0375 86.0266L78.3368 85.9527L78.6176 85.8665L78.8768 85.7618L79.1175 85.6447L79.3396 85.5184L79.5402 85.3768L79.7253 85.2258L79.895 85.0626L80.0462 84.8901L80.1789 84.7084L80.2992 84.5205L80.4042 84.3203L80.4936 84.114L80.5677 83.9015L80.6263 83.6797L80.6695 83.4549L80.7004 83.2239L80.7127 82.9867V82.7465L80.6973 82.5031L80.6664 82.2598L80.6232 82.0165L80.5646 81.7701L80.4906 81.5268L80.4042 81.2835L80.3023 81.0432L80.1882 80.8092L80.0586 80.5782L79.9166 80.3533L79.7624 80.1316L79.6019 79.9283L79.5248 79.8513L79.4322 79.7497L79.3396 79.6449L79.2532 79.5371L79.1668 79.4263L79.0866 79.3123L79.0064 79.1983L78.9262 79.0782L78.8521 78.9581L78.7781 78.8349L78.7102 78.7055L78.6392 78.5762L78.5744 78.4468L78.5096 78.3113L78.4479 78.1758L78.3893 78.0341L78.3307 77.8924L78.2751 77.7508L78.2227 77.6029L78.1702 77.4551L78.1208 77.3042L78.0745 77.1502L78.0283 76.9962L77.9851 76.836L77.9419 76.6789L77.9018 76.5157L77.8647 76.3524L77.8277 76.1861L77.7938 76.0167L77.7598 75.8473L77.729 75.6749L77.695 75.4901L77.6457 75.0496L77.5778 74.6677L77.4852 74.3104L77.3741 73.987L77.2445 73.6914L77.0995 73.4234L76.9421 73.1832L76.7693 72.9706L76.5873 72.7858L76.3991 72.6288L76.2016 72.4963L75.998 72.3885L75.7912 72.3054L75.5814 72.2469L75.3716 72.2099L75.1587 72.1976L74.9458 72.2099L74.7329 72.2469L74.5231 72.3054L74.3163 72.3885L74.1127 72.4963L73.9183 72.6288L73.727 72.7858L73.5449 72.9706L73.3752 73.1832L73.2148 73.4234L73.0697 73.6914L72.9402 73.987L72.8291 74.3104L72.7396 74.6677L72.6686 75.0496L72.6193 75.4901Z" fill="#F5F5F5"/>
<path id="Vector_14" fill-rule="evenodd" clip-rule="evenodd" d="M75.2031 72.9644C76.2738 73.2817 77.0668 74.0702 77.2489 75.9058C77.4186 76.9438 77.542 78.0094 77.9555 78.8841C78.2825 79.5802 78.878 80.0915 79.273 80.7568C81.1182 83.8645 79.2915 85.7063 76.6317 85.5862C78.5911 84.8778 80.751 84.1817 78.6281 81.0771C77.3754 79.6387 76.9156 78.1018 76.678 76.1892C76.6009 74.7015 75.919 73.8145 75.2031 72.9614V72.9644Z" fill="#D9DADA"/>
<path id="Vector_15" fill-rule="evenodd" clip-rule="evenodd" d="M42.3338 88.2411C42.0283 90.0644 41.4668 91.5274 40.5287 92.4637C38.5169 94.8692 38.8502 98.7592 42.667 99.2982H47.8971C51.717 98.7592 52.0503 94.8692 50.0354 92.4637C49.0974 91.5274 48.5327 90.0644 48.2272 88.2411C47.8539 83.3778 42.7072 83.3778 42.3307 88.2411H42.3338Z" fill="#2B2A29"/>
<path id="Vector_16" fill-rule="evenodd" clip-rule="evenodd" d="M42.7395 88.2965L42.7056 88.4813L42.6747 88.6538L42.6408 88.8263L42.6068 88.9926L42.5698 89.1589L42.5297 89.3222L42.4896 89.4854L42.4495 89.6456L42.4063 89.8027L42.36 89.9567L42.3106 90.1107L42.2613 90.2616L42.2119 90.4094L42.1564 90.5572L42.1008 90.702L42.0453 90.8437L41.9866 90.9823L41.9249 91.1178L41.8601 91.2533L41.7923 91.3858L41.7244 91.5151L41.6534 91.6414L41.5824 91.7646L41.5053 91.8878L41.4282 92.0048L41.3479 92.1219L41.2646 92.2358L41.1813 92.3436L41.0918 92.4514L41.0023 92.5561L40.9098 92.6578L40.8326 92.7379L40.6722 92.9411L40.5179 93.1598L40.376 93.3847L40.2464 93.6157L40.1322 93.8528L40.0304 94.0931L39.944 94.3333L39.8699 94.5766L39.8113 94.823L39.765 95.0694L39.7373 95.3127L39.7218 95.553L39.7188 95.7932L39.7342 96.0304L39.765 96.2614L39.8082 96.4893L39.8669 96.7079L39.9409 96.9235L40.0304 97.1299L40.1353 97.327L40.2526 97.518L40.3883 97.6997L40.5395 97.8722L40.7092 98.0323L40.8944 98.1832L41.0949 98.3249L41.3171 98.4543L41.5578 98.5713L41.8169 98.673L42.0977 98.7592L42.397 98.8331L42.6963 98.8855H47.8554L48.1547 98.8331L48.4571 98.7592L48.7348 98.673L48.994 98.5713L49.2347 98.4543L49.4568 98.3249L49.6605 98.1832L49.8425 98.0323L50.0122 97.8722L50.1634 97.6997L50.2992 97.518L50.4195 97.327L50.5213 97.1299L50.6108 96.9235L50.6849 96.7079L50.7435 96.4893L50.7898 96.2614L50.8176 96.0304L50.833 95.7932L50.8299 95.553L50.8176 95.3127L50.7867 95.0694L50.7404 94.823L50.6818 94.5766L50.6108 94.3333L50.5213 94.0931L50.4195 93.8528L50.3054 93.6157L50.1788 93.3847L50.0369 93.1598L49.8795 92.9411L49.7191 92.7379L49.642 92.6578L49.5494 92.5561L49.4599 92.4514L49.3704 92.3436L49.2871 92.2358L49.2038 92.1219L49.1236 92.0048L49.0464 91.8878L48.9693 91.7646L48.8983 91.6414L48.8274 91.5151L48.7595 91.3858L48.6916 91.2533L48.6299 91.1178L48.5682 90.9823L48.5065 90.8437L48.4509 90.702L48.3954 90.5572L48.3398 90.4094L48.2905 90.2616L48.2411 90.1107L48.1917 89.9567L48.1485 89.8027L48.1023 89.6456L48.0621 89.4854L48.022 89.3222L47.9819 89.1589L47.9449 88.9926L47.9109 88.8263L47.877 88.6538L47.8462 88.4813L47.8153 88.2965L47.7659 87.8592L47.695 87.4742L47.6055 87.12L47.4913 86.7935L47.3617 86.4978L47.2167 86.2299L47.0593 85.9897L46.8865 85.7802L46.7076 85.5954L46.5163 85.4353L46.3188 85.3028L46.1182 85.195L45.9115 85.1119L45.7017 85.0533L45.4888 85.0195L45.2759 85.0071L45.063 85.0195L44.8501 85.0533L44.6402 85.1119L44.4335 85.195L44.2329 85.3028L44.0355 85.4353L43.8442 85.5954L43.6652 85.7802L43.4924 85.9897L43.335 86.2299L43.19 86.4978L43.0604 86.7935L42.9493 87.12L42.8568 87.4742L42.7858 87.8592L42.7395 88.2965Z" fill="#F5F5F5"/>
<path id="Vector_17" fill-rule="evenodd" clip-rule="evenodd" d="M45.3203 85.7741C46.391 86.0913 47.184 86.8798 47.366 88.7154C47.5358 89.7534 47.6592 90.8191 48.0726 91.6938C48.3997 92.3898 48.9952 92.9011 49.3902 93.5664C51.2354 96.6741 49.4087 98.5159 46.7489 98.3958C48.7083 97.6874 50.8682 96.9913 48.7453 93.8867C47.4926 92.4484 47.0328 90.9115 46.7952 88.9988C46.7181 87.5112 46.0362 86.6241 45.3203 85.771V85.7741Z" fill="#D9DADA"/>
</g>
</g>
</g>
</svg>
