<svg width="382" height="50" viewBox="0 0 382 50" fill="none" xmlns="http://www.w3.org/2000/svg">
<path d="M32.6299 0.696838H23.6399C23.6399 0.696838 17.6965 7.76229 15.6987 10.0673C14.3502 11.6207 11.5034 14.7275 10.1049 16.2308C9.45565 16.8822 7.50781 18.8866 7.50781 18.8866C7.50781 18.8866 9.45565 20.8409 10.1049 21.5424C11.5533 23.0457 14.3502 26.1525 15.6987 27.7059C17.7464 30.0109 23.6399 37.0764 23.6399 37.0764H32.5799L17.247 18.8866L32.6299 0.696838Z" fill="#FF1919"/>
<path d="M367.308 18.4357C362.962 17.6339 360.915 16.7319 360.915 14.9781C360.915 13.575 362.563 11.6709 366.558 11.6709C370.654 11.6709 372.452 13.5249 372.752 15.3289H379.444C378.945 9.46605 374.55 6.1087 367.208 6.1087C359.416 6.1087 354.772 9.86692 354.472 14.6774C354.172 19.2374 357.319 21.6427 359.616 22.6449C360.665 23.0958 361.714 23.4967 362.813 23.7974C364.311 24.2484 370.304 25.5011 371.303 25.8018C373.351 26.4532 374.599 27.0545 374.599 28.5578C374.599 29.3595 374.25 30.011 373.601 30.5622C372.552 31.414 371.203 31.865 368.706 31.865C367.407 31.865 365.41 31.414 364.111 30.6624C362.863 29.9107 361.814 28.7582 361.464 27.4554H354.422C354.971 31.4641 358.717 37.5274 368.406 37.5274C377.197 37.5274 381.242 33.1178 381.242 28.4075C381.092 21.5926 375.349 19.9389 367.308 18.4357Z" fill="#FF1919"/>
<path d="M7.50785 0.696838H0.515625V37.0263H7.50785V0.696838Z" fill="#FF1919"/>
<path d="M197.592 6.70999V0.696838H173.469V37.0263H197.592V31.0131H180.91V22.0936H195.095V15.6295H180.91V6.70999H197.592Z" fill="#FF1919"/>
<path d="M338.44 18.4357C334.095 17.6339 332.047 16.7319 332.047 14.9781C332.047 13.575 333.696 11.6709 337.691 11.6709C341.787 11.6709 343.585 13.5249 343.884 15.3289H350.577C350.077 9.46605 345.682 6.1087 338.34 6.1087C330.549 6.1087 325.904 9.86692 325.605 14.6774C325.305 19.2374 328.451 21.6427 330.749 22.6449C331.798 23.0958 332.847 23.4967 333.945 23.7974C335.444 24.2484 341.437 25.5011 342.436 25.8018C344.484 26.4532 345.732 27.0545 345.732 28.5578C345.732 29.3595 345.383 30.011 344.733 30.5622C343.685 31.414 342.336 31.865 339.839 31.865C338.54 31.865 336.542 31.414 335.244 30.6624C333.995 29.9107 332.946 28.7582 332.597 27.4554H325.555C326.104 31.4641 329.85 37.5274 339.539 37.5274C348.329 37.5274 352.375 33.1178 352.375 28.4075C352.225 21.5926 346.481 19.9389 338.44 18.4357Z" fill="#FF1919"/>
<path d="M138.664 37.0262V6.65979H145.856V11.0193C147.304 8.06285 150.701 6.05847 154.946 6.05847C162.138 6.05847 166.283 10.7187 166.283 18.2351V27.806C166.283 30.1612 166.683 31.013 168.331 31.013C168.681 31.013 169.03 30.9629 169.38 30.9128V36.9761C168.531 37.2266 167.532 37.3268 166.233 37.3268C161.489 37.3268 159.141 34.671 159.141 29.3594V18.8364C159.141 14.5771 156.794 11.9714 152.748 11.9714C148.703 11.9714 145.856 14.9279 145.856 19.1872V37.0262H138.664Z" fill="#FF1919"/>
<path d="M322.414 21.5424C322.414 10.9693 315.772 6.15881 307.581 6.15881C298.041 6.15881 293.047 12.8735 293.047 22.1438C293.047 31.6145 299.689 37.5274 308.08 37.5274C315.871 37.5274 320.716 32.7169 322.115 27.4554H315.022C313.624 30.3116 310.777 31.865 308.23 31.865C303.136 31.865 299.689 27.6057 299.689 23.7473H322.364L322.414 21.5424ZM299.64 19.037C299.889 15.7297 303.086 12.1219 307.83 12.1219C312.425 12.1219 315.522 15.5293 315.572 19.037H299.64Z" fill="#FF1919"/>
<path d="M233.51 6.65991H224.719L216.778 17.5337L208.837 6.65991H200.047L212.383 22.3943L200.846 37.0263H209.636L216.778 27.2048L223.92 37.0263H232.711L221.173 22.3943L233.51 6.65991Z" fill="#FF1919"/>
<path d="M133.368 31.0132C131.72 31.0132 131.321 30.1613 131.321 27.8061V23.1961V6.65991H123.829V10.6186C121.282 7.96276 118.085 6.15881 114.24 6.15881C106.049 6.15881 99.4062 13.1742 99.4062 21.8431C99.4062 30.5121 106.049 37.4773 114.24 37.5274C116.238 37.5274 118.235 37.1265 120.083 36.3248C121.831 35.5731 123.38 34.4206 124.628 33.0175C125.527 35.9239 127.725 37.327 131.271 37.327C132.519 37.327 133.568 37.2267 134.417 36.9762V30.9129C134.068 30.963 133.718 31.0132 133.368 31.0132ZM121.981 28.1569C120.533 30.011 118.485 31.2136 116.238 31.5143C114.44 31.7648 112.642 31.3639 110.993 30.462C109.295 29.5099 107.947 27.9565 107.098 26.0022C106.249 24.0479 106.049 21.8431 106.448 19.7385C106.848 17.6339 107.897 15.7799 109.395 14.4269C110.844 13.124 112.592 12.3223 114.39 12.1219C116.138 11.9715 117.886 12.3724 119.384 13.2243C120.832 14.0761 122.031 15.3289 122.88 16.8823C123.679 18.3855 124.129 20.0893 124.129 21.793C124.079 24.1481 123.33 26.4031 121.981 28.1569Z" fill="#FF1919"/>
<path d="M288.352 6.10864C284.057 6.10864 280.711 8.11303 279.262 11.0695V6.70996H272.07V37.0764H279.262V19.5881C279.262 15.429 282.109 12.5227 286.155 12.5227C287.603 12.5227 288.852 12.8734 289.851 13.4747L293.447 7.51171C292.248 6.60974 290.4 6.10864 288.352 6.10864Z" fill="#FF1919"/>
<path d="M253.687 6.15881C249.842 6.15881 246.595 8.01287 244.098 10.6186V6.65991H236.656V49.3032H243.948V33.669C245.097 34.7714 246.395 35.6733 247.844 36.3248C249.692 37.1265 251.64 37.5775 253.687 37.5274C261.878 37.4773 268.521 30.5121 268.521 21.8431C268.521 13.1742 261.878 6.15881 253.687 6.15881ZM260.879 26.0022C260.03 27.9064 258.682 29.4598 256.984 30.462C255.385 31.414 253.537 31.7648 251.739 31.5143C249.492 31.2136 247.444 30.011 245.996 28.1569C244.597 26.4031 243.848 24.1481 243.848 21.8431C243.848 20.1394 244.248 18.3855 245.097 16.9324C245.896 15.379 247.095 14.1262 248.593 13.2744C250.091 12.3724 251.839 11.9715 253.587 12.172C255.435 12.3223 257.183 13.124 258.582 14.477C260.08 15.83 261.079 17.7341 261.529 19.7886C261.928 21.8431 261.728 24.0479 260.879 26.0022Z" fill="#FF1919"/>
<path d="M65.7904 31.0132C64.1422 31.0132 63.7426 30.1613 63.7426 27.8061V23.1961V6.65991H56.251V10.6186C53.7038 7.96276 50.5074 6.15881 46.6616 6.15881C38.4707 6.15881 31.8281 13.1742 31.8281 21.8431C31.8281 30.5121 38.4707 37.4773 46.6616 37.5274C48.6594 37.5274 50.6572 37.1265 52.5051 36.3248C54.2532 35.5731 55.8015 34.4206 57.0501 33.0175C57.9491 35.9239 60.1466 37.327 63.6927 37.327C64.9413 37.327 65.9901 37.2267 66.8392 36.9762V30.9129C66.4896 30.963 66.14 31.0132 65.7904 31.0132ZM54.3531 28.1569C52.9047 30.011 50.857 31.2136 48.6095 31.5143C46.8115 31.7648 45.0135 31.3639 43.3653 30.462C41.6672 29.5099 40.3187 27.9565 39.4696 26.0022C38.6206 24.0479 38.4208 21.8431 38.8203 19.7385C39.2199 17.6339 40.2687 15.7799 41.7671 14.4269C43.2155 13.124 44.9635 12.3223 46.7615 12.1219C48.5096 11.9715 50.2576 12.3724 51.756 13.2243C53.2044 14.0761 54.403 15.3289 55.2521 16.8823C56.0512 18.3855 56.5007 20.0893 56.5007 21.793C56.5007 24.1481 55.7515 26.4031 54.3531 28.1569Z" fill="#FF1919"/>
<path d="M96.8587 12.6731V6.65991H70.9375V12.623H87.8687L70.9375 31.0633V37.0263H96.8587V31.0633H79.9275L96.8587 12.6731Z" fill="#FF1919"/>
</svg>
