<svg width="155" height="116" viewBox="0 0 155 116" fill="none" xmlns="http://www.w3.org/2000/svg">
<g id="Frame 107">
<path id="Vector" d="M143.929 0H0V39.3962C0 59.7128 8.16516 79.1973 22.6992 93.5633C37.2333 107.929 56.9457 116 77.5 116C98.0543 116 117.767 107.929 132.301 93.5633C146.835 79.1973 155 59.7128 155 39.3962V0H143.929Z" fill="white"/>
<path id="Vector_2" d="M31.8745 34.5921H27.922L27.6562 32.9506C31.6088 31.1887 32.3284 26.6472 32.3284 22.9702V20.6283L30.3355 19.8513L30.6013 18.1879H42.7798L43.0677 19.8513L41.0748 20.6283V32.1955L43.0455 32.9177L42.7798 34.5811H36.0705L35.838 32.9177L37.8087 32.1955V19.8623H34.3766V23.7909C34.4098 27.1506 33.6348 31.9219 31.8745 34.5921Z" fill="#756B65"/>
<path id="Vector_3" d="M50.1417 19.8623V25.2245H52.5774L53.286 23.3313L54.991 23.5611V28.7373L53.3082 28.9672L52.5774 27.074H50.1417V32.9287H54.8139L56.065 29.4158L57.7478 29.6456V34.5921H45.1706L44.9382 32.9287L46.8757 32.2064V20.6392L44.8828 19.8623L45.1485 18.1989H57.3271V22.4121L55.6221 22.6747L54.7032 19.917L50.1417 19.8623Z" fill="#756B65"/>
<path id="Vector_4" d="M70.6887 32.6988L71.8955 29.4158L73.5783 29.6456V33.443C71.9054 34.456 69.9824 34.9937 68.0205 34.997C61.8648 34.997 59.3516 30.7071 59.3516 26.4064C59.3016 25.267 59.4914 24.1297 59.9091 23.0665C60.3267 22.0033 60.9632 21.0374 61.778 20.23C62.5929 19.4225 63.5684 18.791 64.643 18.3754C65.7175 17.9599 66.8676 17.7693 68.0205 17.8158C69.9954 17.7959 71.9377 18.3147 73.6337 19.3151V22.9702L71.9287 23.2328L70.8216 20.1687C69.8988 19.9343 68.951 19.8094 67.9984 19.7966C64.6769 19.7966 62.8833 21.8758 62.8833 26.3079C62.8833 29.4924 63.9905 33.049 67.9984 33.049C68.9053 33.0286 69.8073 32.9112 70.6887 32.6988Z" fill="#756B65"/>
<path id="Vector_5" d="M90.4544 20.6392V32.1845L92.4251 32.9287L92.1594 34.5921H85.428L85.1955 32.9287L87.1883 32.2064V27.0521H80.2023V32.2064L82.1398 32.9287L81.9073 34.5921H75.2644L74.9987 32.9287L76.9694 32.2064V20.6392L74.9766 19.8623L75.2091 18.1989H81.9848L82.2173 19.8623L80.2244 20.6392V25.2574H87.2326V20.6392L85.2398 19.8623L85.4723 18.1989H92.248L92.4805 19.8623L90.4544 20.6392Z" fill="#756B65"/>
<path id="Vector_6" d="M103.849 17.8049L109.152 32.1845L111.234 32.9287L110.968 34.5921H104.071L103.805 32.9287L105.676 32.1845L104.569 29.3721H99.0331L97.9259 32.1845L100.14 32.9068L99.9077 34.5921H93.9845L93.7188 32.9287L95.7781 32.1845L101.225 18.2098L103.849 17.8049ZM102.454 23.5611V20.8909L99.797 27.5445H103.938L102.454 23.5611Z" fill="#756B65"/>
<path id="Vector_7" d="M121.994 19.8623H119.558C119.138 19.8324 118.717 19.8942 118.324 20.0432C117.932 20.1923 117.577 20.4249 117.285 20.7246C116.994 21.0244 116.772 21.3839 116.637 21.7776C116.502 22.1714 116.456 22.5897 116.502 23.003C116.573 23.7806 116.951 24.4993 117.554 25.0033C118.157 25.5072 118.937 25.7558 119.724 25.6951H120.975V27.1943L117 33.3555L117.233 34.6468H111.952L111.664 32.9834L113.878 32.2393L116.48 28.0698L117.997 27.2053C115.783 27.1068 113.325 25.3996 113.325 23.0577C113.325 20.1358 115.152 18.2536 118.705 18.2536H126.998L127.264 19.917L125.271 20.694V32.2393L127.264 32.9834L126.998 34.6468H120.244L119.979 32.9834L121.994 32.2393V19.8623Z" fill="#756B65"/>
<path id="Vector_8" d="M77.8848 80.5434C90.7437 80.5434 101.168 72.0868 101.168 61.6551C101.168 51.2234 90.7437 42.7668 77.8848 42.7668C65.0258 42.7668 54.6016 51.2234 54.6016 61.6551C54.6016 72.0868 65.0258 80.5434 77.8848 80.5434Z" fill="#BEA489"/>
<path id="Vector_9" d="M65.6846 65.551L64.7656 64.3143L72.9363 53.2834L74.5749 53.7102V63.7124H76.8778L76.4128 65.551H74.5196V67.5755L77.1989 68.0789L76.8667 69.8189H68.7403L68.4303 68.0461L71.2092 67.5645V65.54L65.6846 65.551ZM71.2756 60.6811L72.3828 57.3215L67.6553 63.7124H71.2867L71.2756 60.6811Z" fill="white"/>
<path id="Vector_10" d="M84.8503 59.9261C85.4966 59.9217 86.1374 60.044 86.7357 60.2858C87.334 60.5276 87.8779 60.8842 88.336 61.335C88.7941 61.7857 89.1573 62.3217 89.4046 62.912C89.652 63.5023 89.7785 64.1351 89.7771 64.774C89.7771 67.9804 87.1974 70.0815 83.8206 70.0815C82.0441 70.0769 80.3323 69.422 79.0156 68.2431L80.0674 66.7C81.0883 67.5665 82.3584 68.0947 83.6989 68.2102C84.5116 68.1139 85.2549 67.7101 85.773 67.0838C86.2911 66.4574 86.5437 65.657 86.4778 64.8506C86.4778 63.0121 85.2821 62.0929 83.1564 62.0929L81.9606 62.3227L81.1192 61.1408L86.1788 55.4831L84.0531 56.271H81.7835L81.1967 58.0438L79.5139 57.7155V53.5789H88.6035L89.2124 54.9468L84.8503 59.9261Z" fill="white"/>
<path id="Vector_11" d="M38.7559 67.4551L37.4384 64.9929L30.5187 68.5932L30.9284 69.3593C31.0415 69.6264 31.2134 69.8652 31.4316 70.0584C31.6498 70.2516 31.9089 70.3942 32.1899 70.476C32.4709 70.5578 32.7669 70.5766 33.0562 70.531C33.3455 70.4855 33.6209 70.3768 33.8623 70.2128C34.1097 70.1064 34.3298 69.9465 34.5064 69.7449C34.683 69.5433 34.8116 69.3051 34.8827 69.0479C34.9539 68.7906 34.9658 68.5209 34.9176 68.2585C34.8694 67.9961 34.7623 67.7478 34.6041 67.5317L34.3827 67.1049L34.8698 66.8532L35.2462 67.5536C35.9769 68.9215 36.1984 70.6615 34.5709 71.5042C33.2534 72.1936 31.8362 72.1608 30.718 70.0596L28.9688 66.7766L29.4005 66.4483L30.2863 67.2253L36.4641 64.008L36.3312 62.848L36.8294 62.6838L39.7523 68.1555L38.0695 69.031L37.7373 68.6042L38.7559 67.4551Z" fill="#756B65" stroke="#756B65" stroke-width="0.15" stroke-miterlimit="10"/>
<path id="Vector_12" d="M36.213 76.8445L36.5894 77.9389L36.1133 78.2015L33.9766 75.6845L34.3309 75.2796L35.3494 75.8268L40.6969 71.3838L40.3205 70.2894L40.7855 70.0377L42.9998 72.5766L42.6676 72.9815L41.6158 72.4125L37.6965 75.6955L44.1069 76.2208L44.5387 75.8706L44.1623 74.7762L44.6273 74.5245L46.8416 77.0634L46.4983 77.4573L45.4576 76.8993L40.1212 81.3423L40.5087 82.4366L40.0437 82.7102L37.8959 80.1823L38.2501 79.7774L39.2687 80.3245L43.2876 76.9868L36.8773 76.4615L36.213 76.8445Z" fill="#756B65" stroke="#756B65" stroke-width="0.15" stroke-miterlimit="10"/>
<path id="Vector_13" d="M42.6328 84.3408L43.74 82.9291L44.216 83.1918L43.6403 84.888C43.8686 85.3323 44.1892 85.7239 44.5814 86.0371C44.8065 86.1816 45.0587 86.2802 45.3229 86.3271C45.5872 86.374 45.8583 86.3683 46.1203 86.3102C46.3823 86.2521 46.6298 86.1428 46.8485 85.9888C47.0671 85.8347 47.2524 85.6391 47.3935 85.4133C47.5684 85.2316 47.7031 85.0159 47.789 84.7799C47.8748 84.5439 47.9101 84.2928 47.8923 84.0426C47.8746 83.7925 47.8044 83.5487 47.6861 83.3268C47.5678 83.105 47.4041 82.9099 47.2053 82.754L46.6407 82.3054L46.9839 81.8785L47.2607 82.0974C47.6269 82.3522 48.0751 82.4651 48.5201 82.4147C48.9651 82.3642 49.3758 82.154 49.6742 81.8238C49.819 81.6893 49.9327 81.5254 50.0076 81.3435C50.0826 81.1616 50.1171 80.9659 50.1087 80.7696C50.1003 80.5734 50.0492 80.3813 49.959 80.2063C49.8687 80.0313 49.7414 79.8775 49.5857 79.7555C49.2351 79.483 48.8375 79.2753 48.4121 79.1427L46.8842 80.0838L46.5189 79.6899L47.626 78.3657C48.4884 78.4621 49.3116 78.7748 50.0174 79.274C51.6892 80.5763 51.7003 81.7363 50.9806 82.6446C50.6806 83.0234 50.2533 83.2835 49.7761 83.3779C49.2988 83.4722 48.8032 83.3945 48.3789 83.1589L48.3125 83.2465C48.7343 83.6602 48.9894 84.2115 49.0302 84.7975C49.0709 85.3835 48.8945 85.9641 48.5339 86.431C47.7367 87.4269 46.0871 87.9521 44.2381 86.5185C43.4889 85.9734 42.9283 85.2128 42.6328 84.3408Z" fill="#756B65" stroke="#756B65" stroke-width="0.15" stroke-miterlimit="10"/>
<path id="Vector_14" d="M60.4854 86.9781L57.3411 93.1392L58.1161 93.9928L57.795 94.4196L54.8057 92.9313L54.9718 92.417L56.1454 92.5373L57.6622 89.5717L53.8425 87.6675L52.3257 90.6332L53.1007 91.4868L52.7797 91.9136L49.8125 90.4362L49.9675 89.9219L51.13 90.0422L54.2743 83.8811L53.4771 83.0166L53.7982 82.5898L56.8097 84.1L56.6436 84.6143L55.47 84.494L54.075 87.2189L57.8947 89.123L59.2896 86.3981L58.4925 85.5336L58.8136 85.1068L61.825 86.617L61.6589 87.1313L60.4854 86.9781Z" fill="#756B65" stroke="#756B65" stroke-width="0.15" stroke-miterlimit="10"/>
<path id="Vector_15" d="M65.5113 88.0725L64.6477 91.2898L66.1423 91.6838L66.7956 90.7645L67.2827 90.9834L66.6405 93.3691H66.0981L65.9873 92.2747L64.4927 91.8808L63.4852 95.6125L66.1977 96.3238L67.3602 94.6823L67.8473 94.9011L67.2495 97.0898L61.0938 95.4702V94.934L62.2009 94.8136L63.9945 88.1491L63.0312 87.4706L63.2638 86.9891L69.2091 88.554L68.722 90.3706H68.1795L68.0466 88.8276L65.5113 88.0725Z" fill="#756B65" stroke="#756B65" stroke-width="0.15" stroke-miterlimit="10"/>
<path id="Vector_16" d="M76.7613 97.451L77.5363 95.7328L78.0566 95.8532L77.9238 97.6479C77.05 98.0901 76.0666 98.2761 75.0895 98.1841C71.7681 97.9434 70.7495 95.5796 70.9155 93.2706C70.9162 92.6646 71.0464 92.0656 71.2976 91.5129C71.5488 90.9601 71.9153 90.4661 72.3731 90.0631C72.831 89.6602 73.3698 89.3574 73.9543 89.1746C74.5388 88.9919 75.1558 88.9333 75.7648 89.0027C76.7494 89.0476 77.6995 89.3746 78.4995 89.9438L78.3777 91.64H77.8352L77.3481 89.9219C76.8237 89.7322 76.2766 89.6108 75.7206 89.5607C73.6945 89.4185 72.6206 90.5785 72.3991 93.2596C72.2552 95.1857 72.6095 97.3415 75.1116 97.5166C75.6619 97.5694 76.217 97.5473 76.7613 97.451Z" fill="#756B65" stroke="#756B65" stroke-width="0.15" stroke-miterlimit="10"/>
<path id="Vector_17" d="M80.5078 94.2336L84.2721 93.9053V94.6057L80.5078 94.934V94.2336Z" fill="#756B65" stroke="#756B65" stroke-width="0.15" stroke-miterlimit="10"/>
<path id="Vector_18" d="M92.0139 88.0724L90.8292 87.9521L90.7738 87.4158L94.0178 86.5294L94.2614 87.0109L93.3092 87.7113L95.291 94.7588L96.3981 94.4634L97.1067 96.9913L96.6195 97.2211L95.1913 95.3498L88.0613 97.3087L87.8289 96.8272L88.7588 96.1377L86.8878 89.4951L85.7031 89.3747V88.8385L88.947 87.9521L89.1795 88.4336L88.2274 89.134L90.2092 96.1815L94.0731 95.0872L92.0139 88.0724Z" fill="#756B65" stroke="#756B65" stroke-width="0.15" stroke-miterlimit="10"/>
<path id="Vector_19" d="M97.8048 85.2163L99.3438 88.171L100.717 87.4706L100.584 86.3763L101.104 86.2121L102.211 88.4008L101.779 88.7181L100.938 87.963L99.5652 88.6634L101.359 92.0996L103.85 90.8302L103.595 88.8385L104.116 88.6744L105.223 90.7427L99.5541 93.6208L99.233 93.194L99.997 92.3404L96.7973 86.2012L95.6237 86.3325L95.4688 85.8181L100.949 83.0276L101.824 84.7019L101.392 85.0302L100.285 83.9359L97.8048 85.2163Z" fill="#756B65" stroke="#756B65" stroke-width="0.15" stroke-miterlimit="10"/>
<path id="Vector_20" d="M109.272 77.9827L113.701 83.334L114.808 82.9838L115.074 83.4434L112.472 85.5336L112.062 85.1834L112.66 84.1766L110.546 81.594L107.224 84.2532L109.339 86.8359L110.446 86.4857L110.712 86.9453L108.132 89.0136L107.722 88.6634L108.309 87.6676L103.881 82.3162L102.774 82.6774L102.508 82.2178L105.132 80.1166L105.541 80.4668L104.944 81.4736L106.881 83.8374L110.202 81.1782L108.265 78.8144L107.158 79.1755L106.892 78.7159L109.516 76.6147L109.926 76.9649L109.272 77.9827Z" fill="#756B65" stroke="#756B65" stroke-width="0.15" stroke-miterlimit="10"/>
<path id="Vector_21" d="M110.461 75.4766L114.989 69.8626L116.75 71.2524L116.484 71.723L114.624 71.143L113.517 72.4781L119.296 77.0415L120.315 76.4506L120.68 76.8445L118.576 79.449L118.1 79.1864L118.466 78.0921L112.686 73.5287L111.579 74.8637L112.565 76.5272L112.166 76.8883L110.461 75.4766Z" fill="#756B65" stroke="#756B65" stroke-width="0.15" stroke-miterlimit="10"/>
<path id="Vector_22" d="M123.94 70.1472L124.826 69.3702L125.247 69.7094L123.686 72.6423L123.176 72.4781L123.309 71.3838L117.142 68.1664L116.257 68.9543L115.836 68.6151L117.674 65.1789C117.811 64.8365 118.023 64.5285 118.295 64.2768C118.567 64.0251 118.892 63.8359 119.246 63.723C119.601 63.61 119.976 63.576 120.345 63.6233C120.715 63.6707 121.069 63.7983 121.383 63.997C123.132 64.9053 122.988 66.5468 122.18 68.0679L121.914 68.5604L121.438 68.3196L121.715 67.7943C121.831 67.5591 121.898 67.3034 121.913 67.0421C121.927 66.7809 121.889 66.5193 121.801 66.2728C121.712 66.0263 121.575 65.7997 121.396 65.6062C121.218 65.4127 121.003 65.2563 120.763 65.146C119.656 64.566 118.548 64.5989 117.94 65.8026L117.397 66.8094L123.94 70.1472Z" fill="#756B65" stroke="#756B65" stroke-width="0.15" stroke-miterlimit="10"/>
</g>
</svg>
