<svg width="60" height="80" fill="none" xmlns="http://www.w3.org/2000/svg"><g filter="url(#filter0_d_2675_35759)"><path d="M56 25.92C56 50 34.333 72 30 72 25.667 72 4 50 4 25.92 4 11.605 15.64 0 30 0s26 11.605 26 25.92z" fill="#1547FF"/><path d="M55.5 25.92c0 11.898-5.358 23.318-11.285 31.783-2.96 4.229-6.052 7.704-8.664 10.116-1.306 1.207-2.485 2.14-3.46 2.768a8.613 8.613 0 01-1.279.7c-.369.154-.636.213-.812.213-.176 0-.443-.059-.812-.214a8.613 8.613 0 01-1.279-.699c-.975-.628-2.154-1.561-3.46-2.768-2.612-2.412-5.704-5.887-8.664-10.116C9.858 49.238 4.5 37.818 4.5 25.92 4.5 11.882 15.915.5 30 .5s25.5 11.382 25.5 25.42z" stroke="#000" stroke-opacity=".06"/></g><circle cx="30" cy="26" r="14" fill="#fff"/><circle cx="30" cy="26" r="13.5" stroke="#000" stroke-opacity=".06"/><defs><filter id="filter0_d_2675_35759" x="0" y="0" width="60" height="80" filterUnits="userSpaceOnUse" color-interpolation-filters="sRGB"><feFlood flood-opacity="0" result="BackgroundImageFix"/><feColorMatrix in="SourceAlpha" values="0 0 0 0 0 0 0 0 0 0 0 0 0 0 0 0 0 0 127 0" result="hardAlpha"/><feOffset dy="4"/><feGaussianBlur stdDeviation="2"/><feComposite in2="hardAlpha" operator="out"/><feColorMatrix values="0 0 0 0 0 0 0 0 0 0 0 0 0 0 0 0 0 0 0.28 0"/><feBlend in2="BackgroundImageFix" result="effect1_dropShadow_2675_35759"/><feBlend in="SourceGraphic" in2="effect1_dropShadow_2675_35759" result="shape"/></filter></defs></svg>