<svg width="57" height="53" fill="none" xmlns="http://www.w3.org/2000/svg"><path d="M17 39.903l7.78 7.76a8.017 8.017 0 0011.316 0l15.56-15.52a7.966 7.966 0 000-11.286l-15.56-15.52a8.017 8.017 0 00-11.316 0L17 13.098" stroke="#1547FF" stroke-width="6"/><path d="M7.063 33H4.31v-9.28h2.752V33zm3.44-9.12H.87v-2.32h9.632v2.32zm6.817 9.376c-.907 0-1.739-.15-2.496-.448a6.142 6.142 0 01-1.984-1.248 5.68 5.68 0 01-1.296-1.888 6.322 6.322 0 01-.448-2.4c0-.864.15-1.659.448-2.384A5.68 5.68 0 0112.84 23a6.142 6.142 0 011.984-1.248c.757-.299 1.59-.448 2.496-.448.906 0 1.738.15 2.496.448A5.96 5.96 0 0121.784 23a5.384 5.384 0 011.296 1.888c.31.725.464 1.52.464 2.384 0 .864-.155 1.664-.464 2.4a5.384 5.384 0 01-1.296 1.888 5.96 5.96 0 01-1.968 1.248c-.758.299-1.59.448-2.496.448zm0-2.416c.661 0 1.237-.15 1.728-.448.501-.31.89-.73 1.168-1.264.288-.544.432-1.163.432-1.856 0-.693-.144-1.307-.432-1.84a3.068 3.068 0 00-1.168-1.248c-.49-.31-1.067-.464-1.728-.464-.65 0-1.227.155-1.728.464a3.178 3.178 0 00-1.184 1.248c-.278.533-.416 1.147-.416 1.84 0 .693.138 1.312.416 1.856a3.29 3.29 0 001.184 1.264c.501.299 1.077.448 1.728.448zM25.577 33V21.56H35.72V33h-2.752V22.232l1.312 1.632h-7.424l1.472-1.632V33h-2.752z" fill="#1547FF"/></svg>